<?xml version="1.0" encoding="utf-8" standalone="yes"?>
<!DOCTYPE svg PUBLIC "-//W3C//DTD SVG 1.1//EN" "http://www.w3.org/Graphics/SVG/1.1/DTD/svg11.dtd">
<svg width="588" height="660" viewBox="0 0 588 660" style="fill:none;stroke:none;fill-rule:evenodd;clip-rule:evenodd;stroke-linecap:round;stroke-linejoin:round;stroke-miterlimit:1.5;" version="1.1" xmlns="http://www.w3.org/2000/svg" xmlns:xlink="http://www.w3.org/1999/xlink"><style class="text-font-style fontImports" data-font-family="Roboto">@import url(https://fonts.googleapis.com/css2?family=Roboto:wght@400;700&amp;amp;display=block);</style><g id="items" style="isolation: isolate"><g id="blend" style="mix-blend-mode: normal"><g id="g-root-sy_-1_cu_v7zvgke7gdty-fill" data-item-order="-259194" transform="translate(14, 122)"><g id="sy_-1_cu_v7zvgke7gdty-fill-merged" stroke="none" fill="#969696"><g><path d="M106 34L130 10 H202L178 34 V106L154 130 V202L130 226 V298L106 322 V394L82.5 418 V490 H10 V418L34 394 V322L58 298 V226L82 202 V130L106 106 V34"></path></g></g></g><g id="g-root-sy_-1_cu_1_hx5u6ce7gc93-fill" data-item-order="-259190" transform="translate(362, 122)"><g id="sy_-1_cu_1_hx5u6ce7gc93-fill-merged" stroke="none" fill="#969696"><g><path d="M106 34L82 10 H10L34 34 V106L58 130 V202L82 226 V298L106 322 V394L130.5 418 V490 H202 V418L178 394 V322L154 298 V226L130 202 V130L106 106 V34"></path></g></g></g><g id="g-root-sy_1_cu_4lpbt0e7gdu0-fill" data-item-order="-259186" transform="translate(86.49984741210938, 506)"><g id="sy_1_cu_4lpbt0e7gdu0-fill-merged" stroke="none" fill="#4e88e7"><g><path d="M10 34L33.5 10 H381.5L406 34 V106 H10 V34"></path></g></g></g><g id="g-root-sy_2_cu_1qbzchwe7gc21-fill" data-item-order="-259182" transform="translate(110, 410)"><g id="sy_2_cu_1qbzchwe7gc21-fill-merged" stroke="none" fill="#3cc583"><g><path d="M10 34L34 10 H334L358 34 V106 H10 V34"></path></g></g></g><g id="g-root-sy_3_cu_1lw5udge7gcua-fill" data-item-order="-259178" transform="translate(134, 314)"><g id="sy_3_cu_1lw5udge7gcua-fill-merged" stroke="none" fill="#92bd39"><g><path d="M310 34L286 10 H34L10 34 V106 H310 V34"></path></g></g></g><g id="g-root-sy_4_cu_zposuce7gc23-fill" data-item-order="-259174" transform="translate(158.00009155273438, 218)"><g id="sy_4_cu_zposuce7gc23-fill-merged" stroke="none" fill="#e0cb15"><g><path d="M10 34L34 10 H238L262 34 V106 H10 V34"></path></g></g></g><g id="g-root-sy_5_cu_me8ah0e7gdn0-fill" data-item-order="-259170" transform="translate(182.00009155273438, 122)"><g id="sy_5_cu_me8ah0e7gdn0-fill-merged" stroke="none" fill="#de8431"><g><path d="M10 34L34 10 H190L214 34 V106 H10 V34"></path></g></g></g><g id="g-root-ic_typi_1qf3pxge7gd8j-fill" data-item-order="0" transform="translate(398, 158)"></g><g id="g-root-ic_48px_18f3284e7neof-fill" data-item-order="0" transform="translate(98, 254)"></g><g id="g-root-tx_futuro_mg3pqce7gcnd-fill" data-item-order="0" transform="translate(248, 266)"><g id="tx_futuro_mg3pqce7gcnd-fill-merged" stroke="none" fill="#ffffff"><g><text style="font: 20px Roboto, sans-serif; white-space: pre;" font-size="20px" font-family="Roboto, sans-serif"><tspan x="17.29" y="34" dominant-baseline="ideographic">Futuro</tspan></text></g></g></g><g id="g-root-ic_3_94n7d0e7kjyg-fill" data-item-order="0" transform="translate(422, 254)"></g><g id="g-root-tx_potencia_94n7d0e7ge8a-fill" data-item-order="0" transform="translate(206, 170)"><g id="tx_potencia_94n7d0e7ge8a-fill-merged" stroke="none" fill="#ffffff"><g><text style="font: 20px Roboto, sans-serif; white-space: pre;" font-size="20px" font-family="Roboto, sans-serif"><tspan x="17.21" y="34" dominant-baseline="ideographic">Potencialização</tspan></text></g></g></g><g id="g-root-ic_48px_8x5iboe7rlzi-fill" data-item-order="0" transform="translate(74, 350)"></g><g id="g-root-tx_temtico_zqxr0ke7ge88-fill" data-item-order="0" transform="translate(236, 362)"><g id="tx_temtico_zqxr0ke7ge88-fill-merged" stroke="none" fill="#ffffff"><g><text style="font: 20px Roboto, sans-serif; white-space: pre;" font-size="20px" font-family="Roboto, sans-serif"><tspan x="16.36" y="34" dominant-baseline="ideographic">Temático</tspan></text></g></g></g><g id="g-root-ic_patt_dgpuyse7ndhc-fill" data-item-order="0" transform="translate(446, 350)"></g><g id="g-root-ic_48px_1ur6dj8e7hslr-fill" data-item-order="0" transform="translate(122, 158)"></g><g id="g-root-ic_48px_1upxiise7ard7-fill" data-item-order="0" transform="translate(50, 446)"></g><g id="g-root-tx_somtico_1d2e9dwe7gcnb-fill" data-item-order="0" transform="translate(236, 458)"><g id="tx_somtico_1d2e9dwe7gcnb-fill-merged" stroke="none" fill="#ffffff"><g><text style="font: 20px Roboto, sans-serif; white-space: pre;" font-size="20px" font-family="Roboto, sans-serif"><tspan x="15.51" y="34" dominant-baseline="ideographic">Somático</tspan></text></g></g></g><g id="g-root-ic_brai_909vr8e7vtom-fill" data-item-order="0" transform="translate(470, 446)"></g><g id="g-root-ic_48px_13zw4cke7eya5-fill" data-item-order="0" transform="translate(26, 542)"></g><g id="g-root-ic_cale_1lzaayse7c5qc-fill" data-item-order="0" transform="translate(494, 542)"></g><g id="g-root-tx_etapasda_93e96se7gc25-fill" data-item-order="0" transform="translate(50, 38)"><g id="tx_etapasda_93e96se7gc25-fill-merged" stroke="none" fill="#484848"><g><text style="font: bold 25px Roboto, sans-serif; white-space: pre;" font-weight="bold" font-size="25px" font-family="Roboto, sans-serif"><tspan x="13.62" y="43" dominant-baseline="ideographic">Etapas da Jornada de Autoconhecimento</tspan></text></g></g></g><g id="g-root-tx_cronolgi_1qd8ao4e7ge86-fill" data-item-order="0" transform="translate(224, 554)"><g id="tx_cronolgi_1qd8ao4e7ge86-fill-merged" stroke="none" fill="#ffffff"><g><text style="font: 20px Roboto, sans-serif; white-space: pre;" font-size="20px" font-family="Roboto, sans-serif"><tspan x="16.15" y="34" dominant-baseline="ideographic">Cronológico</tspan></text></g></g></g><g id="g-root-sy_-1_cu_v7zvgke7gdty-stroke" data-item-order="-259194" transform="translate(14, 122)"><g id="sy_-1_cu_v7zvgke7gdty-stroke" fill="none" stroke-linecap="round" stroke-linejoin="round" stroke-miterlimit="4" stroke="#ffffff" stroke-width="2"><g><path d="M 10 490L 10 418L 82.5 418L 82.5 490L 10 490ZM 10 418L 34 394L 106 394L 82.5 418L 10 418ZM 34 394L 34 322L 106 322L 106 394L 34 394ZM 34 322L 58 298L 130 298L 106 322L 34 322ZM 58 298L 58 226L 130 226L 130 298L 58 298ZM 58 226L 82 202L 154 202L 130 226L 58 226ZM 82 202L 82 130L 154 130L 154 202L 82 202ZM 82 130L 106 106L 178 106L 154 130L 82 130ZM 106 106L 106 34L 178 34L 178 106L 106 106ZM 106 34L 130 10L 202 10L 178 34L 106 34Z"></path></g></g></g><g id="g-root-sy_-1_cu_1_hx5u6ce7gc93-stroke" data-item-order="-259190" transform="translate(362, 122)"><g id="sy_-1_cu_1_hx5u6ce7gc93-stroke" fill="none" stroke-linecap="round" stroke-linejoin="round" stroke-miterlimit="4" stroke="#ffffff" stroke-width="2"><g><path d="M 202 418L 202 490L 130.5 490L 130.5 418L 202 418ZM 202 418L 178 394L 106 394L 130.5 418L 202 418ZM 178 322L 178 394L 106 394L 106 322L 178 322ZM 178 322L 154 298L 82 298L 106 322L 178 322ZM 154 226L 154 298L 82 298L 82 226L 154 226ZM 154 226L 130 202L 58 202L 82 226L 154 226ZM 130 130L 130 202L 58 202L 58 130L 130 130ZM 130 130L 106 106L 34 106L 58 130L 130 130ZM 106 106L 106 34L 34 34L 34 106L 106 106ZM 106 34L 82 10L 10 10L 34 34L 106 34Z"></path></g></g></g><g id="g-root-sy_1_cu_4lpbt0e7gdu0-stroke" data-item-order="-259186" transform="translate(86.49984741210938, 506)"><g id="sy_1_cu_4lpbt0e7gdu0-stroke" fill="none" stroke-linecap="round" stroke-linejoin="round" stroke-miterlimit="4" stroke="#ffffff" stroke-width="2"><g><path d="M 10 34L 10 106L 406 106L 406 34L 10 34ZM 406 34L 381.5 10L 33.5 10L 10 34L 406 34Z"></path></g></g></g><g id="g-root-sy_2_cu_1qbzchwe7gc21-stroke" data-item-order="-259182" transform="translate(110, 410)"><g id="sy_2_cu_1qbzchwe7gc21-stroke" fill="none" stroke-linecap="round" stroke-linejoin="round" stroke-miterlimit="4" stroke="#ffffff" stroke-width="2"><g><path d="M 10 34L 10 106L 358 106L 358 34L 10 34ZM 358 34L 334 10L 34 10L 10 34L 358 34Z"></path></g></g></g><g id="g-root-sy_3_cu_1lw5udge7gcua-stroke" data-item-order="-259178" transform="translate(134, 314)"><g id="sy_3_cu_1lw5udge7gcua-stroke" fill="none" stroke-linecap="round" stroke-linejoin="round" stroke-miterlimit="4" stroke="#ffffff" stroke-width="2"><g><path d="M 10 106L 10 34L 310 34L 310 106L 10 106ZM 310 34L 286 10L 34 10L 10 34L 310 34Z"></path></g></g></g><g id="g-root-sy_4_cu_zposuce7gc23-stroke" data-item-order="-259174" transform="translate(158.00009155273438, 218)"><g id="sy_4_cu_zposuce7gc23-stroke" fill="none" stroke-linecap="round" stroke-linejoin="round" stroke-miterlimit="4" stroke="#ffffff" stroke-width="2"><g><path d="M 10 34L 10 106L 262 106L 262 34L 10 34ZM 262 34L 238 10L 34 10L 10 34L 262 34Z"></path></g></g></g><g id="g-root-sy_5_cu_me8ah0e7gdn0-stroke" data-item-order="-259170" transform="translate(182.00009155273438, 122)"><g id="sy_5_cu_me8ah0e7gdn0-stroke" fill="none" stroke-linecap="round" stroke-linejoin="round" stroke-miterlimit="4" stroke="#ffffff" stroke-width="2"><g><path d="M 10 34L 10 106L 214 106L 214 34L 10 34ZM 214 34L 190 10L 34 10L 10 34L 214 34Z"></path></g></g></g><g id="g-root-ic_typi_1qf3pxge7gd8j-stroke" data-item-order="0" transform="translate(398, 158)"><g id="ic_typi_1qf3pxge7gd8j-stroke" fill="none" stroke-linecap="round" stroke-linejoin="round" stroke-miterlimit="4" stroke="#ffffff" stroke-width="2"><g><path d="M 16 49C 16 50.656857 17.343145 52 19 52C 20.656855 52 22 50.656857 22 49C 22 47.343147 20.656855 46 19 46C 17.343145 46 16 47.343147 16 49M 42 11C 36.47427 11.032539 31.444578 14.194503 29.019999 19.16C 27.106348 17.755157 24.793953 16.998373 22.42 17C 15.98036 17.11598 10.85402 22.430359 10.97 28.870001C 11.085979 35.309639 16.40036 40.435982 22.84 40.32C 24.939022 43.447182 28.453699 45.328167 32.220001 45.34C 34.882191 45.34119 37.457115 44.390667 39.48 42.66C 40.525234 42.883965 41.591042 42.997917 42.66 43C 51.32 43 57 35.84 57 27C 57 18.16 50.66 11 42 11ZM 24 29.5C 24.276142 29.5 24.5 29.723858 24.5 30C 24.5 30.276142 24.276142 30.5 24 30.5C 23.723858 30.5 23.5 30.276142 23.5 30C 23.5 29.723858 23.723858 29.5 24 29.5M 34 29.5C 34.276142 29.5 34.5 29.723858 34.5 30C 34.5 30.276142 34.276142 30.5 34 30.5C 33.723858 30.5 33.5 30.276142 33.5 30C 33.5 29.723858 33.723858 29.5 34 29.5M 44 29.5C 44.276142 29.5 44.5 29.723858 44.5 30C 44.5 30.276142 44.276142 30.5 44 30.5C 43.723858 30.5 43.5 30.276142 43.5 30C 43.5 29.723858 43.723858 29.5 44 29.5M 11.5 56C 11.776142 56 12 56.223858 12 56.5C 12 56.776142 11.776142 57 11.5 57C 11.223858 57 11 56.776142 11 56.5C 11 56.223858 11.223858 56 11.5 56"></path></g></g></g><g id="g-root-ic_48px_18f3284e7neof-stroke" data-item-order="0" transform="translate(98, 254)"><g id="ic_48px_18f3284e7neof-stroke" fill="none" stroke-linecap="round" stroke-linejoin="round" stroke-miterlimit="4" stroke="#ffffff" stroke-width="2"><g><path d="M 15.07227 30.179C 15.07227 24.4822 17.78873 19.69573 23.0107 19.69573C 28.2328 19.69573 30.9492 24.4822 30.9492 30.179L 30.9492 37.2732C 30.9492 42.97 28.1054 47.8821 23.0107 47.8821C 17.91609 47.8821 15.07227 42.97 15.07227 37.2732L 15.07227 30.179ZM 49.9098 47.9788L 49.9098 19.55127L 36.2949 39.738L 55.3147 39.738"></path></g></g></g><g id="g-root-tx_futuro_mg3pqce7gcnd-stroke" data-item-order="0" transform="translate(248, 266)"></g><g id="g-root-ic_3_94n7d0e7kjyg-stroke" data-item-order="0" transform="translate(422, 254)"><g id="ic_3_94n7d0e7kjyg-stroke" fill="none" stroke-linecap="round" stroke-linejoin="round" stroke-miterlimit="4" stroke="#ffffff" stroke-width="2"><g><path d="M 12.562 36.23C 12.563679 26.40909 19.371765 17.900902 28.953245 15.745562C 38.534729 13.59022 48.330441 18.363407 52.537548 27.237556C 56.744652 36.11171 54.239456 46.716579 46.506001 52.77M 46.436001 44.77L 46.433998 52.77L 55.438 52.77M 23.434 36.23L 33.562 36.23L 39.354 43.467999"></path></g></g></g><g id="g-root-tx_potencia_94n7d0e7ge8a-stroke" data-item-order="0" transform="translate(206, 170)"></g><g id="g-root-ic_48px_8x5iboe7rlzi-stroke" data-item-order="0" transform="translate(74, 350)"><g id="ic_48px_8x5iboe7rlzi-stroke" fill="none" stroke-linecap="round" stroke-linejoin="round" stroke-miterlimit="4" stroke="#ffffff" stroke-width="2"><g><path d="M 15.07227 30.1785C 15.07227 24.4817 17.78873 19.69524 23.0107 19.69524C 28.2328 19.69524 30.9492 24.4817 30.9492 30.1785L 30.9492 37.2727C 30.9492 42.9695 28.1054 47.8816 23.0107 47.8816C 17.91609 47.8816 15.07227 42.9695 15.07227 37.2727L 15.07227 30.1785ZM 37.1212 27.0681C 37.0021 24.6592 38.4826 19.70994 45.0653 19.70994C 51.648 19.70994 52.6563 24.5974 52.4282 27.357C 52.1767 30.3999 50.2718 33.5079 42.2007 33.5079C 49.7136 33.5079 53.1255 35.562 53.1255 41.1245C 53.1255 45.9328 48.8755 47.8898 44.9922 47.8898C 42.2014 47.866 36.6196 46.2871 36.6196 40.1622"></path></g></g></g><g id="g-root-tx_temtico_zqxr0ke7ge88-stroke" data-item-order="0" transform="translate(236, 362)"></g><g id="g-root-ic_patt_dgpuyse7ndhc-stroke" data-item-order="0" transform="translate(446, 350)"><g id="ic_patt_dgpuyse7ndhc-stroke" fill="none" stroke-linecap="round" stroke-linejoin="round" stroke-miterlimit="4" stroke="#ffffff" stroke-width="2"><g><path d="M 10 10M 43.1572 25.414261L 53.849602 25.414261C 54.954201 25.414261 55.849602 26.309681 55.849602 27.414261L 55.849602 53.850601C 55.849602 54.9552 54.954201 55.850601 53.849602 55.850601L 27.41328 55.850601C 26.30872 55.850601 25.41328 54.9552 25.41328 53.850601L 25.41328 43.158199M 42.587799 40.585602C 42.587799 41.690201 41.692398 42.585602 40.587799 42.585602L 14.15156 42.585602C 13.047 42.585602 12.15156 41.690201 12.15156 40.585602L 12.15156 14.149361C 12.15156 13.0448 13.047 12.14936 14.15156 12.14936L 40.587799 12.14936C 41.692398 12.14936 42.587799 13.0448 42.587799 14.149361L 42.587799 40.585602ZM 22.247681 16.333C 21.784981 16.333 21.32226 16.79578 21.32226 17.25848C 21.32226 17.72118 21.784981 18.183819 22.247681 18.183819M 22.246941 16.333C 22.70966 16.333 23.172359 16.79578 23.172359 17.25848C 23.172359 17.72118 22.70966 18.183819 22.246941 18.183819M 22.247681 29.6936C 21.784981 29.6936 21.32226 30.156401 21.32226 30.618999C 21.32226 31.0818 21.784981 31.544399 22.247681 31.544399M 22.246941 29.6936C 22.70966 29.6936 23.172359 30.156401 23.172359 30.618999C 23.172359 31.0818 22.70966 31.544399 22.246941 31.544399M 16.84144 23.01318C 16.378719 23.01318 15.916019 23.475941 15.916019 23.93866C 15.916019 24.40136 16.378719 24.863979 16.84144 24.863979M 16.8407 23.01318C 17.3034 23.01318 17.766121 23.475941 17.766121 23.93866C 17.766121 24.40136 17.3034 24.863979 16.8407 24.863979M 16.84144 36.374199C 16.378719 36.374199 15.916019 36.836998 15.916019 37.299801C 15.916019 37.762398 16.378719 38.224998 16.84144 38.224998M 16.8407 36.374199C 17.3034 36.374199 17.766121 36.836998 17.766121 37.299801C 17.766121 37.762398 17.3034 38.224998 16.8407 38.224998M 27.36878 23.01318C 26.90608 23.01318 26.443359 23.475941 26.443359 23.93866C 26.443359 24.40136 26.90608 24.863979 27.36878 24.863979M 27.36754 23.01318C 27.830259 23.01318 28.292959 23.475941 28.292959 23.93866C 28.292959 24.40136 27.830259 24.863979 27.36754 24.863979M 27.36878 36.374199C 26.90608 36.374199 26.443359 36.836998 26.443359 37.299801C 26.443359 37.762398 26.90608 38.224998 27.36878 38.224998M 27.36754 36.374199C 27.830259 36.374199 28.292959 36.836998 28.292959 37.299801C 28.292959 37.762398 27.830259 38.224998 27.36754 38.224998M 32.493797 16.333C 32.030998 16.333 31.568399 16.79578 31.568399 17.25848C 31.568399 17.72118 32.030998 18.183819 32.493797 18.183819M 32.493 16.333C 32.955799 16.333 33.4184 16.79578 33.4184 17.25848C 33.4184 17.72118 32.955799 18.183819 32.493 18.183819M 32.493797 29.6936C 32.030998 29.6936 31.568399 30.156401 31.568399 30.618999C 31.568399 31.0818 32.030998 31.544399 32.493797 31.544399M 32.493 29.6936C 32.955799 29.6936 33.4184 30.156401 33.4184 30.618999C 33.4184 31.0818 32.955799 31.544399 32.493 31.544399M 37.903999 23.01318C 37.4412 23.01318 36.9786 23.475941 36.9786 23.93866C 36.9786 24.40136 37.4412 24.863979 37.903999 24.863979M 37.903198 23.01318C 38.365997 23.01318 38.828598 23.475941 38.828598 23.93866C 38.828598 24.40136 38.365997 24.863979 37.903198 24.863979M 37.903999 36.374199C 37.4412 36.374199 36.9786 36.836998 36.9786 37.299801C 36.9786 37.762398 37.4412 38.224998 37.903999 38.224998M 37.903198 36.374199C 38.365997 36.374199 38.828598 36.836998 38.828598 37.299801C 38.828598 37.762398 38.365997 38.224998 37.903198 38.224998"></path></g></g></g><g id="g-root-ic_48px_1ur6dj8e7hslr-stroke" data-item-order="0" transform="translate(122, 158)"><g id="ic_48px_1ur6dj8e7hslr-stroke" fill="none" stroke-linecap="round" stroke-linejoin="round" stroke-miterlimit="4" stroke="#ffffff" stroke-width="2"><g><path d="M 15.07227 30.179C 15.07227 24.4822 17.78873 19.69573 23.0107 19.69573C 28.2328 19.69573 30.9492 24.4822 30.9492 30.179L 30.9492 37.2732C 30.9492 42.97 28.1054 47.8821 23.0107 47.8821C 17.91609 47.8821 15.07227 42.97 15.07227 37.2732L 15.07227 30.179ZM 53.6933 20.1206L 40.3788 20.1206L 38.9878 33.1442C 39.8169 32.315 42.3531 30.6566 45.8651 30.6566C 49.9711 30.6566 53.8125 33.4467 53.427 40.0524C 53.0278 46.8938 48.912 47.9042 45.5285 47.9042C 41.9445 47.9042 38.405 45.3609 38.0728 40.565"></path></g></g></g><g id="g-root-ic_48px_1upxiise7ard7-stroke" data-item-order="0" transform="translate(50, 446)"><g id="ic_48px_1upxiise7ard7-stroke" fill="none" stroke-linecap="round" stroke-linejoin="round" stroke-miterlimit="4" stroke="#ffffff" stroke-width="2"><g><path d="M 15.07227 30.1785C 15.07227 24.4817 17.78873 19.69524 23.0107 19.69524C 28.2328 19.69524 30.9492 24.4817 30.9492 30.1785L 30.9492 37.2727C 30.9492 42.9695 28.1054 47.8816 23.0107 47.8816C 17.91609 47.8816 15.07227 42.9695 15.07227 37.2727L 15.07227 30.1785ZM 36.8315 27.5154C 36.8315 22.8951 40.0559 19.69531 44.4376 19.69531C 51.7066 19.69531 54.1859 26.7886 49.4213 33.0984L 37.33 47.4175L 53.9507 47.4175"></path></g></g></g><g id="g-root-tx_somtico_1d2e9dwe7gcnb-stroke" data-item-order="0" transform="translate(236, 458)"></g><g id="g-root-ic_brai_909vr8e7vtom-stroke" data-item-order="0" transform="translate(470, 446)"><g id="ic_brai_909vr8e7vtom-stroke" fill="none" stroke-linecap="round" stroke-linejoin="round" stroke-miterlimit="4" stroke="#ffffff" stroke-width="2"><g><path d="M 28.954 44.501999C 28.954 40.911827 26.044174 38.001106 22.453999 38C 22.348 38 22.254 38.026001 22.147999 38.031998M 28.278 18.776001C 30.214359 18.123098 31.34726 16.115656 30.905302 14.120552C 30.463345 12.125448 28.588652 10.78425 26.557711 11.010188C 24.526772 11.236126 22.992676 12.956544 23 15C 23.005461 15.361687 23.059958 15.720963 23.161999 16.068001C 22.939999 16.049999 22.726 16 22.5 16C 19.642511 15.985453 17.027512 17.603609 15.765446 20.167324C 14.50338 22.731041 14.815785 25.790298 16.57 28.046C 13.432562 28.253387 10.993763 30.858715 10.993763 34.002998C 10.993763 37.147285 13.432562 39.752609 16.57 39.959999C 14.81777 42.21534 14.506561 45.272991 15.768469 47.83511C 17.030376 50.397228 19.644012 52.01432 22.5 52C 22.726 52 22.939999 51.953999 23.161999 51.933998C 22.567677 54.036442 23.770287 56.226803 25.863207 56.853825C 27.956127 57.480846 30.16497 56.312527 30.824539 54.229633C 31.484108 52.14674 30.350359 49.919956 28.278 49.228001M 22.147999 29.972C 22.251999 29.972 22.348 30.002001 22.454 30.002001C 26.043394 30.000896 28.952896 27.091393 28.954 23.501999M 39.045998 44.501999C 39.045998 40.911827 41.955826 38.001106 45.546001 38C 45.652 38 45.745998 38.026001 45.852001 38.031998M 39.722 18.776001C 37.785641 18.123098 36.65274 16.115656 37.094696 14.120552C 37.536655 12.125448 39.411346 10.78425 41.442291 11.010188C 43.473228 11.236126 45.007324 12.956544 45 15C 44.994537 15.361687 44.940041 15.720963 44.838001 16.068001C 45.060001 16.048 45.273998 16 45.5 16C 48.35675 15.986053 50.970871 17.603924 52.232777 20.166893C 53.494682 22.729862 53.182991 25.788288 51.43 28.044001C 54.567436 28.251387 57.006237 30.856714 57.006237 34.000999C 57.006237 37.145287 54.567436 39.75061 51.43 39.958C 53.183453 42.213326 53.495373 45.271809 52.233307 47.834675C 50.971241 50.397545 48.356724 52.014923 45.5 52C 45.273998 52 45.060001 51.953999 44.838001 51.933998C 45.432323 54.036442 44.229713 56.226803 42.136795 56.853825C 40.043873 57.480846 37.83503 56.312527 37.175461 54.229633C 36.515892 52.14674 37.649643 49.919956 39.722 49.228001M 45.852001 29.972C 45.748001 29.972 45.652 30.002001 45.546001 30.002001C 41.956604 30.000896 39.047104 27.091393 39.045998 23.501999M 31 14.8C 32.856407 13.728203 35.143593 13.728203 37 14.8M 30.818001 54.200001C 32.804581 55.272121 35.197418 55.272121 37.183998 54.200001M 34 24.001999L 34 45.001999"></path></g></g></g><g id="g-root-ic_48px_13zw4cke7eya5-stroke" data-item-order="0" transform="translate(26, 542)"><g id="ic_48px_13zw4cke7eya5-stroke" fill="none" stroke-linecap="round" stroke-linejoin="round" stroke-miterlimit="4" stroke="#ffffff" stroke-width="2"><g><path d="M 37.8418 23.3774L 46.2969 20.1836L 46.2969 47.951M 15.07227 30.1785C 15.07227 24.4817 17.78873 19.69524 23.0107 19.69524C 28.2328 19.69524 30.9492 24.4817 30.9492 30.1785L 30.9492 37.2727C 30.9492 42.9695 28.1054 47.8816 23.0107 47.8816C 17.91609 47.8816 15.07227 42.9695 15.07227 37.2727L 15.07227 30.1785Z"></path></g></g></g><g id="g-root-ic_cale_1lzaayse7c5qc-stroke" data-item-order="0" transform="translate(494, 542)"><g id="ic_cale_1lzaayse7c5qc-stroke" fill="none" stroke-linecap="round" stroke-linejoin="round" stroke-miterlimit="4" stroke="#ffffff" stroke-width="2"><g><path d="M 22 11L 22 21M 34 11L 34 21M 46 11L 46 21M 50 15L 54 15C 55.104568 15 56 15.895431 56 17L 56 55C 56 56.104568 55.104568 57 54 57L 14 57C 12.895431 57 12 56.104568 12 55L 12 17C 12 15.895431 12.895431 15 14 15L 17.938 15M 18 25L 18 50C 18 50.552284 18.447716 51 19 51L 49 51C 49.552284 51 50 50.552284 50 50L 50 25M 25.938 15L 34 15M 38 15L 46 15"></path></g></g></g><g id="g-root-tx_etapasda_93e96se7gc25-stroke" data-item-order="0" transform="translate(50, 38)"></g><g id="g-root-tx_cronolgi_1qd8ao4e7ge86-stroke" data-item-order="0" transform="translate(224, 554)"></g></g></g><path id="w18ntpfoflfqww" d="M65.283 12.757a.35.35 0 0 0 .584.157l5.203-5.141-6.183 3.523.396 1.461zm-2.216-11.7a.35.35 0 0 0-.522.305v3.111l3.276-1.868-2.754-1.548zm3.728 2.105l-4.25 2.421v2.445l6.391-3.644-2.141-1.222zm4.708 3.303a.35.35 0 0 0 0-.609l-1.592-.9-7.365 4.199v1.782a.35.35 0 0 0 .523.305l8.435-4.777z M44.542 2.513c0-.433.355-.783.792-.783s.792.35.792.783-.355.783-.792.783-.792-.35-.792-.783zm59.171 0c0-.433.355-.783.792-.783s.792.35.792.783-.355.783-.792.783-.792-.35-.792-.783zm-85.951 7.636h-1.27v-.487c-.276.201-.864.609-1.881.609-1.202 0-2.274-.794-2.137-2.078.118-1.106 1.153-1.584 1.848-1.727l2.17-.345c0-.539-.29-.956-1.064-1.006s-1.21.305-1.571 1.017l-1.124-.605c1.218-2.631 5.029-1.764 5.029.414v4.207zm-1.27-2.86c.006.396-.062 1.112-.819 1.59-.587.37-1.841.299-1.903-.395-.049-.555.461-.791.906-.898l1.816-.297zm72.662 2.86h-1.27v-.487c-.276.201-.864.609-1.881.609-1.202 0-2.274-.794-2.137-2.078.118-1.106 1.153-1.584 1.848-1.727l2.17-.345c0-.539-.29-.956-1.064-1.006s-1.21.305-1.571 1.017l-1.124-.605c1.218-2.631 5.029-1.764 5.029.414v4.207zm-1.27-2.86c.006.396-.062 1.112-.82 1.59-.587.37-1.841.299-1.903-.395-.049-.555.461-.791.906-.898l1.816-.297zM99.096 10.149H97.85v-8.45h1.246v4.895l2.68-2.559h1.738l-2.633 2.535 2.715 3.578h-1.556l-2.077-2.707-.867.844v1.863zm6.053-6.114h-1.255v6.113h1.255V4.035zm-59.2 0h-1.255v6.113h1.255V4.035zm5.584 6.113V1.697h1.255v2.695c.361-.346 1-.485 1.47-.485 1.452 0 2.477 1.082 2.457 2.448v3.792h-1.27v-3.68c0-.408-.214-1.339-1.315-1.339-.968 0-1.342.756-1.342 1.339v3.681h-1.255zm-4.76-4.894V4.039h.621a.45.45 0 0 0 .45-.45v-.855h1.251v1.305h1.309v1.215h-1.309v3.109c0 .293.105.664.648.664.365 0 .531-.035.736-.07v1.137s-.361.113-.857.113c-1.398 0-1.777-1.051-1.777-1.788V5.254h-1.071zM36.528 4.039h-1.394l2.191 6.106h1.125l1.234-3.918 1.238 3.918h1.129l2.188-6.106h-1.383l-1.359 3.93-1.256-3.93h-1.124l-1.242 3.957-1.348-3.957zM26.212 7.141c-.02 1.566 1.187 3.129 3.223 3.129 1.566 0 2.383-.918 2.734-1.719L31.172 8c-.315.399-.801 1.094-1.738 1.094-1.145 0-1.825-.781-1.891-1.52h4.625c.074-.284.148-.995-.03-1.559-.336-1.064-1.221-2.102-2.839-2.102s-3.088 1.152-3.088 3.227zm1.363-.75h3.348c-.055-.43-.566-1.301-1.623-1.301a1.79 1.79 0 0 0-1.725 1.301zm-8.758.75c.038 1.758 1.277 3.133 3.145 3.133 1.074 0 1.723-.477 1.961-.672v.547h1.242V1.703h-1.258v2.888c-.414-.36-1.062-.68-1.93-.68-1.91 0-3.198 1.473-3.16 3.23zm1.309-.08c0 1.119.723 1.978 1.836 1.978a1.88 1.88 0 0 0 1.94-1.904c0-1.371-1.011-1.99-1.972-1.99s-1.805.798-1.805 1.916zm76.683-.028C96.771 5.275 95.532 3.9 93.664 3.9c-1.074 0-1.723.477-1.961.672v-.547h-1.242v8.22h1.258V9.583c.414.36 1.063.68 1.93.68 1.91 0 3.198-1.473 3.16-3.23zm-1.309.08c0-1.119-.723-1.978-1.836-1.978a1.88 1.88 0 0 0-1.94 1.904c0 1.371 1.011 1.99 1.972 1.99S95.5 8.231 95.5 7.113zM106.441 10.173V4.036h1.254v.382c.361-.346 1-.485 1.47-.485 1.452 0 2.477 1.082 2.457 2.448v3.792h-1.27V6.492c0-.408-.214-1.339-1.315-1.339-.969 0-1.342.756-1.342 1.339v3.681h-1.254zm-30.383-.021V1.824h1.084l4.215 5.777V1.824h1.32v8.328h-1.094l-4.207-5.796v5.796h-1.319zM5.24 10.149H4V2.377h1.014l2.664 3.597 2.654-3.592h1.03v7.766h-1.256V4.762L7.678 8.068 5.24 4.742v5.407z" transform="translate(455, 629)" fill="#00000" stroke="none"></path></svg>