<?xml version="1.0" encoding="utf-8" standalone="yes"?>
<!DOCTYPE svg PUBLIC "-//W3C//DTD SVG 1.1//EN" "http://www.w3.org/Graphics/SVG/1.1/DTD/svg11.dtd">
<svg width="876" height="1320" viewBox="0 0 876 1320" style="fill:none;stroke:none;fill-rule:evenodd;clip-rule:evenodd;stroke-linecap:round;stroke-linejoin:round;stroke-miterlimit:1.5;" version="1.1" xmlns="http://www.w3.org/2000/svg" xmlns:xlink="http://www.w3.org/1999/xlink"><style class="text-font-style fontImports" data-font-family="Shantell Sans">@import url(https://fonts.googleapis.com/css2?family=Shantell+Sans:wght@300..800&amp;amp;display=block);</style><g id="items" style="isolation: isolate"><g id="blend" style="mix-blend-mode: normal"><g id="g-root-cp_0_g-0_mcd4v8dxb4zt-fill" data-item-order="1998986540" transform="translate(116, 122)"><g id="cp_0_g-0_mcd4v8dxb4zt-fill-merged" stroke="none" fill="#ebebeb"><g><path d="M58 82L10 68.29 V22L58 10L106 22 V68.29L58 82"></path></g></g></g><g id="g-root-cp_0_g-0_1_mcd4v8dxb4zu-fill" data-item-order="1998986546" transform="translate(116, 347.9999694824219)"><g id="cp_0_g-0_1_mcd4v8dxb4zu-fill-merged" stroke="none" fill="#ebebeb"><g><path d="M58 72L10 58.29 V10L58 24L106 10 V58.29L58 72"></path></g></g></g><g id="g-root-cp_0_g-0_2_mcd4v8dxb4zv-fill" data-item-order="1998986553" transform="translate(368, 265.9999694824219)"></g><g id="g-root-cp_1_g-1_hwjmqsdxb5s4-fill" data-item-order="1998986556" transform="translate(80, 159.99996948242188)"><g id="cp_1_g-1_hwjmqsdxb5s4-fill-merged" stroke="none" fill="#dce9ff"><g><path d="M46 30.29 V10L10 20L46 30.29 M142 30.29 V10L178 20L142 30.29 M94 212L178 188.001 V20L142 30.29L94 44L46 30.29L10 20 V188L94 212"></path></g></g></g><g id="g-root-cp_0_g-0_3_hwjmqsdxb5s5-fill" data-item-order="1998986588" transform="translate(116, 540)"><g id="cp_0_g-0_3_hwjmqsdxb5s5-fill-merged" stroke="none" fill="#ebebeb"><g><path d="M58 72L10 58.29 V10L58 24L106 10 V58.29L58 72"></path></g></g></g><g id="g-root-cp_0_g-0_4_90wmhwdxb6ku-fill" data-item-order="1998986595" transform="translate(368, 469.9999694824219)"></g><g id="g-root-cp_2_g-2_90wmhwdxb6kv-fill" data-item-order="1998986598" transform="translate(80, 375.9999694824219)"><g id="cp_2_g-2_90wmhwdxb6kv-fill-merged" stroke="none" fill="#d1f4ff"><g><path d="M46 30.29 V10L10 20L46 30.29 M142 30.29 V10L178 20L142 30.29 M94 188L178 164.001 V20L142 30.29L94 44L46 30.29L10 20 V164L94 188"></path></g></g></g><g id="g-root-cp_0_g-0_5_4l34dgdxb7d4-fill" data-item-order="1998986630" transform="translate(116, 732)"><g id="cp_0_g-0_5_4l34dgdxb7d4-fill-merged" stroke="none" fill="#ebebeb"><g><path d="M58 72L10 58.29 V10L58 24L106 10 V58.29L58 72"></path></g></g></g><g id="g-root-cp_0_g-0_6_1lvjmxwdxb6dd-fill" data-item-order="1998986637" transform="translate(368, 662)"></g><g id="g-root-cp_3_g-3_1lvjmxwdxb6de-fill" data-item-order="1998986640" transform="translate(80, 568)"><g id="cp_3_g-3_1lvjmxwdxb6de-fill-merged" stroke="none" fill="#c8ffe5"><g><path d="M46 30.29 V10L10 20L46 30.29 M142 30.29 V10L178 20L142 30.29 M94 188L178 164.001 V20L142 30.29L94 44L46 30.29L10 20 V164L94 188"></path></g></g></g><g id="g-root-cp_0_g-0_7_1czwmp0dxb763-fill" data-item-order="1998986672" transform="translate(116, 960)"><g id="cp_0_g-0_7_1czwmp0dxb763-fill-merged" stroke="none" fill="#ebebeb"><g><path d="M58 72L10 58.29 V10L58 24L106 10 V58.29L58 72"></path></g></g></g><g id="g-root-cp_0_g-0_8_1czwmp0dxb764-fill" data-item-order="1998986679" transform="translate(368, 872)"></g><g id="g-root-cp_4_g-4_18kplnodxb4sl-fill" data-item-order="1998986682" transform="translate(80, 760)"><g id="cp_4_g-4_18kplnodxb4sl-fill-merged" stroke="none" fill="#e9ffb9"><g><path d="M46 30.29 V10L10 20L46 30.29 M142 30.29 V10L178 20L142 30.29 M94 224L178 200.001 V20L142 30.29L94 44L46 30.29L10 20 V200L94 224"></path></g></g></g><g id="g-root-cp_0_g-0_9_18kplnodxb4sm-fill" data-item-order="1998986714" transform="translate(116, 1200)"><g id="cp_0_g-0_9_18kplnodxb4sm-fill-merged" stroke="none" fill="#ebebeb"><g><path d="M58 72L10 58.29 V10L58 24L106 10 V58.29L58 72"></path></g></g></g><g id="g-root-cp_0_g-0_10_zp2lesdxb5lb-fill" data-item-order="1998986721" transform="translate(368, 1106)"></g><g id="g-root-cp_5_g-5_144w3j8dxb5kw-fill" data-item-order="1998986724" transform="translate(80, 988)"><g id="cp_5_g-5_144w3j8dxb5kw-fill-merged" stroke="none" fill="#fff8b6"><g><path d="M46 30.29 V10L10 20L46 30.29 M142 30.29 V10L178 20L142 30.29 M94 236L178 212.001 V20L142 30.29L94 44L46 30.29L10 20 V212L94 236"></path></g></g></g><g id="g-root-ic_butt_1q5qvacdxtgr3-fill" data-item-order="1999997696" transform="translate(284, 1082)"><g id="ic_butt_1q5qvacdxtgr3-fill-merged" stroke="none" fill="#e0cb15"><g><path d="M31.62 50.58C28.848 49.578 27.001 46.947 27 44 V23.34C27.001 22.974 26.801 22.636 26.48 22.46L25.2 21.74C22.032 19.972 18.165 20.016 15.039 21.855C11.912 23.694 9.995 27.053 10 30.68C10 37.1 14.46 39.26 20.18 42.14C20.349 42.212 20.459 42.377 20.46 42.56C20.468 42.75 20.367 42.929 20.2 43.02C17.721 44.422 16.192 47.052 16.2 49.9C16.095 52.026 16.873 54.102 18.35 55.635C19.827 57.169 21.871 58.025 24 58C26.361 58.006 28.614 57.01 30.2 55.26C31.093 54.276 31.774 53.119 32.2 51.86C32.39 51.347 32.131 50.776 31.62 50.58 M19.5 33.5C17.567 33.5 16 31.933 16 30C16 28.067 17.567 26.5 19.5 26.5C21.433 26.5 23 28.067 23 30C23 31.933 21.433 33.5 19.5 33.5 M47.82 42.14C53.54 39.26 58 37.08 58 30.68C58.005 27.053 56.088 23.694 52.961 21.855C49.835 20.016 45.968 19.972 42.8 21.74L41.52 22.46C41.199 22.636 40.999 22.974 41 23.34 V44C40.999 46.947 39.152 49.578 36.38 50.58C35.861 50.768 35.592 51.341 35.78 51.86C36.206 53.119 36.887 54.276 37.78 55.26C39.37 57.015 41.632 58.011 44 58C46.121 58.04 48.165 57.205 49.652 55.692C51.139 54.179 51.937 52.12 51.86 50C51.868 47.152 50.339 44.522 47.86 43.12C47.693 43.029 47.592 42.85 47.6 42.66C47.546 42.457 47.636 42.243 47.82 42.14 M45 30C45 28.067 46.567 26.5 48.5 26.5C50.433 26.5 52 28.067 52 30C52 31.933 50.433 33.5 48.5 33.5C46.567 33.5 45 31.933 45 30 M22.62 13.46L29.8 20.22C30.055 20.461 30.161 20.819 30.08 21.16C30.034 21.438 30.007 21.718 30 22 V25.5C30 26.052 30.448 26.5 31 26.5 H37C37.552 26.5 38 26.052 38 25.5 V22C38.022 21.72 38.022 21.44 38 21.16C37.919 20.819 38.025 20.461 38.28 20.22L45.46 13.46C46.267 12.676 46.285 11.386 45.5 10.58C44.716 9.773 43.426 9.756 42.62 10.54L35.02 17.74C34.811 17.923 34.538 18.016 34.26 18 H33.74C33.462 18.019 33.188 17.925 32.98 17.74L25.38 10.54C24.574 9.778 23.302 9.814 22.54 10.62C21.778 11.427 21.814 12.698 22.62 13.46 M31 29.5 H37C37 29.5 38 29.5 38 30.5 V35.5C38 35.5 38 36.5 37 36.5 H31C31 36.5 30 36.5 30 35.5 V30.5C30 30.5 30 29.5 31 29.5 M38 44 V40.5C38 39.948 37.552 39.5 37 39.5 H31C30.448 39.5 30 39.948 30 40.5 V44C30 46.209 31.791 48 34 48C36.209 48 38 46.209 38 44"></path></g></g></g><g id="g-root-ic_1_4myjmsdxb6do-fill" data-item-order="1999997696" transform="translate(284, 241.99996948242188)"><g id="ic_1_4myjmsdxb6do-fill-merged" stroke="none" fill="#4e88e7"><g><path d="M31.36 21.7C26.885 23.276 23.415 26.871 22 31.4C21.807 31.903 21.826 32.463 22.052 32.953C22.278 33.442 22.692 33.82 23.2 34C23.392 34.072 23.595 34.106 23.8 34.1C24.707 34.142 25.529 33.567 25.8 32.7C26.846 29.367 29.415 26.731 32.72 25.6C33.769 25.246 34.333 24.109 33.98 23.06C33.626 22.011 32.489 21.447 31.44 21.8L31.36 21.7 M13.32 45 H17.86C18.225 44.997 18.561 44.798 18.74 44.48C18.919 44.171 18.919 43.789 18.74 43.48C14.681 36.992 15.169 28.646 19.956 22.675C24.743 16.704 32.782 14.412 39.998 16.963C47.214 19.513 52.028 26.347 52 34C52.001 37.353 51.058 40.638 49.28 43.48C49.101 43.789 49.101 44.171 49.28 44.48C49.459 44.798 49.795 44.997 50.16 45 H54.7C55.084 45.006 55.436 44.787 55.6 44.44C57.184 41.188 58.004 37.617 58 34C58 20.745 47.255 10 34 10C20.745 10 10 20.745 10 34C10.002 37.619 10.829 41.189 12.42 44.44C12.584 44.787 12.936 45.006 13.32 45 M56 48 H43.42C42.888 47.997 42.377 48.206 42 48.58L38.88 51.7C38.699 51.894 38.445 52.003 38.18 52 H29.82C29.555 52.003 29.301 51.894 29.12 51.7L26 48.58C25.623 48.206 25.112 47.997 24.58 48 H12C10.895 48 10 48.895 10 50 V51C10 55.44 13.28 58 19 58 H49C54.72 58 58 55.44 58 51 V50C58 48.895 57.105 48 56 48"></path></g></g></g><g id="g-root-ic_user_1lvjmxwdxqlfs-fill" data-item-order="1999997696" transform="translate(284, 848)"><g id="ic_user_1lvjmxwdxqlfs-fill-merged" stroke="none" fill="#92bd39"><g><path d="M41.5 23C41.5 25.761 39.261 28 36.5 28 H36C35.892 27.952 35.768 27.952 35.66 28C35.562 28.077 35.503 28.195 35.5 28.32 V35C35.5 35.552 35.948 36 36.5 36C37.225 35.999 37.948 35.932 38.66 35.8C39.142 35.722 39.497 35.308 39.5 34.82 V32.82C39.506 32.611 39.641 32.427 39.84 32.36L40.8 32C40.99 31.919 41.21 31.958 41.36 32.1L42.74 33.48C43.108 33.797 43.652 33.797 44.02 33.48C45.212 32.648 46.248 31.612 47.08 30.42C47.37 30.028 47.327 29.482 46.98 29.14L45.6 27.76C45.458 27.61 45.419 27.39 45.5 27.2C45.681 26.922 45.848 26.635 46 26.34C46.055 26.166 46.201 26.035 46.38 26 H48.38C48.868 25.997 49.282 25.642 49.36 25.16C49.627 23.732 49.627 22.268 49.36 20.84C49.279 20.335 48.83 19.973 48.32 20 H46.32C46.164 19.946 46.044 19.819 46 19.66C45.877 19.333 45.737 19.012 45.58 18.7C45.499 18.51 45.538 18.29 45.68 18.14L47.06 16.76C47.407 16.418 47.45 15.872 47.16 15.48C46.298 14.279 45.228 13.243 44 12.42C43.608 12.13 43.062 12.173 42.72 12.52L41.36 14C41.193 14.12 40.967 14.12 40.8 14L39.84 13.6C39.641 13.533 39.506 13.349 39.5 13.14 V11.14C39.478 10.667 39.127 10.275 38.66 10.2C37.948 10.068 37.225 10.001 36.5 10C35.948 10 35.5 10.448 35.5 11 V17.54C35.501 17.687 35.567 17.826 35.68 17.92C35.777 17.975 35.888 18.003 36 18 H36.44C37.776 17.984 39.064 18.504 40.014 19.443C40.965 20.383 41.5 21.663 41.5 23 M31.5 10C24.32 10 18.5 15.82 18.5 23C18.5 30.18 24.32 36 31.5 36C32.052 36 32.5 35.552 32.5 35 V11C32.5 10.448 32.052 10 31.5 10 M31.5 37C20.454 37 11.5 45.954 11.5 57C11.5 57.552 11.948 58 12.5 58 H31.5C32.052 58 32.5 57.552 32.5 57 V38C32.5 37.448 32.052 37 31.5 37 M56.22 53.84C56.142 53.358 55.728 53.003 55.24 53 H52.38C52.158 53 51.962 52.853 51.9 52.64C51.716 52.008 51.495 51.387 51.24 50.78C51.163 50.596 51.202 50.384 51.34 50.24L53.54 48.04C53.86 47.715 53.926 47.217 53.7 46.82C52.262 44.372 50.319 42.259 48 40.62C47.601 40.344 47.061 40.395 46.72 40.74L44.72 42.74C44.569 42.896 44.335 42.936 44.14 42.84C43.428 42.468 42.693 42.141 41.94 41.86C41.741 41.793 41.606 41.609 41.6 41.4 V38.42C41.6 37.956 41.275 37.555 40.82 37.46C39.427 37.159 38.006 37.005 36.58 37C36.036 37.011 35.6 37.455 35.6 38 V47.6C35.632 47.806 35.794 47.968 36 48C41.011 48.507 44.973 52.469 45.48 57.48C45.468 57.621 45.518 57.761 45.619 57.861C45.719 57.962 45.859 58.012 46 58 H55.6C56.141 58.011 56.589 57.581 56.6 57.04C56.565 55.964 56.438 54.894 56.22 53.84"></path></g></g></g><g id="g-root-ic_mark_v7do10dxl0xs-fill" data-item-order="1999997696" transform="translate(284, 445.9999694824219)"><g id="ic_mark_v7do10dxl0xs-fill-merged" stroke="none" fill="#1eabda"><g><path d="M19 29C19 30.381 20.119 31.5 21.5 31.5C22.881 31.5 24 30.381 24 29C24 27.619 22.881 26.5 21.5 26.5C20.119 26.5 19 27.619 19 29 M29 29C29 30.381 30.119 31.5 31.5 31.5C32.881 31.5 34 30.381 34 29C34 27.619 32.881 26.5 31.5 26.5C30.119 26.5 29 27.619 29 29 M36.74 43.64C36.59 43.252 36.216 42.997 35.8 43 H15C14.448 43 14 42.552 14 42 V25C14 24.448 14.448 24 15 24 H42C42.552 24 43 24.448 43 25 V34.88C43.004 35.261 43.22 35.608 43.56 35.78L45.56 36.78C45.857 36.951 46.223 36.951 46.52 36.78C46.817 36.595 46.998 36.27 47 35.92 V16C47 14.895 46.105 14 45 14 H40C39.724 14 39.5 13.776 39.5 13.5 V11.5C39.5 10.672 38.828 10 38 10C37.172 10 36.5 10.672 36.5 11.5 V19C36.5 19.828 35.828 20.5 35 20.5C34.172 20.5 33.5 19.828 33.5 19 V15C33.5 14.448 33.052 14 32.5 14 H24C23.724 14 23.5 13.776 23.5 13.5 V11.5C23.5 10.672 22.828 10 22 10C21.172 10 20.5 10.672 20.5 11.5 V19C20.5 19.828 19.828 20.5 19 20.5C18.172 20.5 17.5 19.828 17.5 19 V15C17.5 14.448 17.052 14 16.5 14 H12C10.895 14 10 14.895 10 16 V43C10 45.209 11.791 47 14 47 H36.56C36.89 47.001 37.198 46.835 37.38 46.56C37.559 46.288 37.603 45.949 37.5 45.64L36.74 43.64 M43.58 39.52L38.36 36.78C38.009 36.678 37.631 36.775 37.373 37.033C37.115 37.291 37.018 37.669 37.12 38.02L39.52 43.58C39.617 43.918 39.885 44.181 40.225 44.271C40.565 44.361 40.928 44.266 41.18 44.02L44 41.18C44.246 40.931 44.344 40.571 44.259 40.231C44.173 39.892 43.915 39.622 43.58 39.52 M42.016 46.268L46.258 42.026C46.258 42.026 46.966 41.318 47.672 42.026L57.7 52.052C57.7 52.052 58.406 52.76 57.7 53.466L53.456 57.708C53.456 57.708 52.75 58.416 52.042 57.708L42.016 47.682C42.016 47.682 41.308 46.976 42.016 46.268"></path></g></g></g><g id="g-root-ic_4_zqbjl0dxp7uy-fill" data-item-order="1999997696" transform="translate(284, 638)"><g id="ic_4_zqbjl0dxp7uy-fill-merged" stroke="none" fill="#3cc583"><g><path d="M31.986 19.872C31.988 17.396 30.353 15.217 27.975 14.527C25.597 13.837 23.05 14.803 21.727 16.896C20.403 18.988 20.623 21.704 22.266 23.556C22.353 23.634 22.434 23.72 22.506 23.812C24.098 25.396 26.487 25.867 28.561 25.005C30.636 24.143 31.988 22.118 31.988 19.872 M21.026 27.76C25.061 30.523 30.531 29.796 33.704 26.074C36.876 22.352 36.728 16.836 33.36 13.289C29.992 9.743 24.491 9.31 20.61 12.286C16.729 15.262 15.72 20.688 18.272 24.86L14.98 28.074C14.208 28.849 14.202 30.101 14.967 30.884C15.732 31.666 16.983 31.689 17.776 30.934L21.026 27.76 M21.486 31.422C19.313 37.052 20.694 43.436 25 47.664 V56.688C25 57.24 25.448 57.688 26 57.688 H41.84C42.392 57.688 42.84 57.24 42.84 56.688 V53.16 H44.1C47.152 53.16 49.626 50.686 49.626 47.634 V44.11 H51.494C52.197 44.11 52.854 43.763 53.252 43.183C53.649 42.604 53.735 41.866 53.482 41.21C53.162 40.378 52.848 39.546 52.538 38.722C51.548 36.088 50.586 33.528 49.478 31.268C49.419 31.15 49.338 31.044 49.238 30.958C48.913 30.431 48.474 29.982 47.954 29.646C47.13 29.09 46.036 28.646 44.822 28.3C42.632 27.674 39.768 27.278 36.628 27.2C35.79 28.364 34.76 29.376 33.582 30.194C34.194 30.184 34.786 30.186 35.35 30.186C38.088 30.186 39.424 30.37 40.95 30.58C41.254 30.62 41.568 30.666 41.902 30.708C43.366 30.968 45.022 31.288 46.272 32.132C46.366 32.194 46.436 32.248 46.488 32.292C46.42 32.351 46.348 32.405 46.272 32.454C45.818 32.76 45.064 33.096 43.996 33.402C41.882 34.006 38.872 34.402 35.486 34.402C32.102 34.402 29.092 34.006 26.978 33.402C25.91 33.096 25.154 32.762 24.7 32.454C24.626 32.405 24.554 32.351 24.486 32.294C23.465 32.123 22.453 31.834 21.49 31.422"></path></g></g></g><g id="g-root-tx_comearop_18lyjtwdxp729-fill" data-item-order="2000000000" transform="translate(572, 650)"><g id="tx_comearop_18lyjtwdxp729-fill-merged" stroke="none" fill="#484848"><g><text style="font: 15px &quot;Shantell Sans&quot;, cursive; white-space: pre;" font-size="15px" font-family="'Shantell Sans', cursive"><tspan x="12" y="31.8" dominant-baseline="ideographic">Começar o processo </tspan><tspan x="12" y="49.8" dominant-baseline="ideographic">de terapia com um </tspan><tspan x="12" y="67.8" dominant-baseline="ideographic">terapeuta.</tspan></text></g></g></g><g id="g-root-tx_3_1cuwu04dxqm15-fill" data-item-order="2000000000" transform="translate(194, 644)"><g id="tx_3_1cuwu04dxqm15-fill-merged" stroke="none" fill="#484848"><g><text style="font: 25px &quot;Shantell Sans&quot;, cursive; white-space: pre;" font-size="25px" font-family="'Shantell Sans', cursive"><tspan x="13.25" y="44.6" dominant-baseline="ideographic">3</tspan></text></g></g></g><g id="g-root-tx_iniciart_1d1s1ycdxp6a0-fill" data-item-order="2000000000" transform="translate(572, 614)"><g id="tx_iniciart_1d1s1ycdxp6a0-fill-merged" stroke="none" fill="#3cc583"><g><text style="font: bold 20px &quot;Shantell Sans&quot;, cursive; white-space: pre;" font-weight="bold" font-size="20px" font-family="'Shantell Sans', cursive"><tspan x="12" y="35.2" dominant-baseline="ideographic">Iniciar Terapia</tspan></text></g></g></g><g id="g-root-tx_reproces_40o2sdxql1i-fill" data-item-order="2000000000" transform="translate(572, 806)"><g id="tx_reproces_40o2sdxql1i-fill-merged" stroke="none" fill="#92bd39"><g><text style="font: bold 20px &quot;Shantell Sans&quot;, cursive; white-space: pre;" font-weight="bold" font-size="20px" font-family="'Shantell Sans', cursive"><tspan x="12" y="35.2" dominant-baseline="ideographic">Reprocessar </tspan><tspan x="12" y="59.2" dominant-baseline="ideographic">Experiências</tspan></text></g></g></g><g id="g-root-tx_4_1480gysdxs001-fill" data-item-order="2000000000" transform="translate(194, 854)"><g id="tx_4_1480gysdxs001-fill-merged" stroke="none" fill="#484848"><g><text style="font: 25px &quot;Shantell Sans&quot;, cursive; white-space: pre;" font-size="25px" font-family="'Shantell Sans', cursive"><tspan x="13.25" y="44.6" dominant-baseline="ideographic">4</tspan></text></g></g></g><g id="g-root-tx_agendaru_zn765gdxl05j-fill" data-item-order="2000000000" transform="translate(572, 457.9999694824219)"><g id="tx_agendaru_zn765gdxl05j-fill-merged" stroke="none" fill="#484848"><g><text style="font: 15px &quot;Shantell Sans&quot;, cursive; white-space: pre;" font-size="15px" font-family="'Shantell Sans', cursive"><tspan x="12" y="31.8" dominant-baseline="ideographic">Agendar uma sessão </tspan><tspan x="12" y="49.8" dominant-baseline="ideographic">de terapia para iniciar </tspan><tspan x="12" y="67.8" dominant-baseline="ideographic">a jornada.</tspan></text></g></g></g><g id="g-root-tx_2_4myjmsdxp6h0-fill" data-item-order="2000000000" transform="translate(194, 451.9999694824219)"><g id="tx_2_4myjmsdxp6h0-fill-merged" stroke="none" fill="#484848"><g><text style="font: 25px &quot;Shantell Sans&quot;, cursive; white-space: pre;" font-size="25px" font-family="'Shantell Sans', cursive"><tspan x="13.25" y="44.6" dominant-baseline="ideographic">2</tspan></text></g></g></g><g id="g-root-tx_trabalha_v7do10dxqmfd-fill" data-item-order="2000000000" transform="translate(572, 866)"><g id="tx_trabalha_v7do10dxqmfd-fill-merged" stroke="none" fill="#484848"><g><text style="font: 15px &quot;Shantell Sans&quot;, cursive; white-space: pre;" font-size="15px" font-family="'Shantell Sans', cursive"><tspan x="12" y="28.8" dominant-baseline="ideographic">Trabalhar através </tspan><tspan x="12" y="46.8" dominant-baseline="ideographic">de experiências </tspan><tspan x="12" y="64.8" dominant-baseline="ideographic">passadas para </tspan><tspan x="12" y="82.8" dominant-baseline="ideographic">promover a cura.</tspan></text></g></g></g><g id="g-root-tx_identifi_diljvodxb5kz-fill" data-item-order="2000000000" transform="translate(572, 265.9999694824219)"><g id="tx_identifi_diljvodxb5kz-fill-merged" stroke="none" fill="#484848"><g><text style="font: 15px &quot;Shantell Sans&quot;, cursive; white-space: pre;" font-size="15px" font-family="'Shantell Sans', cursive"><tspan x="12" y="31.8" dominant-baseline="ideographic">Identificar a </tspan><tspan x="12" y="49.8" dominant-baseline="ideographic">necessidade de </tspan><tspan x="12" y="67.8" dominant-baseline="ideographic">mudança pessoal.</tspan></text></g></g></g><g id="g-root-tx_1_1q9hpt0dxl05e-fill" data-item-order="2000000000" transform="translate(194, 247.99996948242188)"><g id="tx_1_1q9hpt0dxl05e-fill-merged" stroke="none" fill="#484848"><g><text style="font: 25px &quot;Shantell Sans&quot;, cursive; white-space: pre;" font-size="25px" font-family="'Shantell Sans', cursive"><tspan x="16.79" y="44.6" dominant-baseline="ideographic">1</tspan></text></g></g></g><g id="g-root-tx_alcanart_4g3bokdxtfd9-fill" data-item-order="2000000000" transform="translate(572, 1034)"><g id="tx_alcanart_4g3bokdxtfd9-fill-merged" stroke="none" fill="#e0cb15"><g><text style="font: bold 20px &quot;Shantell Sans&quot;, cursive; white-space: pre;" font-weight="bold" font-size="20px" font-family="'Shantell Sans', cursive"><tspan x="12" y="35.2" dominant-baseline="ideographic">Alcançar </tspan><tspan x="12" y="59.2" dominant-baseline="ideographic">Transformação</tspan></text></g></g></g><g id="g-root-tx_5_1qcm38kdxuu4v-fill" data-item-order="2000000000" transform="translate(194, 1088)"><g id="tx_5_1qcm38kdxuu4v-fill-merged" stroke="none" fill="#484848"><g><text style="font: 25px &quot;Shantell Sans&quot;, cursive; white-space: pre;" font-size="25px" font-family="'Shantell Sans', cursive"><tspan x="14.34" y="44.6" dominant-baseline="ideographic">5</tspan></text></g></g></g><g id="g-root-tx_reconhec_hyf204dxb4sq-fill" data-item-order="2000000000" transform="translate(572, 206)"><g id="tx_reconhec_hyf204dxb4sq-fill-merged" stroke="none" fill="#4e88e7"><g><text style="font: bold 20px &quot;Shantell Sans&quot;, cursive; white-space: pre;" font-weight="bold" font-size="20px" font-family="'Shantell Sans', cursive"><tspan x="12" y="35.2" dominant-baseline="ideographic">Reconhecer a </tspan><tspan x="12" y="59.2" dominant-baseline="ideographic">Necessidade</tspan></text></g></g></g><g id="g-root-tx_jornadad_qtfl5wdxb75t-fill" data-item-order="2000000000" transform="translate(260, 38)"><g id="tx_jornadad_qtfl5wdxb75t-fill-merged" stroke="none" fill="#484848"><g><text style="font: bold 25px &quot;Shantell Sans&quot;, cursive; white-space: pre;" font-weight="bold" font-size="25px" font-family="'Shantell Sans', cursive"><tspan x="16.43" y="44.6" dominant-baseline="ideographic">Jornada de Transformação</tspan></text></g></g></g><g id="g-root-tx_experime_9tk4dxtg5i-fill" data-item-order="2000000000" transform="translate(572, 1094)"><g id="tx_experime_9tk4dxtg5i-fill-merged" stroke="none" fill="#484848"><g><text style="font: 15px &quot;Shantell Sans&quot;, cursive; white-space: pre;" font-size="15px" font-family="'Shantell Sans', cursive"><tspan x="12" y="43.8" dominant-baseline="ideographic">Experimentar </tspan><tspan x="12" y="61.8" dominant-baseline="ideographic">crescimento pessoal e </tspan><tspan x="12" y="79.8" dominant-baseline="ideographic">mudança duradoura.</tspan></text></g></g></g><g id="g-root-tx_agendars_1430o9wdxkzda-fill" data-item-order="2000000000" transform="translate(572, 421.9999694824219)"><g id="tx_agendars_1430o9wdxkzda-fill-merged" stroke="none" fill="#1eabda"><g><text style="font: bold 20px &quot;Shantell Sans&quot;, cursive; white-space: pre;" font-weight="bold" font-size="20px" font-family="'Shantell Sans', cursive"><tspan x="12" y="35.2" dominant-baseline="ideographic">Agendar Sessão</tspan></text></g></g></g><g id="g-root-cp_0_g-0_mcd4v8dxb4zt-stroke" data-item-order="1998986540" transform="translate(116, 122)"><g id="cp_0_g-0_mcd4v8dxb4zt-stroke" fill="none" stroke-linecap="round" stroke-linejoin="round" stroke-miterlimit="4" stroke="#ffffff" stroke-width="2"><g><path d="M 58 82L 10 68.29L 10 22M 58 82L 58 36M 58 82L 106.0001 68.29L 106.0001 22M 10 22L 58 36M 10 22L 58 10L 106.0001 22M 58 36L 106.0001 22"></path></g></g></g><g id="g-root-cp_0_g-0_1_mcd4v8dxb4zu-stroke" data-item-order="1998986546" transform="translate(116, 347.9999694824219)"><g id="cp_0_g-0_1_mcd4v8dxb4zu-stroke" fill="none" stroke-linecap="round" stroke-linejoin="round" stroke-miterlimit="4" stroke="#ffffff" stroke-width="2"><g><path d="M 58 72L 10 58.29L 10 10L 58 24M 58 72L 58 24M 58 72L 106.0001 58.29L 106.0001 10L 58 24"></path></g></g></g><g id="g-root-cp_0_g-0_2_mcd4v8dxb4zv-stroke" data-item-order="1998986553" transform="translate(368, 265.9999694824219)"><g id="cp_0_g-0_2_mcd4v8dxb4zv-stroke" fill="none" stroke-linecap="round" stroke-linejoin="round" stroke-miterlimit="4" stroke="#484848" stroke-width="2" stroke-dasharray="0.1, 6.0"><g><path d="M 10 10L 178 10"></path></g></g></g><g id="g-root-cp_1_g-1_hwjmqsdxb5s4-stroke" data-item-order="1998986556" transform="translate(80, 159.99996948242188)"><g id="cp_1_g-1_hwjmqsdxb5s4-stroke" fill="none" stroke-linecap="round" stroke-linejoin="round" stroke-miterlimit="4" stroke="#ffffff" stroke-width="2"><g><path d="M 46 30.29L 46 10L 10 20L 46 30.29ZM 142 30.2904L 142 10L 178 20.0004L 142 30.2904ZM 46 30.29L 94 44M 10 20L 10 56M 142 30.2904L 94 44M 178 20.0004L 178 56M 94 44L 94 56M 10 56L 10 176M 94 56L 94 176M 178 56L 178 176M 94 212L 94 176M 94 212L 10 188L 10 176M 94 212L 178 188.001L 178 176.001"></path></g></g></g><g id="g-root-cp_0_g-0_3_hwjmqsdxb5s5-stroke" data-item-order="1998986588" transform="translate(116, 540)"><g id="cp_0_g-0_3_hwjmqsdxb5s5-stroke" fill="none" stroke-linecap="round" stroke-linejoin="round" stroke-miterlimit="4" stroke="#ffffff" stroke-width="2"><g><path d="M 58 72L 10 58.29L 10 10L 58 24M 58 72L 58 24M 58 72L 106.0001 58.29L 106.0001 10L 58 24"></path></g></g></g><g id="g-root-cp_0_g-0_4_90wmhwdxb6ku-stroke" data-item-order="1998986595" transform="translate(368, 469.9999694824219)"><g id="cp_0_g-0_4_90wmhwdxb6ku-stroke" fill="none" stroke-linecap="round" stroke-linejoin="round" stroke-miterlimit="4" stroke="#484848" stroke-width="2" stroke-dasharray="0.1, 6.0"><g><path d="M 10 10L 178 10"></path></g></g></g><g id="g-root-cp_2_g-2_90wmhwdxb6kv-stroke" data-item-order="1998986598" transform="translate(80, 375.9999694824219)"><g id="cp_2_g-2_90wmhwdxb6kv-stroke" fill="none" stroke-linecap="round" stroke-linejoin="round" stroke-miterlimit="4" stroke="#ffffff" stroke-width="2"><g><path d="M 46 30.29L 46 10L 10 20L 46 30.29ZM 142 30.2904L 142 10L 178 20.0004L 142 30.2904ZM 46 30.29L 94 44M 10 20L 10 56M 142 30.2904L 94 44M 178 20.0004L 178 56M 94 44L 94 56M 10 56L 10 152M 94 56L 94 152M 178 56L 178 152M 94 188L 94 152M 94 188L 10 164L 10 152M 94 188L 178 164.001L 178 152.001"></path></g></g></g><g id="g-root-cp_0_g-0_5_4l34dgdxb7d4-stroke" data-item-order="1998986630" transform="translate(116, 732)"><g id="cp_0_g-0_5_4l34dgdxb7d4-stroke" fill="none" stroke-linecap="round" stroke-linejoin="round" stroke-miterlimit="4" stroke="#ffffff" stroke-width="2"><g><path d="M 58 72L 10 58.29L 10 10L 58 24M 58 72L 58 24M 58 72L 106.0001 58.29L 106.0001 10L 58 24"></path></g></g></g><g id="g-root-cp_0_g-0_6_1lvjmxwdxb6dd-stroke" data-item-order="1998986637" transform="translate(368, 662)"><g id="cp_0_g-0_6_1lvjmxwdxb6dd-stroke" fill="none" stroke-linecap="round" stroke-linejoin="round" stroke-miterlimit="4" stroke="#484848" stroke-width="2" stroke-dasharray="0.1, 6.0"><g><path d="M 10 10L 178 10"></path></g></g></g><g id="g-root-cp_3_g-3_1lvjmxwdxb6de-stroke" data-item-order="1998986640" transform="translate(80, 568)"><g id="cp_3_g-3_1lvjmxwdxb6de-stroke" fill="none" stroke-linecap="round" stroke-linejoin="round" stroke-miterlimit="4" stroke="#ffffff" stroke-width="2"><g><path d="M 46 30.29L 46 10L 10 20L 46 30.29ZM 142 30.2904L 142 10L 178 20.0004L 142 30.2904ZM 46 30.29L 94 44M 10 20L 10 56M 142 30.2904L 94 44M 178 20.0004L 178 56M 94 44L 94 56M 10 56L 10 152M 94 56L 94 152M 178 56L 178 152M 94 188L 94 152M 94 188L 10 164L 10 152M 94 188L 178 164.001L 178 152.001"></path></g></g></g><g id="g-root-cp_0_g-0_7_1czwmp0dxb763-stroke" data-item-order="1998986672" transform="translate(116, 960)"><g id="cp_0_g-0_7_1czwmp0dxb763-stroke" fill="none" stroke-linecap="round" stroke-linejoin="round" stroke-miterlimit="4" stroke="#ffffff" stroke-width="2"><g><path d="M 58 72L 10 58.29L 10 10L 58 24M 58 72L 58 24M 58 72L 106.0001 58.29L 106.0001 10L 58 24"></path></g></g></g><g id="g-root-cp_0_g-0_8_1czwmp0dxb764-stroke" data-item-order="1998986679" transform="translate(368, 872)"><g id="cp_0_g-0_8_1czwmp0dxb764-stroke" fill="none" stroke-linecap="round" stroke-linejoin="round" stroke-miterlimit="4" stroke="#484848" stroke-width="2" stroke-dasharray="0.1, 6.0"><g><path d="M 10 10L 178 10"></path></g></g></g><g id="g-root-cp_4_g-4_18kplnodxb4sl-stroke" data-item-order="1998986682" transform="translate(80, 760)"><g id="cp_4_g-4_18kplnodxb4sl-stroke" fill="none" stroke-linecap="round" stroke-linejoin="round" stroke-miterlimit="4" stroke="#ffffff" stroke-width="2"><g><path d="M 46 30.29L 46 10L 10 20L 46 30.29ZM 142 30.2904L 142 10L 178 20.0004L 142 30.2904ZM 46 30.29L 94 44M 10 20L 10 56M 142 30.2904L 94 44M 178 20.0004L 178 56M 94 44L 94 56M 10 56L 10 188M 94 56L 94 188M 178 56L 178 188M 94 224L 94 188M 94 224L 10 200L 10 188M 94 224L 178 200.001L 178 188.001"></path></g></g></g><g id="g-root-cp_0_g-0_9_18kplnodxb4sm-stroke" data-item-order="1998986714" transform="translate(116, 1200)"><g id="cp_0_g-0_9_18kplnodxb4sm-stroke" fill="none" stroke-linecap="round" stroke-linejoin="round" stroke-miterlimit="4" stroke="#ffffff" stroke-width="2"><g><path d="M 58 72L 10 58.29L 10 10L 58 24M 58 72L 58 24M 58 72L 106.0001 58.29L 106.0001 10L 58 24"></path></g></g></g><g id="g-root-cp_0_g-0_10_zp2lesdxb5lb-stroke" data-item-order="1998986721" transform="translate(368, 1106)"><g id="cp_0_g-0_10_zp2lesdxb5lb-stroke" fill="none" stroke-linecap="round" stroke-linejoin="round" stroke-miterlimit="4" stroke="#484848" stroke-width="2" stroke-dasharray="0.1, 6.0"><g><path d="M 10 10L 178 10"></path></g></g></g><g id="g-root-cp_5_g-5_144w3j8dxb5kw-stroke" data-item-order="1998986724" transform="translate(80, 988)"><g id="cp_5_g-5_144w3j8dxb5kw-stroke" fill="none" stroke-linecap="round" stroke-linejoin="round" stroke-miterlimit="4" stroke="#ffffff" stroke-width="2"><g><path d="M 46 30.29L 46 10L 10 20L 46 30.29ZM 142 30.2904L 142 10L 178 20.0004L 142 30.2904ZM 46 30.29L 94 44M 10 20L 10 56M 142 30.2904L 94 44M 178 20.0004L 178 56M 94 44L 94 56M 10 56L 10 199.999969M 94 56L 94 199.999969M 178 56L 178 199.999969M 94 235.999969L 94 199.999969M 94 235.999969L 10 211.999969L 10 199.999969M 94 235.999969L 178 212.000969L 178 200.000969"></path></g></g></g><g id="g-root-ic_butt_1q5qvacdxtgr3-stroke" data-item-order="1999997696" transform="translate(284, 1082)"></g><g id="g-root-ic_1_4myjmsdxb6do-stroke" data-item-order="1999997696" transform="translate(284, 241.99996948242188)"></g><g id="g-root-ic_user_1lvjmxwdxqlfs-stroke" data-item-order="1999997696" transform="translate(284, 848)"></g><g id="g-root-ic_mark_v7do10dxl0xs-stroke" data-item-order="1999997696" transform="translate(284, 445.9999694824219)"></g><g id="g-root-ic_4_zqbjl0dxp7uy-stroke" data-item-order="1999997696" transform="translate(284, 638)"></g><g id="g-root-tx_comearop_18lyjtwdxp729-stroke" data-item-order="2000000000" transform="translate(572, 650)"></g><g id="g-root-tx_3_1cuwu04dxqm15-stroke" data-item-order="2000000000" transform="translate(194, 644)"></g><g id="g-root-tx_iniciart_1d1s1ycdxp6a0-stroke" data-item-order="2000000000" transform="translate(572, 614)"></g><g id="g-root-tx_reproces_40o2sdxql1i-stroke" data-item-order="2000000000" transform="translate(572, 806)"></g><g id="g-root-tx_4_1480gysdxs001-stroke" data-item-order="2000000000" transform="translate(194, 854)"></g><g id="g-root-tx_agendaru_zn765gdxl05j-stroke" data-item-order="2000000000" transform="translate(572, 457.9999694824219)"></g><g id="g-root-tx_2_4myjmsdxp6h0-stroke" data-item-order="2000000000" transform="translate(194, 451.9999694824219)"></g><g id="g-root-tx_trabalha_v7do10dxqmfd-stroke" data-item-order="2000000000" transform="translate(572, 866)"></g><g id="g-root-tx_identifi_diljvodxb5kz-stroke" data-item-order="2000000000" transform="translate(572, 265.9999694824219)"></g><g id="g-root-tx_1_1q9hpt0dxl05e-stroke" data-item-order="2000000000" transform="translate(194, 247.99996948242188)"></g><g id="g-root-tx_alcanart_4g3bokdxtfd9-stroke" data-item-order="2000000000" transform="translate(572, 1034)"></g><g id="g-root-tx_5_1qcm38kdxuu4v-stroke" data-item-order="2000000000" transform="translate(194, 1088)"></g><g id="g-root-tx_reconhec_hyf204dxb4sq-stroke" data-item-order="2000000000" transform="translate(572, 206)"></g><g id="g-root-tx_jornadad_qtfl5wdxb75t-stroke" data-item-order="2000000000" transform="translate(260, 38)"></g><g id="g-root-tx_experime_9tk4dxtg5i-stroke" data-item-order="2000000000" transform="translate(572, 1094)"></g><g id="g-root-tx_agendars_1430o9wdxkzda-stroke" data-item-order="2000000000" transform="translate(572, 421.9999694824219)"></g></g></g><path id="wzqaktwdxs1zh" d="M65.283 12.757a.35.35 0 0 0 .584.157l5.203-5.141-6.183 3.523.396 1.461zm-2.216-11.7a.35.35 0 0 0-.522.305v3.111l3.276-1.868-2.754-1.548zm3.728 2.105l-4.25 2.421v2.445l6.391-3.644-2.141-1.222zm4.708 3.303a.35.35 0 0 0 0-.609l-1.592-.9-7.365 4.199v1.782a.35.35 0 0 0 .523.305l8.435-4.777z M44.542 2.513c0-.433.355-.783.792-.783s.792.35.792.783-.355.783-.792.783-.792-.35-.792-.783zm59.171 0c0-.433.355-.783.792-.783s.792.35.792.783-.355.783-.792.783-.792-.35-.792-.783zm-85.951 7.636h-1.27v-.487c-.276.201-.864.609-1.881.609-1.202 0-2.274-.794-2.137-2.078.118-1.106 1.153-1.584 1.848-1.727l2.17-.345c0-.539-.29-.956-1.064-1.006s-1.21.305-1.571 1.017l-1.124-.605c1.218-2.631 5.029-1.764 5.029.414v4.207zm-1.27-2.86c.006.396-.062 1.112-.819 1.59-.587.37-1.841.299-1.903-.395-.049-.555.461-.791.906-.898l1.816-.297zm72.662 2.86h-1.27v-.487c-.276.201-.864.609-1.881.609-1.202 0-2.274-.794-2.137-2.078.118-1.106 1.153-1.584 1.848-1.727l2.17-.345c0-.539-.29-.956-1.064-1.006s-1.21.305-1.571 1.017l-1.124-.605c1.218-2.631 5.029-1.764 5.029.414v4.207zm-1.27-2.86c.006.396-.062 1.112-.82 1.59-.587.37-1.841.299-1.903-.395-.049-.555.461-.791.906-.898l1.816-.297zM99.096 10.149H97.85v-8.45h1.246v4.895l2.68-2.559h1.738l-2.633 2.535 2.715 3.578h-1.556l-2.077-2.707-.867.844v1.863zm6.053-6.114h-1.255v6.113h1.255V4.035zm-59.2 0h-1.255v6.113h1.255V4.035zm5.584 6.113V1.697h1.255v2.695c.361-.346 1-.485 1.47-.485 1.452 0 2.477 1.082 2.457 2.448v3.792h-1.27v-3.68c0-.408-.214-1.339-1.315-1.339-.968 0-1.342.756-1.342 1.339v3.681h-1.255zm-4.76-4.894V4.039h.621a.45.45 0 0 0 .45-.45v-.855h1.251v1.305h1.309v1.215h-1.309v3.109c0 .293.105.664.648.664.365 0 .531-.035.736-.07v1.137s-.361.113-.857.113c-1.398 0-1.777-1.051-1.777-1.788V5.254h-1.071zM36.528 4.039h-1.394l2.191 6.106h1.125l1.234-3.918 1.238 3.918h1.129l2.188-6.106h-1.383l-1.359 3.93-1.256-3.93h-1.124l-1.242 3.957-1.348-3.957zM26.212 7.141c-.02 1.566 1.187 3.129 3.223 3.129 1.566 0 2.383-.918 2.734-1.719L31.172 8c-.315.399-.801 1.094-1.738 1.094-1.145 0-1.825-.781-1.891-1.52h4.625c.074-.284.148-.995-.03-1.559-.336-1.064-1.221-2.102-2.839-2.102s-3.088 1.152-3.088 3.227zm1.363-.75h3.348c-.055-.43-.566-1.301-1.623-1.301a1.79 1.79 0 0 0-1.725 1.301zm-8.758.75c.038 1.758 1.277 3.133 3.145 3.133 1.074 0 1.723-.477 1.961-.672v.547h1.242V1.703h-1.258v2.888c-.414-.36-1.062-.68-1.93-.68-1.91 0-3.198 1.473-3.16 3.23zm1.309-.08c0 1.119.723 1.978 1.836 1.978a1.88 1.88 0 0 0 1.94-1.904c0-1.371-1.011-1.99-1.972-1.99s-1.805.798-1.805 1.916zm76.683-.028C96.771 5.275 95.532 3.9 93.664 3.9c-1.074 0-1.723.477-1.961.672v-.547h-1.242v8.22h1.258V9.583c.414.36 1.063.68 1.93.68 1.91 0 3.198-1.473 3.16-3.23zm-1.309.08c0-1.119-.723-1.978-1.836-1.978a1.88 1.88 0 0 0-1.94 1.904c0 1.371 1.011 1.99 1.972 1.99S95.5 8.231 95.5 7.113zM106.441 10.173V4.036h1.254v.382c.361-.346 1-.485 1.47-.485 1.452 0 2.477 1.082 2.457 2.448v3.792h-1.27V6.492c0-.408-.214-1.339-1.315-1.339-.969 0-1.342.756-1.342 1.339v3.681h-1.254zm-30.383-.021V1.824h1.084l4.215 5.777V1.824h1.32v8.328h-1.094l-4.207-5.796v5.796h-1.319zM5.24 10.149H4V2.377h1.014l2.664 3.597 2.654-3.592h1.03v7.766h-1.256V4.762L7.678 8.068 5.24 4.742v5.407z" transform="translate(740, 1286)" fill="#0000" stroke="none"></path></svg>