<?xml version="1.0" encoding="UTF-8"?>
<svg version="1.1" xmlns="http://www.w3.org/2000/svg" width="1024" height="1024">
<path d="M0 0 C2.25063404 0.35886784 4.50594738 0.6888412 6.76367188 1 C7.94606445 1.165 9.12845703 1.33 10.34667969 1.5 C11.42997559 1.644375 12.51327148 1.78875 13.62939453 1.9375 C14.45648926 2.123125 15.28358398 2.30875 16.13574219 2.5 C16.46574219 3.16 16.79574219 3.82 17.13574219 4.5 C19.28172866 4.75346297 21.42913779 4.99844944 23.58105469 5.1953125 C27.72497898 5.689542 31.63904168 6.82748967 35.63574219 8 C36.53591064 8.26280762 37.4360791 8.52561523 38.36352539 8.79638672 C76.88008561 20.29435911 113.02374713 37.59168206 144.63183594 62.5390625 C147.1678097 64.57648805 147.1678097 64.57648805 150.13574219 66.5 C150.13574219 67.16 150.13574219 67.82 150.13574219 68.5 C150.66554688 68.71269531 151.19535156 68.92539063 151.74121094 69.14453125 C155.06717852 71.02725678 157.68796557 73.57895695 160.44824219 76.1875 C161.31002075 76.99453369 161.31002075 76.99453369 162.18920898 77.81787109 C163.84380446 79.3726344 165.49096617 80.93486029 167.13574219 82.5 C168.32683594 83.62728516 168.32683594 83.62728516 169.54199219 84.77734375 C171.11892165 86.30580202 172.6360553 87.8956838 174.13574219 89.5 C174.13574219 90.16 174.13574219 90.82 174.13574219 91.5 C174.79574219 91.5 175.45574219 91.5 176.13574219 91.5 C177.83014404 93.41970483 179.39572211 95.34404581 180.94824219 97.375 C181.43180176 98.002854 181.91536133 98.63070801 182.41357422 99.27758789 C183.99631769 101.34525165 185.56600587 103.42244992 187.13574219 105.5 C187.65668457 106.17949707 188.17762695 106.85899414 188.71435547 107.55908203 C220.79993035 149.55066954 243.50287775 205.59489775 236.65673828 259.25439453 C235.59211583 265.59816509 234.24465704 271.86790236 232.70825195 278.11352539 C229.61477901 291.00849256 229.54728726 303.73379461 236.13574219 315.5 C236.75578125 316.63308594 237.37582031 317.76617187 238.01464844 318.93359375 C244.47809217 330.34928834 252.18660706 341.27535472 260.52246094 351.3984375 C262.13574219 353.5 262.13574219 353.5 262.13574219 355.5 C262.79574219 355.5 263.45574219 355.5 264.13574219 355.5 C265.62017904 357.23593235 267.0203641 359.0439466 268.38574219 360.875 C269.28448088 362.0723665 270.18428112 363.26893671 271.08496094 364.46484375 C271.57270996 365.11437012 272.06045898 365.76389648 272.56298828 366.43310547 C274.21402777 368.60288198 275.89808855 370.74306827 277.59277344 372.87890625 C302.79848709 404.68864718 302.79848709 404.68864718 301.13574219 423.5 C299.15331668 433.62605834 292.97476399 441.40638687 284.60058594 447.27734375 C280.54976944 449.58074921 276.32795804 451.42269311 272.05761719 453.2734375 C271.34750488 453.58120117 270.63739258 453.88896484 269.90576172 454.20605469 C268.51043426 454.80382529 267.11051379 455.39102359 265.70556641 455.96582031 C261.64769285 457.6630604 258.16193635 459.26979275 255.13574219 462.5 C253.44376411 468.20182855 254.65494935 472.28972702 256.51074219 477.6875 C259.96088096 488.5729772 261.99125916 499.08796298 257.06152344 509.84375 C254.11653726 515.41785633 250.59473517 520.04100701 246.13574219 524.5 C247.09480469 526.10875 247.09480469 526.10875 248.07324219 527.75 C251.7761159 533.96127204 251.76408319 540.40872299 251.13574219 547.5 C248.91903592 555.69914247 243.29033579 563.6367658 237.97949219 570.140625 C234.96152737 574.00259693 235.04067062 576.96684634 235.14355469 581.71484375 C235.1603125 582.95943359 235.17707031 584.20402344 235.19433594 585.48632812 C235.23801851 588.08544123 235.28987315 590.68443206 235.35058594 593.28320312 C235.54352267 610.37564394 230.90002718 625.83407272 219.13574219 638.5 C218.49121094 639.19867187 217.84667969 639.89734375 217.18261719 640.6171875 C207.84826562 649.77340259 194.88476678 655.27276076 182.13574219 657.5 C181.09933594 657.69335938 181.09933594 657.69335938 180.04199219 657.890625 C161.55006899 660.77051468 141.4696446 656.90421079 123.23095703 653.90917969 C102.96685516 650.60348462 81.13282042 648.60178035 63.13574219 660.5 C47.77997339 673.04785679 43.5159343 698.48592051 41.36279297 717.078125 C40.09516528 730.59948702 40.91597322 742.8363866 46.13574219 755.5 C46.79574219 755.5 47.45574219 755.5 48.13574219 755.5 C50.95139276 758.96541609 51.86183901 762.17916853 51.67089844 766.5625 C50.79837584 769.72141393 49.01743769 771.01608007 46.26074219 772.64453125 C42.4261954 774.18821828 39.16082528 774.48206495 35.13574219 773.5 C26.17214522 768.71730339 21.56271876 760.77848079 18.13574219 751.5 C16.45846122 745.47575985 15.72503591 739.5461792 15.44824219 733.3125 C15.40989258 732.48371338 15.37154297 731.65492676 15.33203125 730.80102539 C14.21718744 702.23177303 20.30962067 669.17978328 40.13574219 647.5 C40.68746094 646.86835937 41.23917969 646.23671875 41.80761719 645.5859375 C54.60225578 631.75554245 73.32637845 626.03714827 91.67480469 625.25 C108.27427078 624.87437499 124.94255569 626.61195409 141.21386719 629.81640625 C158.23594114 632.78340121 180.59628312 635.16060993 195.46386719 624.80859375 C202.79907385 619.06725208 207.09459951 612.55076656 208.78491211 603.44116211 C209.59140616 596.67996944 209.08441274 589.80690943 208.79394531 583.01953125 C208.54950805 571.54978274 211.54333884 562.54859729 219.32324219 554.0625 C222.97762776 550.03555338 225.85099304 546.85766703 226.32324219 541.2890625 C225.78949263 535.12870307 223.78053168 531.57672171 219.13574219 527.5 C217.48547278 526.4731657 215.82330352 525.46432076 214.13574219 524.5 C213.13574219 521.5 213.13574219 521.5 213.74511719 519.48828125 C215.58739515 516.85423776 217.49346355 516.05856651 220.38574219 514.6875 C226.53148378 511.49783595 229.96419143 507.99336427 233.57324219 502.1875 C235.12719283 494.76306916 232.82990285 487.90421607 230.07324219 481.04296875 C227.2668087 473.43051791 226.21306439 462.11055229 229.38574219 454.4375 C229.96324219 453.468125 230.54074219 452.49875 231.13574219 451.5 C231.69261719 450.51 232.24949219 449.52 232.82324219 448.5 C241.30380037 437.4981948 253.93173973 432.51520641 266.61230469 427.73828125 C269.43319217 426.3540377 271.11500838 424.89477482 273.13574219 422.5 C274.30366881 419.06492171 274.59909541 416.72382462 273.29736328 413.28564453 C270.05564975 406.79826256 266.17478756 401.1917159 261.69824219 395.5 C260.99812012 394.59572266 260.29799805 393.69144531 259.57666016 392.75976562 C257.43753996 390.00029574 255.28726518 387.24980479 253.13574219 384.5 C251.86540525 382.86520909 250.59583627 381.22982104 249.32714844 379.59375 C245.46697842 374.61941709 241.59661829 369.65305066 237.72265625 364.68945312 C200.2106673 316.56606392 200.2106673 316.56606392 203.13574219 283.5 C204.11067393 276.70377914 205.49445381 270.00129258 206.94433594 263.29296875 C211.36601505 242.61749356 209.63132204 220.58562281 203.13574219 200.5 C199.86008104 201.22532808 199.86008104 201.22532808 198.40917969 204.45703125 C197.77063611 205.7393496 197.13820515 207.02472344 196.51074219 208.3125 C184.30383774 232.20437818 163.25454713 249.24319625 137.90698242 257.72900391 C127.51918442 261.0489838 117.40921334 262.65080689 106.49658203 262.67529297 C94.46976246 262.71897603 84.86621865 264.32908278 73.74902344 268.77734375 C69.14574538 270.59619996 64.57180359 271.62787869 59.69824219 272.4375 C59.00585449 272.55335449 58.3134668 272.66920898 57.60009766 272.78857422 C54.0872119 273.32841245 50.68843716 273.61636958 47.13574219 273.5 C47.30074219 274.7375 47.46574219 275.975 47.63574219 277.25 C49.28749233 293.07721783 47.28073495 308.29535389 37.09667969 321.0546875 C25.40787448 334.59120762 10.78491295 342.00224253 -6.86425781 344.5 C-11.22722057 344.76572072 -15.50289448 344.77305927 -19.86425781 344.5 C-20.19425781 345.16 -20.52425781 345.82 -20.86425781 346.5 C-21.52425781 346.17 -22.18425781 345.84 -22.86425781 345.5 C-24.47044384 345.36021999 -26.08130684 345.27263206 -27.69238281 345.2109375 C-44.33792679 344.37435827 -59.49444231 341.35059392 -75.57983398 337.2878418 C-90.0293764 333.60500121 -90.0293764 333.60500121 -103.86425781 337.5 C-160.86893978 381.81683542 -180.82691052 463.913218 -193.21389771 530.86865234 C-194.84092045 539.65746286 -196.49711746 548.44078269 -198.16113281 557.22265625 C-198.3231827 558.07794041 -198.48523258 558.93322456 -198.65219307 559.81442642 C-202.26004602 578.82005181 -206.26336419 597.70919636 -210.86425781 616.5 C-211.12432617 617.58539062 -211.38439453 618.67078125 -211.65234375 619.7890625 C-241.55391366 744.00169287 -241.55391366 744.00169287 -273.86425781 766.5 C-282.97814254 770.81540832 -290.47135359 769.70784766 -299.83691406 766.62890625 C-306.38481286 764.18717367 -310.54796614 760.57986807 -313.86425781 754.5 C-318.52124886 742.70228935 -315.67020994 731.70630942 -310.86425781 720.5 C-310.58018066 719.83500488 -310.29610352 719.17000977 -310.00341797 718.48486328 C-309.3887235 717.04791086 -308.77397509 715.61098151 -308.15917969 714.17407227 C-307.83498047 713.41537842 -307.51078125 712.65668457 -307.17675781 711.875 C-306.84095703 711.09116943 -306.50515625 710.30733887 -306.15917969 709.49975586 C-285.07543435 659.6207197 -263.31951877 597.14198528 -274.86425781 542.5 C-275.01459473 541.77538574 -275.16493164 541.05077148 -275.31982422 540.30419922 C-279.96387576 518.7428758 -288.81767704 497.87208381 -299.62158203 478.70898438 C-300.91170095 476.41566493 -302.17344062 474.10837486 -303.43066406 471.796875 C-309.33555155 460.98322692 -315.65781696 450.50234798 -322.30175781 440.125 C-326.21307419 434.0014006 -329.94544308 427.77671024 -333.65527344 421.52978516 C-334.88985908 419.45701757 -336.13445947 417.3904893 -337.37988281 415.32421875 C-371.80518651 357.93550003 -371.80518651 357.93550003 -370.86425781 330.5 C-371.85425781 330.5 -372.84425781 330.5 -373.86425781 330.5 C-373.65800781 329.79875 -373.45175781 329.0975 -373.23925781 328.375 C-372.64350101 325.48382719 -372.64350101 325.48382719 -373.80566406 322.80078125 C-375.00979195 319.04621274 -375.24561035 315.7476395 -375.42675781 311.8125 C-375.49831938 310.38795211 -375.57124026 308.96347187 -375.64550781 307.5390625 C-375.6803125 306.84844727 -375.71511719 306.15783203 -375.75097656 305.44628906 C-375.90199221 302.85168407 -376.15858801 300.27235893 -376.42675781 297.6875 C-382.84588508 230.0569265 -352.65458055 155.88936097 -310.24316406 104.2890625 C-298.09552506 89.69321371 -285.27648881 75.32745014 -270.36425781 63.5078125 C-268.19279374 61.76385541 -266.15548427 59.95415383 -264.11425781 58.0625 C-258.21547428 52.85130473 -251.47026436 48.7438797 -244.86425781 44.5 C-243.83429688 43.8296875 -242.80433594 43.159375 -241.74316406 42.46875 C-225.67072729 32.26933629 -208.71573998 24.05436767 -190.86425781 17.5 C-189.8889209 17.13664551 -188.91358398 16.77329102 -187.90869141 16.39892578 C-127.1064903 -6.09376417 -63.65140722 -10.56386402 0 0 Z M-145.86425781 34.5 C-147.31445312 34.96019531 -147.31445312 34.96019531 -148.79394531 35.4296875 C-155.6057911 37.82762698 -163.51231152 42.21204647 -167.07910156 48.71484375 C-170.09871928 51.73446147 -173.89704803 51.04835994 -177.98925781 51.0625 C-201.89902279 51.74582091 -227.11089828 58.24674712 -244.83300781 75.40625 C-254.55392046 86.15041661 -259.08057226 96.04235272 -259.86425781 110.5 C-260.48429687 110.64695312 -261.10433594 110.79390625 -261.74316406 110.9453125 C-274.93506216 114.28649193 -286.34523314 118.7341461 -296.86425781 127.5 C-297.72792969 128.21285156 -298.59160156 128.92570312 -299.48144531 129.66015625 C-305.37855178 134.74170544 -310.23220358 140.2589164 -314.86425781 146.5 C-315.70537109 147.5828125 -315.70537109 147.5828125 -316.56347656 148.6875 C-334.06006454 172.17942233 -347.55572295 208.02328456 -343.41113281 237.75 C-343.05085642 240.01459447 -342.68891824 242.27892528 -342.32519531 244.54296875 C-341.17511208 251.92104506 -342.5243983 257.22743999 -344.89160156 264.21875 C-350.5978834 283.4688574 -346.32940882 304.98008586 -337.37207031 322.40234375 C-331.1425042 333.26682628 -321.79470909 339.21076343 -309.86425781 342.5 C-285.02680893 348.30970154 -258.08028798 335.26517655 -237.48925781 322.53125 C-236.95300781 322.1909375 -236.41675781 321.850625 -235.86425781 321.5 C-236.52425781 320.84 -237.18425781 320.18 -237.86425781 319.5 C-238.19425781 319.5 -238.52425781 319.5 -238.86425781 319.5 C-240.54588779 318.18558904 -242.20982927 316.8484887 -243.86425781 315.5 C-245.08435547 314.56220703 -245.08435547 314.56220703 -246.32910156 313.60546875 C-258.69238281 304.015625 -258.69238281 304.015625 -260.86425781 297.5 C-261.23626211 293.95165134 -261.57927235 290.66660267 -259.67675781 287.5625 C-257.26457563 286.14846217 -255.68018197 285.63097322 -252.86425781 285.5 C-249.67675781 286.9375 -249.67675781 286.9375 -246.86425781 288.5 C-246.20425781 288.5 -245.54425781 288.5 -244.86425781 288.5 C-244.61546875 289.07878906 -244.36667969 289.65757812 -244.11035156 290.25390625 C-239.86475151 297.90663362 -231.04620712 303.07147237 -222.86425781 305.5 C-213.46748963 307.32647331 -204.29319854 305.70208811 -194.91503906 304.43945312 C-180.68563525 302.73041891 -168.80085795 305.4600282 -155.36425781 310.0625 C-152.93843859 310.88006249 -150.51139465 311.69400212 -148.08300781 312.50390625 C-146.50422852 313.04253296 -146.50422852 313.04253296 -144.89355469 313.59204102 C-134.58798973 316.6808866 -123.26186901 316.5278596 -112.86425781 314 C-97.9143413 310.46145804 -85.03394727 313.09952966 -70.60302734 317.13183594 C-61.19314456 319.7598032 -51.92296101 321.98748678 -42.23925781 323.375 C-40.86012207 323.57331421 -40.86012207 323.57331421 -39.453125 323.77563477 C-36.1672199 324.23173598 -36.1672199 324.23173598 -32.86425781 324.5 C-32.53425781 324.17 -32.20425781 323.84 -31.86425781 323.5 C-31.05794922 323.71076172 -31.05794922 323.71076172 -30.23535156 323.92578125 C-16.78241563 327.18374102 1.65242717 324.18011056 13.38574219 317.15234375 C19.88478021 312.5365497 25.41858405 307.09714494 27.66699219 299.28125 C29.86043906 286.26679856 28.12913854 274.13309208 20.98339844 262.94921875 C11.60588034 250.51855523 -2.70006729 243.86907622 -17.86425781 241.5 C-21.83691791 241.12918437 -25.81389351 240.9911055 -29.80029297 240.85327148 C-47.28649645 240.18944011 -61.37812004 235.29266874 -74.69238281 223.94140625 C-79.20773445 220.35149831 -82.11502417 219.99568126 -87.86425781 220.5 C-87.86425781 221.16 -87.86425781 221.82 -87.86425781 222.5 C-89.34394105 222.35950482 -90.82300298 222.21245174 -92.30175781 222.0625 C-93.53732422 221.94068359 -93.53732422 221.94068359 -94.79785156 221.81640625 C-96.86425781 221.5 -96.86425781 221.5 -97.86425781 220.5 C-99.73249672 220.14933686 -101.60945923 219.84470301 -103.48925781 219.5625 C-118.98449106 217.02259738 -130.13936166 209.84313742 -139.86425781 197.5 C-143.2003408 196.38797234 -143.63933822 196.6686626 -146.86425781 197.5 C-156.1013503 198.16289723 -163.483683 197.67352626 -171.86425781 193.5 C-172.85425781 193.17 -173.84425781 192.84 -174.86425781 192.5 C-184.38701799 183.77747177 -191.17137661 169.73839486 -192.04125977 156.88452148 C-192.10739554 153.90208811 -192.14894823 150.92054069 -192.17675781 147.9375 C-192.20576172 146.89658203 -192.23476563 145.85566406 -192.26464844 144.78320312 C-192.27302734 143.78095703 -192.28140625 142.77871094 -192.29003906 141.74609375 C-192.31191284 140.37988892 -192.31191284 140.37988892 -192.33422852 138.98608398 C-191.71592506 135.71533902 -190.42470329 134.55816963 -187.86425781 132.5 C-183.974749 131.23168191 -182.36164839 131.29353599 -178.55175781 132.875 C-175.86425781 134.5 -175.86425781 134.5 -174.86425781 135.5 C-174.74978411 137.56052672 -174.64258981 139.62174689 -174.57446289 141.68432617 C-174.09756143 160.13012957 -174.09756143 160.13012957 -164.86425781 175.5 C-161.01729713 178.7896545 -157.84418231 179.4691327 -152.86425781 179.5 C-150.53092448 179.16666667 -150.53092448 179.16666667 -148.86425781 177.5 C-148.28675781 176.324375 -147.70925781 175.14875 -147.11425781 173.9375 C-145.93234307 171.69980371 -145.36324744 170.7111514 -143.00878906 169.71484375 C-139.55868334 169.15169329 -137.58145236 169.19247401 -134.31347656 170.59375 C-131.14094504 173.06296113 -130.2005579 175.44766798 -128.61425781 179.125 C-124.64003257 187.70755281 -118.9242294 194.97894069 -109.99316406 198.7890625 C-102.57117442 201.26759849 -96.01263417 201.54180914 -88.30175781 200.875 C-78.412536 200.11694494 -72.57954565 202.0438921 -65.00488281 208.5168457 C-63.87219309 209.5032405 -62.74325198 210.49395695 -61.61816406 211.48901367 C-57.35119567 215.22829862 -53.34104962 217.82911436 -47.86425781 219.5 C-47.23132813 219.70882812 -46.59839844 219.91765625 -45.94628906 220.1328125 C-40.87070739 221.52687942 -35.78329802 221.66903827 -30.55175781 221.875 C-5.23605627 222.95616375 17.60587713 230.63553716 35.13574219 249.671875 C38.88392935 253.09795233 43.24157443 252.78564368 48.10839844 252.70703125 C62.15041962 251.74673819 76.70577762 247.56104155 86.45214844 236.80859375 C93.57850959 227.03671569 95.35210419 218.46151009 94.87792969 206.62109375 C95.17551757 203.01847681 95.86358461 201.2983932 98.13574219 198.5 C102.11782094 196.22654369 106.40115729 196.03925358 110.88574219 195.625 C119.22895954 194.71345257 127.15599531 192.83149669 133.13574219 186.5 C135.89811737 181.48970007 137.10613448 176.16797315 136.13574219 170.5 C134.16521016 164.28344063 130.5086957 160.09774861 125.13574219 156.5 C119.82852452 153.84639116 113.95851299 154.07345972 108.13574219 154.5 C107.80574219 154.83 107.47574219 155.16 107.13574219 155.5 C106.16636719 155.561875 105.19699219 155.62375 104.19824219 155.6875 C98.90425622 156.35887868 94.30643586 159.28808648 90.13574219 162.5 C89.80574219 163.49 89.47574219 164.48 89.13574219 165.5 C86.01511226 167.58041995 82.85269498 168.27698283 79.13574219 168.5 C75.16102155 166.97126129 73.51720554 166.07219503 71.13574219 162.5 C70.83276367 160.40283203 70.83276367 160.40283203 70.75683594 158.0078125 C70.72267578 157.13769531 70.68851563 156.26757812 70.65332031 155.37109375 C70.61368164 154.01177734 70.61368164 154.01177734 70.57324219 152.625 C70.57547104 143.81676785 70.57547104 143.81676785 68.13574219 135.5 C67.84699219 134.87867188 67.55824219 134.25734375 67.26074219 133.6171875 C62.83367608 124.79379881 56.22298097 118.42568942 46.82324219 115.12109375 C41.08730034 113.79549091 34.74741878 113.00816693 29.50292969 116.00390625 C28.72175781 116.49761719 27.94058594 116.99132812 27.13574219 117.5 C23.56629636 117.87573114 21.18651981 118.10044436 18.03027344 116.296875 C15.70659946 114.09297804 15.24188871 112.44140235 14.38574219 109.375 C11.65493366 101.37309593 6.93554943 95.69290501 -0.55175781 91.6875 C-5.589749 89.40747599 -10.84143387 87.91410166 -16.17675781 86.4921875 C-18.86425781 85.5 -18.86425781 85.5 -20.86425781 82.5 C-21.19896273 78.81824596 -21.36000571 76.39706762 -19.55175781 73.125 C-16.46682131 70.1543204 -12.85819144 70.09939575 -8.71972656 70.16015625 C4.67781371 71.75466515 16.02036427 78.2724517 24.66308594 88.5078125 C26.13574219 90.5 26.13574219 90.5 27.36230469 93.23828125 C27.94753906 93.98464844 28.53277344 94.73101562 29.13574219 95.5 C31.81383726 95.77618825 33.9314233 95.77990577 36.57324219 95.5625 C44.17889326 95.25913093 50.11343037 96.37134432 57.13574219 99.5 C58.05871094 99.90089844 58.98167969 100.30179687 59.93261719 100.71484375 C76.93640473 109.00058768 83.98398321 123.6389289 90.13574219 140.5 C91.12832031 140.1390625 92.12089844 139.778125 93.14355469 139.40625 C106.73545838 134.67687385 119.04393359 133.42786642 132.46777344 139.56640625 C143.72808655 145.37879956 149.39309874 152.87021346 154.13574219 164.5 C156.78520954 174.7628793 155.2084882 185.29827468 150.13574219 194.5 C141.73710964 205.76687721 132.68832634 210.62694615 119.26074219 213.34765625 C116.02094426 214.17152005 116.02094426 214.17152005 114.81933594 216.6953125 C114.59375 217.62085938 114.36816406 218.54640625 114.13574219 219.5 C113.81734375 220.57894531 113.49894531 221.65789062 113.17089844 222.76953125 C112.68943359 224.52330078 112.68943359 224.52330078 112.19824219 226.3125 C110.74247894 231.49763425 109.13505702 236.50171291 107.13574219 241.5 C127.92885967 242.98522268 147.63387752 232.18372645 162.95605469 219.08984375 C176.2092485 206.62697801 183.21091564 190.76265568 184.11962891 172.72607422 C184.30967751 146.47057157 168.20974917 122.07420106 151.08105469 103.65625 C149.13574219 101.5 149.13574219 101.5 147.50292969 99.21875 C146.82617188 98.36796875 146.82617188 98.36796875 146.13574219 97.5 C145.47574219 97.5 144.81574219 97.5 144.13574219 97.5 C143.80574219 96.51 143.47574219 95.52 143.13574219 94.5 C136.49299111 87.47506325 127.29559776 79.66492268 118.13574219 76.5 C118.296875 77.35335937 118.45800781 78.20671875 118.62402344 79.0859375 C120.15305896 89.28728903 120.81706298 102.92542852 114.94824219 111.8125 C112.13574219 113.5 112.13574219 113.5 108.57324219 113.5 C103.08961124 111.9047619 103.08961124 111.9047619 101.13574219 109.5 C100.04934217 105.06233214 100.11567518 100.59987351 100.26074219 96.0625 C100.33150229 87.93924067 97.49817061 79.64045933 92.13574219 73.5 C84.47020897 66.49322354 74.00269094 59.38911152 63.40527344 58.19140625 C60.3679057 58.60440462 58.99154633 60.21230691 56.95605469 62.40625 C53.88935867 64.24889997 51.61393688 64.00282597 48.13574219 63.5 C45.65917969 60.98046875 45.65917969 60.98046875 43.51074219 57.6875 C40.69473537 53.43299151 38.6374885 50.90739083 34.13574219 48.5 C33.43449219 47.71625 32.73324219 46.9325 32.01074219 46.125 C27.88224388 42.35550155 23.27283303 40.59797221 18.13574219 38.5 C17.14316406 38.07589844 16.15058594 37.65179688 15.12792969 37.21484375 C6.3273376 33.60858609 -2.57538746 31.39319514 -11.86425781 29.5 C-12.59306152 29.34756836 -13.32186523 29.19513672 -14.07275391 29.03808594 C-22.84668953 27.24258 -31.39938203 26.2317206 -40.36425781 26.1875 C-41.18394043 26.18202148 -42.00362305 26.17654297 -42.84814453 26.17089844 C-47.3300239 26.0561333 -47.3300239 26.0561333 -50.86425781 28.5 C-50.27773438 29.19351563 -49.69121094 29.88703125 -49.08691406 30.6015625 C-38.30204192 44.66549067 -36.39791387 60.26713462 -36.88598633 77.46850586 C-37.08093722 85.60822983 -36.35009912 91.69254512 -30.67871094 97.86181641 C-27.49889311 100.73272298 -23.87847786 102.68271385 -20.11425781 104.6875 C-18.59319345 105.50427322 -17.07729139 106.33075231 -15.56738281 107.16796875 C-14.90383789 107.52141357 -14.24029297 107.8748584 -13.55664062 108.23901367 C-11.48507916 109.7825242 -10.78079898 111.10167905 -9.86425781 113.5 C-9.64017372 117.08534548 -9.93591182 120.05397967 -10.86425781 123.5 C-18.89439685 125.70181232 -24.40120361 123.49064865 -31.45800781 119.52734375 C-42.9214352 112.70450107 -51.31886179 105.86484365 -54.86425781 92.5 C-55.83523056 85.84190115 -55.89975661 79.23997784 -55.72070312 72.5246582 C-55.42541354 58.92001065 -58.50186616 47.68029576 -67.86425781 37.5 C-70.12809965 35.55274907 -72.30630559 34.0660932 -74.86425781 32.5 C-75.19425781 32.17 -75.52425781 31.84 -75.86425781 31.5 C-77.28897112 30.8064276 -78.7291538 30.14443256 -80.17675781 29.5 C-80.95664062 29.149375 -81.73652344 28.79875 -82.54003906 28.4375 C-101.37074698 20.84192034 -127.48790073 28.40012364 -145.86425781 34.5 Z M201.13574219 195.5 C202.13574219 197.5 202.13574219 197.5 202.13574219 197.5 Z M-227.67675781 336.625 C-244.04922073 346.64431479 -260.63488668 355.60422822 -279.58300781 359.4765625 C-280.40454346 359.64752441 -281.2260791 359.81848633 -282.07250977 359.99462891 C-283.694978 360.3253536 -285.32120215 360.63827605 -286.95092773 360.93115234 C-291.31017049 361.68905534 -291.31017049 361.68905534 -294.38378906 364.625 C-294.62162109 365.553125 -294.62162109 365.553125 -294.86425781 366.5 C-283.70961483 380.72032301 -267.59490582 388.14839997 -249.86425781 390.5 C-228.39529315 391.82882457 -211.59882555 388.55826738 -194.86425781 374.5 C-194.24550781 373.90058594 -193.62675781 373.30117188 -192.98925781 372.68359375 C-188.62784817 368.48768403 -188.62784817 368.48768403 -183.98925781 368.5625 C-180.86425781 369.5 -180.86425781 369.5 -179.86425781 370.5 C-179.09767904 374.48098296 -178.99964964 378.04724145 -181.11035156 381.59375 C-182.92484095 383.70576537 -184.8215818 385.60752075 -186.86425781 387.5 C-187.58613281 388.1703125 -188.30800781 388.840625 -189.05175781 389.53125 C-191.97448208 392.16982052 -194.92595253 394.7517529 -198.00488281 397.20703125 C-203.40392512 401.60663252 -206.66833458 406.335083 -209.86425781 412.5 C-210.27933594 413.27859375 -210.69441406 414.0571875 -211.12207031 414.859375 C-213.63451264 419.95453776 -214.63380445 423.82459354 -213.86425781 429.5 C-212.21898913 432.28980343 -210.94942954 433.19833064 -207.84082031 434.0625 C-202.26567013 434.97583518 -198.76862728 434.2464469 -193.86425781 431.5 C-190.98799922 429.08569728 -189.53394779 426.27374748 -187.81738281 422.9609375 C-187.22747559 421.8354248 -186.63756836 420.70991211 -186.02978516 419.55029297 C-185.71821472 418.95166443 -185.40664429 418.35303589 -185.08563232 417.73626709 C-174.11382367 396.71299942 -162.24910225 376.39202508 -147.86425781 357.5 C-147.18878906 356.60410156 -146.51332031 355.70820313 -145.81738281 354.78515625 C-141.9608675 349.75222686 -137.9156936 344.87000874 -133.87988281 339.98046875 C-132.15302857 337.85536712 -130.48795907 335.7043286 -128.86425781 333.5 C-129.76917969 333.46003906 -130.67410156 333.42007812 -131.60644531 333.37890625 C-144.36885546 332.49784974 -156.31684731 329.17676385 -168.54150391 325.59985352 C-190.76777462 319.23266155 -208.4725472 324.60654072 -227.67675781 336.625 Z " fill="#e8a43f" transform="translate(544.8642578125,93.5)"/>
<path d="M0 0 C0.68320312 -0.02626465 1.36640625 -0.0525293 2.0703125 -0.07958984 C5.48253933 -0.0906354 7.19352677 0.13320457 9.90625 2.2734375 C12.43700088 5.61055508 12.71650707 8.03116196 13.0234375 12.20703125 C12.15123168 15.81952551 10.44172908 17.16683186 7.5 19.375 C4.35192582 20.1622036 1.2337034 20.29347054 -2 20.4375 C-13.99098768 21.31761227 -23.811975 23.98365004 -34.2578125 30.10546875 C-36.5 31.375 -36.5 31.375 -39.5 32.375 C-40.52651373 34.09019747 -40.52651373 34.09019747 -41.5 36.375 C-42.51700847 38.12425458 -43.55373088 39.86043995 -44.59765625 41.59375 C-46.39765189 45.14698815 -46.63702759 48.42995153 -46.625 52.375 C-46.62757813 53.220625 -46.63015625 54.06625 -46.6328125 54.9375 C-46.50745536 57.23817214 -46.08552894 59.15708734 -45.5 61.375 C-44.41146663 69.39904601 -46.76280168 76.25368939 -49.30859375 83.73828125 C-51.40421374 90.13507538 -51.71228065 95.87203047 -51.75 102.5625 C-51.770625 103.45775391 -51.79125 104.35300781 -51.8125 105.27539062 C-51.87259217 115.67884824 -49.17953843 125.37607433 -41.90234375 133.0625 C-36.18913384 138.26815823 -30.44933084 141.18590956 -22.8125 142.375 C-15.29392434 143.61765348 -15.29392434 143.61765348 -12.5 147.375 C-11.46506481 152.01916295 -11.89124102 155.30967179 -14.25 159.4375 C-19.31367637 162.45623014 -23.75526021 162.21305616 -29.5 161.375 C-45.76702268 156.858509 -57.86930394 147.80952639 -66.21875 133.08203125 C-75.27525875 113.94739537 -73.35781711 94.06235923 -67.5 74.375 C-79.8799767 73.37121811 -90.24741308 76.61482132 -99.765625 84.69140625 C-102.49196896 87.33792482 -103.96508139 89.81557626 -105.19140625 93.390625 C-105.43761719 94.10734375 -105.68382812 94.8240625 -105.9375 95.5625 C-106.14246094 96.23667969 -106.34742188 96.91085937 -106.55859375 97.60546875 C-107.82700799 99.98966647 -108.98523412 100.45932148 -111.5 101.375 C-113.859375 101.7890625 -113.859375 101.7890625 -116.25 102 C-117.44882812 102.11214844 -117.44882812 102.11214844 -118.671875 102.2265625 C-119.27515625 102.27554688 -119.8784375 102.32453125 -120.5 102.375 C-123.33675656 96.70148687 -124.29982694 92.80956279 -123.5 86.375 C-118.54525725 72.3125766 -107.44719302 64.86510215 -94.5078125 58.66015625 C-86.36398416 55.1805205 -78.30191398 53.86872438 -69.5 53.375 C-68.56283908 50.56351725 -67.92915596 47.77017949 -67.29614258 44.87915039 C-65.58594404 37.35030562 -63.6530134 31.31367464 -58.5 25.375 C-57.54480469 24.25738281 -57.54480469 24.25738281 -56.5703125 23.1171875 C-41.96287855 7.3325977 -21.00632713 0.50714734 0 0 Z " fill="#e8a43f" transform="translate(373.5,174.625)"/>

<path d="" fill="#939091" transform="translate(0,0)"/>
<path d="" fill="#929294" transform="translate(0,0)"/>
<path d="" fill="#929090" transform="translate(0,0)"/>
<path d="" fill="#909092" transform="translate(0,0)"/>
<path d="" fill="#928F91" transform="translate(0,0)"/>
<path d="" fill="#929192" transform="translate(0,0)"/>
<path d="" fill="#989798" transform="translate(0,0)"/>
<path d="" fill="#959697" transform="translate(0,0)"/>
<path d="" fill="#9D9D9D" transform="translate(0,0)"/>
<path d="" fill="#9A9A9A" transform="translate(0,0)"/>
<path d="" fill="#9B9D9B" transform="translate(0,0)"/>
<path d="" fill="#9C999E" transform="translate(0,0)"/>
<path d="" fill="#9C9B9C" transform="translate(0,0)"/>
<path d="" fill="#A1A2A0" transform="translate(0,0)"/>
<path d="" fill="#A5A4A5" transform="translate(0,0)"/>
<path d="" fill="#A09E9E" transform="translate(0,0)"/>
<path d="" fill="#9EA09F" transform="translate(0,0)"/>
<path d="" fill="#A1A3A2" transform="translate(0,0)"/>
<path d="" fill="#A3A5A5" transform="translate(0,0)"/>
<path d="" fill="#A5A4A5" transform="translate(0,0)"/>
<path d="" fill="#A3A1A3" transform="translate(0,0)"/>
<path d="" fill="#A3A3A5" transform="translate(0,0)"/>
<path d="" fill="#A3A1A2" transform="translate(0,0)"/>
<path d="" fill="#A5A6A7" transform="translate(0,0)"/>
<path d="" fill="#A3A3A3" transform="translate(0,0)"/>
<path d="" fill="#A1A2A2" transform="translate(0,0)"/>
<path d="" fill="#A1A2A1" transform="translate(0,0)"/>
<path d="" fill="#9F9F9F" transform="translate(0,0)"/>
<path d="" fill="#A7A7A7" transform="translate(0,0)"/>
<path d="" fill="#ABAAAC" transform="translate(0,0)"/>
<path d="" fill="#A5A5A5" transform="translate(0,0)"/>
<path d="" fill="#A1A2A3" transform="translate(0,0)"/>
<path d="" fill="#AAAAAB" transform="translate(0,0)"/>
<path d="" fill="#ABACAC" transform="translate(0,0)"/>
<path d="" fill="#A0A09F" transform="translate(0,0)"/>
<path d="" fill="#A5A4A5" transform="translate(0,0)"/>
<path d="" fill="#A2A1A3" transform="translate(0,0)"/>
<path d="" fill="#A6A5A6" transform="translate(0,0)"/>
<path d="" fill="#9F9EA0" transform="translate(0,0)"/>
<path d="" fill="#A5A6A6" transform="translate(0,0)"/>
<path d="" fill="#9E9D9E" transform="translate(0,0)"/>
<path d="" fill="#A6A6A5" transform="translate(0,0)"/>
<path d="" fill="#A3A4A5" transform="translate(0,0)"/>
<path d="" fill="#A1A2A2" transform="translate(0,0)"/>
<path d="" fill="#A5A5A5" transform="translate(0,0)"/>
<path d="" fill="#9E9F9F" transform="translate(0,0)"/>
<path d="" fill="#A0A1A1" transform="translate(0,0)"/>
<path d="" fill="#A4A5A5" transform="translate(0,0)"/>
<path d="" fill="#A6A7A7" transform="translate(0,0)"/>
<path d="" fill="#A4A4A5" transform="translate(0,0)"/>
<path d="" fill="#A7A8A8" transform="translate(0,0)"/>
<path d="" fill="#A3A3A4" transform="translate(0,0)"/>
<path d="" fill="#A5A5A6" transform="translate(0,0)"/>
<path d="" fill="#A8A8A8" transform="translate(0,0)"/>
<path d="" fill="#A7A5A5" transform="translate(0,0)"/>
<path d="" fill="#A1A3A5" transform="translate(0,0)"/>
<path d="" fill="#A7A6A6" transform="translate(0,0)"/>
<path d="" fill="#A4A5A6" transform="translate(0,0)"/>
<path d="" fill="#A2A6A5" transform="translate(0,0)"/>
<path d="" fill="#A5A5A6" transform="translate(0,0)"/>
<path d="" fill="#AAAAA9" transform="translate(0,0)"/>
<path d="" fill="#A2A0A0" transform="translate(0,0)"/>
<path d="" fill="#A0A0A1" transform="translate(0,0)"/>
<path d="" fill="#A8A7A5" transform="translate(0,0)"/>
<path d="" fill="#A9A8A7" transform="translate(0,0)"/>
<path d="" fill="#A8AAA8" transform="translate(0,0)"/>
<path d="" fill="#A2A0A0" transform="translate(0,0)"/>
<path d="" fill="#AEAEAF" transform="translate(0,0)"/>
<path d="" fill="#ABA9A9" transform="translate(0,0)"/>
<path d="" fill="#A5A4A6" transform="translate(0,0)"/>
<path d="" fill="#A4A6A5" transform="translate(0,0)"/>
<path d="" fill="#A8A8A8" transform="translate(0,0)"/>
<path d="" fill="#A2A3A3" transform="translate(0,0)"/>
<path d="" fill="#A6A7A7" transform="translate(0,0)"/>
<path d="" fill="#A9A8AA" transform="translate(0,0)"/>
<path d="" fill="#A8A8A7" transform="translate(0,0)"/>
<path d="" fill="#AAA9AB" transform="translate(0,0)"/>
<path d="" fill="#A8AAAA" transform="translate(0,0)"/>
<path d="" fill="#A5A7A5" transform="translate(0,0)"/>
<path d="" fill="#A6A6A6" transform="translate(0,0)"/>
<path d="" fill="#A0A1A2" transform="translate(0,0)"/>
<path d="" fill="#A5A5A6" transform="translate(0,0)"/>
<path d="" fill="#A0A2A1" transform="translate(0,0)"/>
<path d="" fill="#A5A5A5" transform="translate(0,0)"/>
<path d="" fill="#A4A3A5" transform="translate(0,0)"/>
<path d="" fill="#A7A7A7" transform="translate(0,0)"/>
<path d="" fill="#A4A4A5" transform="translate(0,0)"/>
<path d="" fill="#A5A5A5" transform="translate(0,0)"/>
<path d="" fill="#A2A5A4" transform="translate(0,0)"/>
<path d="" fill="#A5A5A4" transform="translate(0,0)"/>
<path d="" fill="#A2A3A4" transform="translate(0,0)"/>
<path d="" fill="#A0A2A1" transform="translate(0,0)"/>
<path d="" fill="#A7A9A9" transform="translate(0,0)"/>
<path d="" fill="#A3A5A3" transform="translate(0,0)"/>
<path d="" fill="#A5A7A5" transform="translate(0,0)"/>
<path d="" fill="#A4A5A5" transform="translate(0,0)"/>
<path d="" fill="#A8AAA9" transform="translate(0,0)"/>
<path d="" fill="#A2A3A2" transform="translate(0,0)"/>
<path d="" fill="#A5A5A4" transform="translate(0,0)"/>
<path d="" fill="#A4A5A5" transform="translate(0,0)"/>
<path d="" fill="#A1A0A4" transform="translate(0,0)"/>
<path d="" fill="#A4A4A4" transform="translate(0,0)"/>
<path d="" fill="#ABAAAC" transform="translate(0,0)"/>
<path d="" fill="#A5A6A5" transform="translate(0,0)"/>
<path d="" fill="#A2A1A3" transform="translate(0,0)"/>
<path d="" fill="#A2A2A3" transform="translate(0,0)"/>
<path d="" fill="#A1A0A3" transform="translate(0,0)"/>
<path d="" fill="#A6A6A6" transform="translate(0,0)"/>
<path d="" fill="#9D9D9D" transform="translate(0,0)"/>
<path d="" fill="#A6A7A7" transform="translate(0,0)"/>
<path d="" fill="#A9A8A8" transform="translate(0,0)"/>
<path d="" fill="#B0AEB0" transform="translate(0,0)"/>
<path d="" fill="#9F9FA0" transform="translate(0,0)"/>
<path d="" fill="#9C9E9E" transform="translate(0,0)"/>
<path d="" fill="#AAABAD" transform="translate(0,0)"/>
<path d="" fill="#A6A9AB" transform="translate(0,0)"/>
<path d="" fill="#9E9F9E" transform="translate(0,0)"/>
<path d="" fill="#A7A9A9" transform="translate(0,0)"/>
<path d="" fill="#A6A6A5" transform="translate(0,0)"/>
<path d="" fill="#A6A7A8" transform="translate(0,0)"/>
<path d="" fill="#A6A5A6" transform="translate(0,0)"/>
<path d="" fill="#A5A4A7" transform="translate(0,0)"/>
<path d="" fill="#9FA0A0" transform="translate(0,0)"/>
<path d="" fill="#A4A2A4" transform="translate(0,0)"/>
<path d="" fill="#A6A5A6" transform="translate(0,0)"/>
<path d="" fill="#ACACAB" transform="translate(0,0)"/>
<path d="" fill="#A4A2A2" transform="translate(0,0)"/>
<path d="" fill="#A6A6A6" transform="translate(0,0)"/>
<path d="" fill="#A4A7A8" transform="translate(0,0)"/>
<path d="" fill="#A0A3A3" transform="translate(0,0)"/>
<path d="" fill="#A6A6A5" transform="translate(0,0)"/>
<path d="" fill="#ABADAC" transform="translate(0,0)"/>
<path d="" fill="#A9ABAA" transform="translate(0,0)"/>
<path d="" fill="#A3A2A0" transform="translate(0,0)"/>
<path d="" fill="#AAAAAC" transform="translate(0,0)"/>
<path d="" fill="#A9AAA9" transform="translate(0,0)"/>
<path d="" fill="#A6A6A6" transform="translate(0,0)"/>
<path d="" fill="#A4A3A3" transform="translate(0,0)"/>
<path d="" fill="#A5A5A7" transform="translate(0,0)"/>
<path d="" fill="#A2A4A3" transform="translate(0,0)"/>
<path d="" fill="#A4A5A6" transform="translate(0,0)"/>
<path d="" fill="#A8A9A8" transform="translate(0,0)"/>
<path d="" fill="#A0A1A0" transform="translate(0,0)"/>
<path d="" fill="#AAABAA" transform="translate(0,0)"/>
<path d="" fill="#A5A5A6" transform="translate(0,0)"/>
<path d="" fill="#A4A4A4" transform="translate(0,0)"/>
<path d="" fill="#ADACAD" transform="translate(0,0)"/>
<path d="" fill="#A4A3A3" transform="translate(0,0)"/>
<path d="" fill="#A1A1A1" transform="translate(0,0)"/>
<path d="" fill="#A2A2A2" transform="translate(0,0)"/>
<path d="" fill="#A4A4A4" transform="translate(0,0)"/>
<path d="" fill="#A0A2A3" transform="translate(0,0)"/>
<path d="" fill="#A3A4A4" transform="translate(0,0)"/>
<path d="" fill="#A9AAA9" transform="translate(0,0)"/>
<path d="" fill="#A4A2A2" transform="translate(0,0)"/>
<path d="" fill="#A7A8A8" transform="translate(0,0)"/>
<path d="" fill="#AAABAA" transform="translate(0,0)"/>
<path d="" fill="#A1A1A2" transform="translate(0,0)"/>
<path d="" fill="#A4A5A5" transform="translate(0,0)"/>
<path d="" fill="#A4A2A4" transform="translate(0,0)"/>
<path d="" fill="#ABAAAB" transform="translate(0,0)"/>
<path d="" fill="#9B9D9D" transform="translate(0,0)"/>
<path d="" fill="#A4A5A7" transform="translate(0,0)"/>
<path d="" fill="#A7ABAC" transform="translate(0,0)"/>
<path d="" fill="#A3A2A4" transform="translate(0,0)"/>
<path d="" fill="#A7A8A7" transform="translate(0,0)"/>
<path d="" fill="#A5A4A5" transform="translate(0,0)"/>
<path d="" fill="#A5A6A6" transform="translate(0,0)"/>
<path d="" fill="#B0AFB1" transform="translate(0,0)"/>
<path d="" fill="#ACADAE" transform="translate(0,0)"/>
<path d="" fill="#A6A7A5" transform="translate(0,0)"/>
<path d="" fill="#A8A9AA" transform="translate(0,0)"/>
<path d="" fill="#A3A3A3" transform="translate(0,0)"/>
<path d="" fill="#ACACAA" transform="translate(0,0)"/>
<path d="" fill="#A8ADAA" transform="translate(0,0)"/>
<path d="" fill="#A8A9AA" transform="translate(0,0)"/>
<path d="" fill="#ABACAB" transform="translate(0,0)"/>
<path d="" fill="#ABACAC" transform="translate(0,0)"/>
<path d="" fill="#AAADAB" transform="translate(0,0)"/>
<path d="" fill="#A2A3A5" transform="translate(0,0)"/>
<path d="" fill="#AEADAC" transform="translate(0,0)"/>
<path d="" fill="#A5A5A3" transform="translate(0,0)"/>
<path d="" fill="#ADADAD" transform="translate(0,0)"/>
<path d="" fill="#A9AAAA" transform="translate(0,0)"/>
<path d="" fill="#AEAEAD" transform="translate(0,0)"/>
<path d="" fill="#A09FA1" transform="translate(0,0)"/>
<path d="" fill="#A9ACAB" transform="translate(0,0)"/>
<path d="" fill="#ACABAF" transform="translate(0,0)"/>
<path d="" fill="#A8A9A9" transform="translate(0,0)"/>
<path d="" fill="#AAA9A9" transform="translate(0,0)"/>
<path d="" fill="#A8A8A9" transform="translate(0,0)"/>
<path d="" fill="#A4A5A7" transform="translate(0,0)"/>
<path d="" fill="#ADAEB0" transform="translate(0,0)"/>
<path d="" fill="#A8A8A9" transform="translate(0,0)"/>
<path d="" fill="#A6A7A9" transform="translate(0,0)"/>
<path d="" fill="#A5A7A7" transform="translate(0,0)"/>
<path d="" fill="#A2A2A2" transform="translate(0,0)"/>
<path d="" fill="#A9ABA7" transform="translate(0,0)"/>
<path d="" fill="#A9ABAB" transform="translate(0,0)"/>
<path d="" fill="#A9AAAB" transform="translate(0,0)"/>
<path d="" fill="#ACAEB0" transform="translate(0,0)"/>
<path d="" fill="#A5A6A5" transform="translate(0,0)"/>
<path d="" fill="#A6A6A8" transform="translate(0,0)"/>
<path d="" fill="#A6A5A7" transform="translate(0,0)"/>
<path d="" fill="#A5A4A3" transform="translate(0,0)"/>
<path d="" fill="#A7A8AA" transform="translate(0,0)"/>
<path d="" fill="#A7A9A7" transform="translate(0,0)"/>
<path d="" fill="#A7A9AB" transform="translate(0,0)"/>
<path d="" fill="#A6A7A6" transform="translate(0,0)"/>
<path d="" fill="#ABA8A9" transform="translate(0,0)"/>
<path d="" fill="#A7A7A9" transform="translate(0,0)"/>
<path d="" fill="#A7A7A7" transform="translate(0,0)"/>
<path d="" fill="#A6A7A8" transform="translate(0,0)"/>
<path d="" fill="#A9A9AB" transform="translate(0,0)"/>
<path d="" fill="#AAABAB" transform="translate(0,0)"/>
<path d="" fill="#A6A9A7" transform="translate(0,0)"/>
<path d="" fill="#A9A8A8" transform="translate(0,0)"/>
<path d="" fill="#A3A3A3" transform="translate(0,0)"/>
<path d="" fill="#A7A8A8" transform="translate(0,0)"/>
<path d="" fill="#A5A6A6" transform="translate(0,0)"/>
<path d="" fill="#A7A7A7" transform="translate(0,0)"/>
<path d="" fill="#A8A6A7" transform="translate(0,0)"/>
<path d="" fill="#A5A6A5" transform="translate(0,0)"/>
<path d="" fill="#A5A5A5" transform="translate(0,0)"/>
<path d="" fill="#A5A6A5" transform="translate(0,0)"/>
<path d="" fill="#A6A6A7" transform="translate(0,0)"/>
<path d="" fill="#A9AAA9" transform="translate(0,0)"/>
<path d="" fill="#A7A7A8" transform="translate(0,0)"/>
<path d="" fill="#A5A6A6" transform="translate(0,0)"/>
<path d="" fill="#A6A7A8" transform="translate(0,0)"/>
<path d="" fill="#A7A7A7" transform="translate(0,0)"/>
<path d="" fill="#A8A8AA" transform="translate(0,0)"/>
<path d="" fill="#ABA8A9" transform="translate(0,0)"/>
<path d="" fill="#AAA9A9" transform="translate(0,0)"/>
<path d="" fill="#A7A8A8" transform="translate(0,0)"/>
<path d="" fill="#A8A8A7" transform="translate(0,0)"/>
<path d="" fill="#B0B1B1" transform="translate(0,0)"/>
<path d="" fill="#A5A6A5" transform="translate(0,0)"/>
<path d="" fill="#A8A7A9" transform="translate(0,0)"/>
<path d="" fill="#A6A8AA" transform="translate(0,0)"/>
<path d="" fill="#A7A7A8" transform="translate(0,0)"/>
<path d="" fill="#A9A8A9" transform="translate(0,0)"/>
<path d="" fill="#A9A9AA" transform="translate(0,0)"/>
<path d="" fill="#A9A9A9" transform="translate(0,0)"/>
<path d="" fill="#A9AAA8" transform="translate(0,0)"/>
<path d="" fill="#A5A7A6" transform="translate(0,0)"/>
<path d="" fill="#A6A6A6" transform="translate(0,0)"/>
<path d="" fill="#A9AAAC" transform="translate(0,0)"/>
<path d="" fill="#A6A8A6" transform="translate(0,0)"/>
<path d="" fill="#A6A7A8" transform="translate(0,0)"/>
<path d="" fill="#A5A6A4" transform="translate(0,0)"/>
<path d="" fill="#A7A5A7" transform="translate(0,0)"/>
<path d="" fill="#A7A8A7" transform="translate(0,0)"/>
<path d="" fill="#A6A5A5" transform="translate(0,0)"/>
<path d="" fill="#A7A6A7" transform="translate(0,0)"/>
<path d="" fill="#A9A8A8" transform="translate(0,0)"/>
<path d="" fill="#A8A8A9" transform="translate(0,0)"/>
<path d="" fill="#A7A7A7" transform="translate(0,0)"/>
<path d="" fill="#A7A8A7" transform="translate(0,0)"/>
<path d="" fill="#A7A8A8" transform="translate(0,0)"/>
<path d="" fill="#A6A6A5" transform="translate(0,0)"/>
<path d="" fill="#A8A7A7" transform="translate(0,0)"/>
<path d="" fill="#A8A9A7" transform="translate(0,0)"/>
<path d="" fill="#A7A8A6" transform="translate(0,0)"/>
<path d="" fill="#A5A5A8" transform="translate(0,0)"/>
<path d="" fill="#ACABAC" transform="translate(0,0)"/>
<path d="" fill="#A5A5A4" transform="translate(0,0)"/>
<path d="" fill="#A5A6A6" transform="translate(0,0)"/>
<path d="" fill="#A7A8A9" transform="translate(0,0)"/>
<path d="" fill="#A3A4A6" transform="translate(0,0)"/>
<path d="" fill="#ABADAB" transform="translate(0,0)"/>
<path d="" fill="#A7A8A8" transform="translate(0,0)"/>
<path d="" fill="#A7A8A8" transform="translate(0,0)"/>
<path d="" fill="#AAABAC" transform="translate(0,0)"/>
<path d="" fill="#A8A9A7" transform="translate(0,0)"/>
<path d="" fill="#A5A6A5" transform="translate(0,0)"/>
<path d="" fill="#A8A9A9" transform="translate(0,0)"/>
<path d="" fill="#A9A9AA" transform="translate(0,0)"/>
<path d="" fill="#A8A8A7" transform="translate(0,0)"/>
<path d="" fill="#A4A5A5" transform="translate(0,0)"/>
<path d="" fill="#A9A9AA" transform="translate(0,0)"/>
<path d="" fill="#A8A8A8" transform="translate(0,0)"/>
<path d="" fill="#A8A7A8" transform="translate(0,0)"/>
<path d="" fill="#AAAAAB" transform="translate(0,0)"/>
<path d="" fill="#A4A4A5" transform="translate(0,0)"/>
<path d="" fill="#A8AAA9" transform="translate(0,0)"/>
<path d="" fill="#A6A7A7" transform="translate(0,0)"/>
<path d="" fill="#A4A5A4" transform="translate(0,0)"/>
<path d="" fill="#AAACAB" transform="translate(0,0)"/>
<path d="" fill="#A6AAAB" transform="translate(0,0)"/>
<path d="" fill="#ABACAC" transform="translate(0,0)"/>
<path d="" fill="#ABABAA" transform="translate(0,0)"/>
<path d="" fill="#A7A6A9" transform="translate(0,0)"/>
<path d="" fill="#A1A3A4" transform="translate(0,0)"/>
<path d="" fill="#ACACAD" transform="translate(0,0)"/>
<path d="" fill="#A1A3A2" transform="translate(0,0)"/>
<path d="" fill="#ACACAB" transform="translate(0,0)"/>
<path d="" fill="#A6A6A5" transform="translate(0,0)"/>
<path d="" fill="#A5A6A6" transform="translate(0,0)"/>
<path d="" fill="#A7A6A6" transform="translate(0,0)"/>
<path d="" fill="#A7AAAB" transform="translate(0,0)"/>
<path d="" fill="#A6A9A8" transform="translate(0,0)"/>
<path d="" fill="#AAAAAA" transform="translate(0,0)"/>
<path d="" fill="#A7A8A7" transform="translate(0,0)"/>
<path d="" fill="#A4A4A4" transform="translate(0,0)"/>
<path d="" fill="#A7AAA9" transform="translate(0,0)"/>
<path d="" fill="#A8A7A8" transform="translate(0,0)"/>
<path d="" fill="#A7A8A8" transform="translate(0,0)"/>
<path d="" fill="#A8A7A9" transform="translate(0,0)"/>
<path d="" fill="#A8A9AB" transform="translate(0,0)"/>
<path d="" fill="#A5A5A5" transform="translate(0,0)"/>
<path d="" fill="#A7A9A9" transform="translate(0,0)"/>
<path d="" fill="#A9A8A8" transform="translate(0,0)"/>
<path d="" fill="#A7A8A8" transform="translate(0,0)"/>
<path d="" fill="#A8A7A7" transform="translate(0,0)"/>
<path d="" fill="#A7A6A7" transform="translate(0,0)"/>
<path d="" fill="#A8A9AA" transform="translate(0,0)"/>
<path d="" fill="#A4A3A4" transform="translate(0,0)"/>
<path d="" fill="#A8A7A6" transform="translate(0,0)"/>
<path d="" fill="#A6A9A8" transform="translate(0,0)"/>
<path d="" fill="#A0A2A1" transform="translate(0,0)"/>
<path d="" fill="#ACAFAE" transform="translate(0,0)"/>
<path d="" fill="#AEAEB0" transform="translate(0,0)"/>
<path d="" fill="#A7A7A8" transform="translate(0,0)"/>
<path d="" fill="#A7A8A8" transform="translate(0,0)"/>
<path d="" fill="#A5A6A6" transform="translate(0,0)"/>
<path d="" fill="#A5A8A8" transform="translate(0,0)"/>
<path d="" fill="#A9AAA8" transform="translate(0,0)"/>
<path d="" fill="#ABAAAB" transform="translate(0,0)"/>
<path d="" fill="#A7A8A7" transform="translate(0,0)"/>
<path d="" fill="#B3B3B5" transform="translate(0,0)"/>
<path d="" fill="#A6A6A6" transform="translate(0,0)"/>
<path d="" fill="#AAA9AA" transform="translate(0,0)"/>
<path d="" fill="#A9A9A8" transform="translate(0,0)"/>
<path d="" fill="#A6A6A6" transform="translate(0,0)"/>
<path d="" fill="#A7A7A7" transform="translate(0,0)"/>
<path d="" fill="#A5A6A6" transform="translate(0,0)"/>
<path d="" fill="#ADADAE" transform="translate(0,0)"/>
<path d="" fill="#A7A8A7" transform="translate(0,0)"/>
<path d="" fill="#AAA9AB" transform="translate(0,0)"/>
<path d="" fill="#A8A9A7" transform="translate(0,0)"/>
<path d="" fill="#A6A6A7" transform="translate(0,0)"/>
<path d="" fill="#AAABAA" transform="translate(0,0)"/>
<path d="" fill="#A9A9AA" transform="translate(0,0)"/>
<path d="" fill="#A7A8A8" transform="translate(0,0)"/>
<path d="" fill="#A9A8A9" transform="translate(0,0)"/>
<path d="" fill="#A7A6A7" transform="translate(0,0)"/>
<path d="" fill="#AAA9AB" transform="translate(0,0)"/>
<path d="" fill="#ABACAC" transform="translate(0,0)"/>
<path d="" fill="#A2A3A6" transform="translate(0,0)"/>
<path d="" fill="#ACABAB" transform="translate(0,0)"/>
<path d="" fill="#A4A4A5" transform="translate(0,0)"/>
<path d="" fill="#A7AAAB" transform="translate(0,0)"/>
<path d="" fill="#A6A6A7" transform="translate(0,0)"/>
<path d="" fill="#A8ABAD" transform="translate(0,0)"/>
<path d="" fill="#ABAAAC" transform="translate(0,0)"/>
<path d="" fill="#A8A8A7" transform="translate(0,0)"/>
<path d="" fill="#AAA8AA" transform="translate(0,0)"/>
<path d="" fill="#A8A9A7" transform="translate(0,0)"/>
<path d="" fill="#A5A5A6" transform="translate(0,0)"/>
<path d="" fill="#AAABAA" transform="translate(0,0)"/>
<path d="" fill="#A6A7A9" transform="translate(0,0)"/>
<path d="" fill="#A9A7A9" transform="translate(0,0)"/>
<path d="" fill="#A6A7A8" transform="translate(0,0)"/>
<path d="" fill="#A5A6A7" transform="translate(0,0)"/>
<path d="" fill="#A7A7A6" transform="translate(0,0)"/>
<path d="" fill="#A7A8A7" transform="translate(0,0)"/>
<path d="" fill="#A6A7A8" transform="translate(0,0)"/>
<path d="" fill="#A6A7A7" transform="translate(0,0)"/>
<path d="" fill="#A5A6A5" transform="translate(0,0)"/>
<path d="" fill="#A3A5A4" transform="translate(0,0)"/>
<path d="" fill="#AAA9AA" transform="translate(0,0)"/>
<path d="" fill="#A8A7A8" transform="translate(0,0)"/>
<path d="" fill="#A9ACAC" transform="translate(0,0)"/>
<path d="" fill="#A4A5A5" transform="translate(0,0)"/>
<path d="" fill="#A8A8A9" transform="translate(0,0)"/>
<path d="" fill="#A5A7A7" transform="translate(0,0)"/>
<path d="" fill="#AAACAB" transform="translate(0,0)"/>
<path d="" fill="#A5A6A7" transform="translate(0,0)"/>
<path d="" fill="#A9AAAA" transform="translate(0,0)"/>
<path d="" fill="#A8A8A9" transform="translate(0,0)"/>
<path d="" fill="#A6A8AA" transform="translate(0,0)"/>
<path d="" fill="#AAAAA9" transform="translate(0,0)"/>
<path d="" fill="#A7A8A9" transform="translate(0,0)"/>
<path d="" fill="#ACAEAF" transform="translate(0,0)"/>
<path d="" fill="#A7A8AA" transform="translate(0,0)"/>
<path d="" fill="#A7A7A7" transform="translate(0,0)"/>
<path d="" fill="#A5A7A6" transform="translate(0,0)"/>
<path d="" fill="#A7A9A9" transform="translate(0,0)"/>
<path d="" fill="#A7AAA9" transform="translate(0,0)"/>
<path d="" fill="#A6A7A8" transform="translate(0,0)"/>
<path d="" fill="#A8A7A9" transform="translate(0,0)"/>
<path d="" fill="#A8A8AA" transform="translate(0,0)"/>
<path d="" fill="#A7A5A6" transform="translate(0,0)"/>
<path d="" fill="#AAABA9" transform="translate(0,0)"/>
<path d="" fill="#A5A7A5" transform="translate(0,0)"/>
<path d="" fill="#A7A6A7" transform="translate(0,0)"/>
<path d="" fill="#A9A9AA" transform="translate(0,0)"/>
<path d="" fill="#A8A7A8" transform="translate(0,0)"/>
<path d="" fill="#A6A6A7" transform="translate(0,0)"/>
<path d="" fill="#ACAFAC" transform="translate(0,0)"/>
<path d="" fill="#A7A8A8" transform="translate(0,0)"/>
<path d="" fill="#A9A9A9" transform="translate(0,0)"/>
<path d="" fill="#A5A7A8" transform="translate(0,0)"/>
<path d="" fill="#A7A7A8" transform="translate(0,0)"/>
<path d="" fill="#A8A8A8" transform="translate(0,0)"/>
<path d="" fill="#A9AAAA" transform="translate(0,0)"/>
<path d="" fill="#A5A5A6" transform="translate(0,0)"/>
<path d="" fill="#A5A6A7" transform="translate(0,0)"/>
<path d="" fill="#A3A4A5" transform="translate(0,0)"/>
<path d="" fill="#AAAAA9" transform="translate(0,0)"/>
<path d="" fill="#A9A7A8" transform="translate(0,0)"/>
<path d="" fill="#A3A5A5" transform="translate(0,0)"/>
<path d="" fill="#A1A1A3" transform="translate(0,0)"/>
<path d="" fill="#A5A6A7" transform="translate(0,0)"/>
<path d="" fill="#A9A8AA" transform="translate(0,0)"/>
<path d="" fill="#A4A5A7" transform="translate(0,0)"/>
<path d="" fill="#A4A3A5" transform="translate(0,0)"/>
<path d="" fill="#A6A8A8" transform="translate(0,0)"/>
<path d="" fill="#ABAAAB" transform="translate(0,0)"/>
<path d="" fill="#A6A3A5" transform="translate(0,0)"/>
<path d="" fill="#A8A6A6" transform="translate(0,0)"/>
<path d="" fill="#A3A5A4" transform="translate(0,0)"/>
<path d="" fill="#A6A8A7" transform="translate(0,0)"/>
<path d="" fill="#A8A8A7" transform="translate(0,0)"/>
<path d="" fill="#A8A8A8" transform="translate(0,0)"/>
<path d="" fill="#A9A9AB" transform="translate(0,0)"/>
<path d="" fill="#A7A7A6" transform="translate(0,0)"/>
<path d="" fill="#A8A9A8" transform="translate(0,0)"/>
<path d="" fill="#A9A8AA" transform="translate(0,0)"/>
<path d="" fill="#A5A9A8" transform="translate(0,0)"/>
<path d="" fill="#A9A5A6" transform="translate(0,0)"/>
<path d="" fill="#A6A6A6" transform="translate(0,0)"/>
<path d="" fill="#A6A7A9" transform="translate(0,0)"/>
<path d="" fill="#A8AAA8" transform="translate(0,0)"/>
<path d="" fill="#ABABAA" transform="translate(0,0)"/>
<path d="" fill="#A3A5A4" transform="translate(0,0)"/>
<path d="" fill="#A5A5A7" transform="translate(0,0)"/>
<path d="" fill="#A4A4A3" transform="translate(0,0)"/>
<path d="" fill="#A8A9A9" transform="translate(0,0)"/>
<path d="" fill="#AAAAAC" transform="translate(0,0)"/>
<path d="" fill="#AAA9A9" transform="translate(0,0)"/>
<path d="" fill="#A5A5A6" transform="translate(0,0)"/>
<path d="" fill="#A7A8A8" transform="translate(0,0)"/>
<path d="" fill="#A8A7A9" transform="translate(0,0)"/>
<path d="" fill="#A0A1A1" transform="translate(0,0)"/>
<path d="" fill="#A9A8A8" transform="translate(0,0)"/>
<path d="" fill="#A9A8AB" transform="translate(0,0)"/>
<path d="" fill="#A5A5A4" transform="translate(0,0)"/>
<path d="" fill="#A3A3A2" transform="translate(0,0)"/>
<path d="" fill="#A8A7A9" transform="translate(0,0)"/>
<path d="" fill="#ADABAE" transform="translate(0,0)"/>
<path d="" fill="#A7A8A8" transform="translate(0,0)"/>
<path d="" fill="#A2A5A8" transform="translate(0,0)"/>
<path d="" fill="#A6A4A6" transform="translate(0,0)"/>
<path d="" fill="#A8AAA9" transform="translate(0,0)"/>
<path d="" fill="#A6A6A8" transform="translate(0,0)"/>
<path d="" fill="#A3A4A5" transform="translate(0,0)"/>
<path d="" fill="#ACACAF" transform="translate(0,0)"/>
<path d="" fill="#A6A7A5" transform="translate(0,0)"/>
<path d="" fill="#A5A7A6" transform="translate(0,0)"/>
<path d="" fill="#AAACAA" transform="translate(0,0)"/>
<path d="" fill="#A5A5A7" transform="translate(0,0)"/>
<path d="" fill="#ABA9AD" transform="translate(0,0)"/>
<path d="" fill="#A9A7A6" transform="translate(0,0)"/>
<path d="" fill="#A6A6A6" transform="translate(0,0)"/>
<path d="" fill="#A6A7A6" transform="translate(0,0)"/>
<path d="" fill="#A2A3A2" transform="translate(0,0)"/>
<path d="" fill="#A6A8A7" transform="translate(0,0)"/>
<path d="" fill="#A4A4A3" transform="translate(0,0)"/>
<path d="" fill="#A6A5A6" transform="translate(0,0)"/>
<path d="" fill="#A8A8A8" transform="translate(0,0)"/>
<path d="" fill="#ACACAC" transform="translate(0,0)"/>
<path d="" fill="#A4A2A3" transform="translate(0,0)"/>
<path d="" fill="#A6A6A7" transform="translate(0,0)"/>
<path d="" fill="#A9A8A8" transform="translate(0,0)"/>
<path d="" fill="#A8A6A8" transform="translate(0,0)"/>
<path d="" fill="#A7A8A8" transform="translate(0,0)"/>
<path d="" fill="#A4A5A6" transform="translate(0,0)"/>
<path d="" fill="#A7A6A8" transform="translate(0,0)"/>
<path d="" fill="#A9A8A9" transform="translate(0,0)"/>
<path d="" fill="#A8A8A9" transform="translate(0,0)"/>
<path d="" fill="#A6A6A7" transform="translate(0,0)"/>
<path d="" fill="#A5A6A7" transform="translate(0,0)"/>
<path d="" fill="#A6A7A8" transform="translate(0,0)"/>
<path d="" fill="#A2A4A5" transform="translate(0,0)"/>
<path d="" fill="#A6A9A9" transform="translate(0,0)"/>
<path d="" fill="#A5A7A8" transform="translate(0,0)"/>
<path d="" fill="#A6A9AA" transform="translate(0,0)"/>
<path d="" fill="#A9A9AA" transform="translate(0,0)"/>
<path d="" fill="#A8A8AA" transform="translate(0,0)"/>
<path d="" fill="#A9A8A9" transform="translate(0,0)"/>
<path d="" fill="#AAA9AB" transform="translate(0,0)"/>
<path d="" fill="#A1A1A1" transform="translate(0,0)"/>
<path d="" fill="#A2A1A2" transform="translate(0,0)"/>
<path d="" fill="#9FA0A0" transform="translate(0,0)"/>
<path d="" fill="#A4A5A6" transform="translate(0,0)"/>
<path d="" fill="#A5A6A5" transform="translate(0,0)"/>
<path d="" fill="#A5A5A6" transform="translate(0,0)"/>
<path d="" fill="#A5A4A3" transform="translate(0,0)"/>
<path d="" fill="#A4A1A3" transform="translate(0,0)"/>
<path d="" fill="#A6A7A6" transform="translate(0,0)"/>
<path d="" fill="#A6A5A5" transform="translate(0,0)"/>
<path d="" fill="#A6A5A5" transform="translate(0,0)"/>
<path d="" fill="#ABA9A9" transform="translate(0,0)"/>
<path d="" fill="#A7A6A9" transform="translate(0,0)"/>
<path d="" fill="#A7A6A8" transform="translate(0,0)"/>
<path d="" fill="#A8A7A9" transform="translate(0,0)"/>
<path d="" fill="#A4A3A5" transform="translate(0,0)"/>
<path d="" fill="#A3A3A2" transform="translate(0,0)"/>
<path d="" fill="#ABACAD" transform="translate(0,0)"/>
<path d="" fill="#A5A6A6" transform="translate(0,0)"/>
<path d="" fill="#A3A5A6" transform="translate(0,0)"/>
<path d="" fill="#A9A8A7" transform="translate(0,0)"/>
<path d="" fill="#A8A8A7" transform="translate(0,0)"/>
<path d="" fill="#A6A6A7" transform="translate(0,0)"/>
<path d="" fill="#A8A8A8" transform="translate(0,0)"/>
<path d="" fill="#A8A6A7" transform="translate(0,0)"/>
<path d="" fill="#A6A3A4" transform="translate(0,0)"/>
<path d="" fill="#ABA9AA" transform="translate(0,0)"/>
<path d="" fill="#A9A7A8" transform="translate(0,0)"/>
<path d="" fill="#ACADAD" transform="translate(0,0)"/>
<path d="" fill="#A3A4A5" transform="translate(0,0)"/>
<path d="" fill="#A6A6A6" transform="translate(0,0)"/>
<path d="" fill="#A6A8A7" transform="translate(0,0)"/>
<path d="" fill="#A6A7A6" transform="translate(0,0)"/>
<path d="" fill="#A3A4A3" transform="translate(0,0)"/>
<path d="" fill="#ACADAC" transform="translate(0,0)"/>
<path d="" fill="#A5A4A6" transform="translate(0,0)"/>
<path d="" fill="#A8A8A6" transform="translate(0,0)"/>
<path d="" fill="#A7A7A8" transform="translate(0,0)"/>
<path d="" fill="#A9A7A7" transform="translate(0,0)"/>
<path d="" fill="#A4A5A4" transform="translate(0,0)"/>
<path d="" fill="#A5A7A6" transform="translate(0,0)"/>
<path d="" fill="#A0A2A5" transform="translate(0,0)"/>
<path d="" fill="#A4A4A6" transform="translate(0,0)"/>
<path d="" fill="#A4A5A6" transform="translate(0,0)"/>
<path d="" fill="#AEAEAD" transform="translate(0,0)"/>
<path d="" fill="#A5A6A6" transform="translate(0,0)"/>
<path d="" fill="#ABABAA" transform="translate(0,0)"/>
<path d="" fill="#A8A5AA" transform="translate(0,0)"/>
<path d="" fill="#A8A8A8" transform="translate(0,0)"/>
<path d="" fill="#A7A8A9" transform="translate(0,0)"/>
<path d="" fill="#A5A6A7" transform="translate(0,0)"/>
<path d="" fill="#A4A6A7" transform="translate(0,0)"/>
<path d="" fill="#A5A5A4" transform="translate(0,0)"/>
<path d="" fill="#A4A6A5" transform="translate(0,0)"/>
<path d="" fill="#ABADAD" transform="translate(0,0)"/>
<path d="" fill="#A9AAAA" transform="translate(0,0)"/>
<path d="" fill="#9FA3A4" transform="translate(0,0)"/>
<path d="" fill="#ACADAE" transform="translate(0,0)"/>
<path d="" fill="#ABACAB" transform="translate(0,0)"/>
<path d="" fill="#A6A7A7" transform="translate(0,0)"/>
<path d="" fill="#A9A8AA" transform="translate(0,0)"/>
<path d="" fill="#A9A9AA" transform="translate(0,0)"/>
<path d="" fill="#A9A8AA" transform="translate(0,0)"/>
<path d="" fill="#A7A5A6" transform="translate(0,0)"/>
<path d="" fill="#A19F9F" transform="translate(0,0)"/>
<path d="" fill="#A6A8A7" transform="translate(0,0)"/>
<path d="" fill="#9F9EA2" transform="translate(0,0)"/>
<path d="" fill="#A7A6A7" transform="translate(0,0)"/>
<path d="" fill="#A6A7A7" transform="translate(0,0)"/>
<path d="" fill="#A5A5A8" transform="translate(0,0)"/>
<path d="" fill="#A8A8A9" transform="translate(0,0)"/>
<path d="" fill="#A9A9AC" transform="translate(0,0)"/>
<path d="" fill="#A6A5A5" transform="translate(0,0)"/>
<path d="" fill="#A2A1A4" transform="translate(0,0)"/>
<path d="" fill="#A5A9A8" transform="translate(0,0)"/>
<path d="" fill="#ACAAAA" transform="translate(0,0)"/>
<path d="" fill="#A0A2A1" transform="translate(0,0)"/>
<path d="" fill="#AAA8AC" transform="translate(0,0)"/>
<path d="" fill="#A4A5A3" transform="translate(0,0)"/>
<path d="" fill="#AAAAA9" transform="translate(0,0)"/>
<path d="" fill="#A7A9A7" transform="translate(0,0)"/>
<path d="" fill="#AAAAAB" transform="translate(0,0)"/>
<path d="" fill="#A8A7A6" transform="translate(0,0)"/>
<path d="" fill="#A7A8A7" transform="translate(0,0)"/>
<path d="" fill="#A8A9A9" transform="translate(0,0)"/>
<path d="" fill="#A8A8A7" transform="translate(0,0)"/>
<path d="" fill="#A7A8AA" transform="translate(0,0)"/>
<path d="" fill="#A9A9A9" transform="translate(0,0)"/>
<path d="" fill="#A8A8A8" transform="translate(0,0)"/>
<path d="" fill="#A9A8AC" transform="translate(0,0)"/>
<path d="" fill="#A8AAA9" transform="translate(0,0)"/>
<path d="" fill="#AAA9AA" transform="translate(0,0)"/>
<path d="" fill="#A9A8A9" transform="translate(0,0)"/>
<path d="" fill="#9B9C9C" transform="translate(0,0)"/>
<path d="" fill="#AAAAA9" transform="translate(0,0)"/>
<path d="" fill="#B2B1B0" transform="translate(0,0)"/>
<path d="" fill="#AFAEAE" transform="translate(0,0)"/>
<path d="" fill="#AAA9A9" transform="translate(0,0)"/>
<path d="" fill="#A7A8AA" transform="translate(0,0)"/>
<path d="" fill="#A9A9AA" transform="translate(0,0)"/>
<path d="" fill="#B0B0AF" transform="translate(0,0)"/>
<path d="" fill="#ACABAB" transform="translate(0,0)"/>
<path d="" fill="#A9A9AA" transform="translate(0,0)"/>
<path d="" fill="#A8A6A7" transform="translate(0,0)"/>
<path d="" fill="#AAAAAB" transform="translate(0,0)"/>
<path d="" fill="#AAABAC" transform="translate(0,0)"/>
<path d="" fill="#A8AAAA" transform="translate(0,0)"/>
<path d="" fill="#A9A7A7" transform="translate(0,0)"/>
<path d="" fill="#A8A8AB" transform="translate(0,0)"/>
<path d="" fill="#A0A29F" transform="translate(0,0)"/>
<path d="" fill="#A9ABAA" transform="translate(0,0)"/>
<path d="" fill="#A9AAAB" transform="translate(0,0)"/>
<path d="" fill="#A7ABA8" transform="translate(0,0)"/>
<path d="" fill="#A7A9AB" transform="translate(0,0)"/>
<path d="" fill="#ACABAE" transform="translate(0,0)"/>
<path d="" fill="#AAAAAA" transform="translate(0,0)"/>
<path d="" fill="#AAAAAC" transform="translate(0,0)"/>
<path d="" fill="#AAABAD" transform="translate(0,0)"/>
<path d="" fill="#A9A9AB" transform="translate(0,0)"/>
<path d="" fill="#ACABAC" transform="translate(0,0)"/>
<path d="" fill="#A9A8AA" transform="translate(0,0)"/>
<path d="" fill="#ADACAE" transform="translate(0,0)"/>
<path d="" fill="#AAA9A9" transform="translate(0,0)"/>
<path d="" fill="#A2A3A3" transform="translate(0,0)"/>
<path d="" fill="#AAAAA9" transform="translate(0,0)"/>
<path d="" fill="#A4A6A4" transform="translate(0,0)"/>
<path d="" fill="#A2A3A4" transform="translate(0,0)"/>
<path d="" fill="#A0A1A0" transform="translate(0,0)"/>
<path d="" fill="#A8A7A7" transform="translate(0,0)"/>
<path d="" fill="#A4A3A2" transform="translate(0,0)"/>
<path d="" fill="#A3A3A4" transform="translate(0,0)"/>
<path d="" fill="#A1A0A0" transform="translate(0,0)"/>
<path d="" fill="#A1A4A4" transform="translate(0,0)"/>
<path d="" fill="#A0A1A1" transform="translate(0,0)"/>
<path d="" fill="#A2A1A1" transform="translate(0,0)"/>
<path d="" fill="#A6A7A6" transform="translate(0,0)"/>
<path d="" fill="#A4A6A6" transform="translate(0,0)"/>
<path d="" fill="#A1A2A2" transform="translate(0,0)"/>
<path d="" fill="#A2A4A6" transform="translate(0,0)"/>
<path d="" fill="#A1A1A3" transform="translate(0,0)"/>
<path d="" fill="#A6A6A7" transform="translate(0,0)"/>
<path d="" fill="#ADACAD" transform="translate(0,0)"/>
</svg>
