<?xml version="1.0" encoding="utf-8" standalone="yes"?>
<!DOCTYPE svg PUBLIC "-//W3C//DTD SVG 1.1//EN" "http://www.w3.org/Graphics/SVG/1.1/DTD/svg11.dtd">
<svg width="1032" height="1128" viewBox="0 0 1032 1128" style="fill:none;stroke:none;fill-rule:evenodd;clip-rule:evenodd;stroke-linecap:round;stroke-linejoin:round;stroke-miterlimit:1.5;" version="1.1" xmlns="http://www.w3.org/2000/svg" xmlns:xlink="http://www.w3.org/1999/xlink"><style class="text-font-style fontImports" data-font-family="Roboto">@import url(https://fonts.googleapis.com/css2?family=Roboto:wght@400;700&amp;amp;display=block);</style><g id="items" style="isolation: isolate"><g id="blend" style="mix-blend-mode: normal"><g id="g-root-cp_5_fill-5_1hckiytflttz6-fill" data-item-order="2999056356" transform="translate(746, 170.010009765625)"><g id="cp_5_fill-5_1hckiytflttz6-fill-merged" stroke="none" fill="#4e88e7"><g><path d="M58 106C84.51 106 106 84.51 106 58C106 31.49 84.51 10 58 10C31.49 10 10 31.49 10 58C10 84.51 31.49 106 58 106"></path></g></g></g><g id="g-root-cp_5_right-5_141qholfltseb-fill" data-item-order="2999056361" transform="translate(602, 134)"></g><g id="g-root-cp_5_dashed-stroke-5_v63hfpfltt70-fill" data-item-order="2999056365" transform="translate(734, 158.010009765625)"></g><g id="g-root-cp_5_left-5_qq9zb9flttz9-fill" data-item-order="2999056368" transform="translate(277.99200439453125, 133)"><g id="cp_5_left-5_qq9zb9flttz9-fill-merged" stroke="none" fill="#4e88e7"><g><path d="M334.01 62.6C334.01 33.55 310.46 10 281.41 10 H62.6C33.55 10 10 33.55 10 62.6 V126.4C10 155.45 33.55 179 62.6 179 H281.41C310.46 179 334.01 155.45 334.01 126.4 V62.6"></path></g></g></g><g id="g-root-cp_4_fill-4_dffy11fltsee-fill" data-item-order="2999056402" transform="translate(575, 341.010009765625)"><g id="cp_4_fill-4_dffy11fltsee-fill-merged" stroke="none" fill="#3cc583"><g><path d="M58 106C84.51 106 106 84.51 106 58C106 31.49 84.51 10 58 10C31.49 10 10 31.49 10 58C10 84.51 31.49 106 58 106"></path></g></g></g><g id="g-root-cp_4_right-4_dffy11fltsef-fill" data-item-order="2999056407" transform="translate(431, 305)"></g><g id="g-root-cp_4_dashed-stroke-4_8zmfwlfltt6o-fill" data-item-order="2999056411" transform="translate(563, 329.010009765625)"></g><g id="g-root-cp_4_left-4_3zfnpflttzd-fill" data-item-order="2999056414" transform="translate(106.99200439453125, 304)"><g id="cp_4_left-4_3zfnpflttzd-fill-merged" stroke="none" fill="#3cc583"><g><path d="M334.01 62.6C334.01 33.55 310.46 10 281.41 10 H62.6C33.55 10 10 33.55 10 62.6 V126.4C10 155.45 33.55 179 62.6 179 H281.41C310.46 179 334.01 155.45 334.01 126.4 V62.6"></path></g></g></g><g id="g-root-cp_3_fill-3_1upwglhfltreq-fill" data-item-order="2999056446" transform="translate(410, 507)"><g id="cp_3_fill-3_1upwglhfltreq-fill-merged" stroke="none" fill="#e0cb15"><g><path d="M58 105C84.51 105 106 83.734 106 57.5C106 31.266 84.51 10 58 10C31.49 10 10 31.266 10 57.5C10 83.734 31.49 105 58 105"></path></g></g></g><g id="g-root-cp_3_dashed-stroke-3_1hefy85fltszn-fill" data-item-order="2999056451" transform="translate(398, 495)"></g><g id="g-root-cp_3_stroke-3_1hefy85fltszo-fill" data-item-order="2999056455" transform="translate(374, 471)"></g><g id="g-root-cp_3_right-3_18isxz9flttsd-fill" data-item-order="2999056458" transform="translate(649.99560546875, 483)"><g id="cp_3_right-3_18isxz9flttsd-fill-merged" stroke="none" fill="#e0cb15"><g><path d="M10 102.377C10 130.942 33.55 154.1 62.599 154.1 H281.405C310.455 154.1 334.004 130.942 334.004 102.377 V62.6C334.014 33.55 310.464 10 281.414 10 H62.604C33.554 10 10.004 33.55 10.004 62.6 V102.377"></path></g></g></g><g id="g-root-cp_2_fill-2_143lwxxfltreu-fill" data-item-order="2999056488" transform="translate(242, 675)"><g id="cp_2_fill-2_143lwxxfltreu-fill-merged" stroke="none" fill="#de8431"><g><path d="M58 105C84.51 105 106 83.734 106 57.5C106 31.266 84.51 10 58 10C31.49 10 10 31.266 10 57.5C10 83.734 31.49 105 58 105"></path></g></g></g><g id="g-root-cp_2_dashed-stroke-2_v7ywp1flts7j-fill" data-item-order="2999056493" transform="translate(230, 663)"></g><g id="g-root-cp_2_stroke-2_znsethflts74-fill" data-item-order="2999056497" transform="translate(206, 633)"></g><g id="g-root-cp_2_right-2_qs5eklfltszt-fill" data-item-order="2999056500" transform="translate(481.99560546875, 651)"><g id="cp_2_right-2_qs5eklfltszt-fill-merged" stroke="none" fill="#de8431"><g><path d="M10 102.377C10 130.942 33.55 154.1 62.599 154.1 H281.405C310.455 154.1 334.004 130.942 334.004 102.377 V62.6C334.014 33.55 310.464 10 281.414 10 H62.604C33.554 10 10.004 33.55 10.004 62.6 V102.377"></path></g></g></g><g id="g-root-cp_1_fill-1_mcbwg5fltts2-fill" data-item-order="2999056532" transform="translate(74, 842)"><g id="cp_1_fill-1_mcbwg5fltts2-fill-merged" stroke="none" fill="#e55753"><g><path d="M58 105C84.51 105 106 83.734 106 57.5C106 31.266 84.51 10 58 10C31.49 10 10 31.266 10 57.5C10 83.734 31.49 105 58 105"></path></g></g></g><g id="g-root-cp_1_dashed-stroke-1_mcbwg5fltts3-fill" data-item-order="2999056537" transform="translate(62, 830)"></g><g id="g-root-cp_1_stroke-1_dhbdadfltrf0-fill" data-item-order="2999056541" transform="translate(38, 800)"></g><g id="g-root-cp_1_right-1_dhbdadfltrf1-fill" data-item-order="2999056544" transform="translate(313.99560546875, 818)"><g id="cp_1_right-1_dhbdadfltrf1-fill-merged" stroke="none" fill="#e55753"><g><path d="M10 102.377C10 130.942 33.55 154.1 62.599 154.1 H281.405C310.455 154.1 334.004 130.942 334.004 102.377 V62.6C334.014 33.55 310.464 10 281.414 10 H62.604C33.554 10 10.004 33.55 10.004 62.6 V102.377"></path></g></g></g><g id="g-root-tx_4_1urrz0lflfpji-fill" data-item-order="3000000000" transform="translate(611, 371)"><g id="tx_4_1urrz0lflfpji-fill-merged" stroke="none" fill="#ffffff"><g><text style="font: bold 25px Roboto, sans-serif; white-space: pre;" font-weight="bold" font-size="25px" font-family="Roboto, sans-serif"><tspan x="14.83" y="43" dominant-baseline="ideographic">4</tspan></text></g></g></g><g id="g-root-tx_integrar_93ddl1flijgo-fill" data-item-order="3000000000" transform="translate(734, 507)"><g id="tx_integrar_93ddl1flijgo-fill-merged" stroke="none" fill="#ffffff"><g><text style="font: bold 20px Roboto, sans-serif; white-space: pre;" font-weight="bold" font-size="20px" font-family="Roboto, sans-serif"><tspan x="12" y="34" dominant-baseline="ideographic">Integrar Neurociência</tspan></text></g></g></g><g id="g-root-tx_3_dj6vphfliioe-fill" data-item-order="3000000000" transform="translate(446, 537)"><g id="tx_3_dj6vphfliioe-fill-merged" stroke="none" fill="#ffffff"><g><text style="font: bold 25px Roboto, sans-serif; white-space: pre;" font-weight="bold" font-size="25px" font-family="Roboto, sans-serif"><tspan x="14.83" y="43" dominant-baseline="ideographic">3</tspan></text></g></g></g><g id="g-root-ic_brai_1ut0x6tflikuj-fill" data-item-order="3000000000" transform="translate(662, 525)"></g><g id="g-root-tx_incorpor_4njvglflik8y-fill" data-item-order="3000000000" transform="translate(734, 543)"><g id="tx_incorpor_4njvglflik8y-fill-merged" stroke="none" fill="#ffffff"><g><text style="font: bold 15px Roboto, sans-serif; white-space: pre;" font-weight="bold" font-size="15px" font-family="Roboto, sans-serif"><tspan x="12" y="31" dominant-baseline="ideographic">Incorporar princípios de </tspan><tspan x="12" y="49" dominant-baseline="ideographic">neurociência para aprofundar </tspan><tspan x="12" y="67" dominant-baseline="ideographic">o processo terapêutico.</tspan></text></g></g></g><g id="g-root-tx_facilita_4log79flfs3o-fill" data-item-order="3000000000" transform="translate(143, 377)"><g id="tx_facilita_4log79flfs3o-fill-merged" stroke="none" fill="#ffffff"><g><text style="font: bold 15px Roboto, sans-serif; white-space: pre;" font-weight="bold" font-size="15px" font-family="Roboto, sans-serif"><tspan x="12" y="46" dominant-baseline="ideographic">Facilitar o reprocessamento </tspan><tspan x="12" y="64" dominant-baseline="ideographic">profundo de experiências passadas </tspan><tspan x="12" y="82" dominant-baseline="ideographic">para promover a cura.</tspan></text></g></g></g><g id="g-root-ic_righ_1lw4yrpflfr40-fill" data-item-order="3000000000" transform="translate(359, 359)"></g><g id="g-root-tx_reconhec_4kfi11flmqdq-fill" data-item-order="3000000000" transform="translate(398, 878)"><g id="tx_reconhec_4kfi11flmqdq-fill-merged" stroke="none" fill="#ffffff"><g><text style="font: bold 15px Roboto, sans-serif; white-space: pre;" font-weight="bold" font-size="15px" font-family="Roboto, sans-serif"><tspan x="12" y="31" dominant-baseline="ideographic">Reconhecer e entender os </tspan><tspan x="12" y="49" dominant-baseline="ideographic">bloqueios emocionais e </tspan><tspan x="12" y="67" dominant-baseline="ideographic">comportamentais.</tspan></text></g></g></g><g id="g-root-tx_aplicart_1d2dds5fljz0i-fill" data-item-order="3000000000" transform="translate(566, 675)"><g id="tx_aplicart_1d2dds5fljz0i-fill-merged" stroke="none" fill="#ffffff"><g><text style="font: bold 20px Roboto, sans-serif; white-space: pre;" font-weight="bold" font-size="20px" font-family="Roboto, sans-serif"><tspan x="12" y="34" dominant-baseline="ideographic">Aplicar Técnicas TCC</tspan></text></g></g></g><g id="g-root-tx_2_1ut0x6tfljzt3-fill" data-item-order="3000000000" transform="translate(278, 705)"><g id="tx_2_1ut0x6tfljzt3-fill-merged" stroke="none" fill="#ffffff"><g><text style="font: bold 25px Roboto, sans-serif; white-space: pre;" font-weight="bold" font-size="25px" font-family="Roboto, sans-serif"><tspan x="14.83" y="43" dominant-baseline="ideographic">2</tspan></text></g></g></g><g id="g-root-ic_logi_zrjchxfljxfp-fill" data-item-order="3000000000" transform="translate(494, 693)"></g><g id="g-root-tx_utilizar_zrjchxfljxfo-fill" data-item-order="3000000000" transform="translate(566, 711)"><g id="tx_utilizar_zrjchxfljxfo-fill-merged" stroke="none" fill="#ffffff"><g><text style="font: bold 15px Roboto, sans-serif; white-space: pre;" font-weight="bold" font-size="15px" font-family="Roboto, sans-serif"><tspan x="12" y="31" dominant-baseline="ideographic">Utilizar técnicas de terapia </tspan><tspan x="12" y="49" dominant-baseline="ideographic">cognitivo-comportamental </tspan><tspan x="12" y="67" dominant-baseline="ideographic">para abordar os bloqueios.</tspan></text></g></g></g><g id="g-root-tx_reproces_91hybpflfrbf-fill" data-item-order="3000000000" transform="translate(143, 329)"><g id="tx_reproces_91hybpflfrbf-fill-merged" stroke="none" fill="#ffffff"><g><text style="font: bold 20px Roboto, sans-serif; white-space: pre;" font-weight="bold" font-size="20px" font-family="Roboto, sans-serif"><tspan x="12" y="40" dominant-baseline="ideographic">Reprocessar Experiências</tspan></text></g></g></g><g id="g-root-tx_alcanart_1lw4vlxfltr7z-fill" data-item-order="3000000000" transform="translate(374, 158)"><g id="tx_alcanart_1lw4vlxfltr7z-fill-merged" stroke="none" fill="#ffffff"><g><text style="font: bold 20px Roboto, sans-serif; white-space: pre;" font-weight="bold" font-size="20px" font-family="Roboto, sans-serif"><tspan x="72.49" y="34" dominant-baseline="ideographic">Alcançar </tspan><tspan x="14.88" y="58" dominant-baseline="ideographic">Transformação</tspan></text></g></g></g><g id="g-root-tx_experime_1d0hvd1fltssg-fill" data-item-order="3000000000" transform="translate(326, 218)"><g id="tx_experime_1d0hvd1fltssg-fill-merged" stroke="none" fill="#ffffff"><g><text style="font: bold 15px Roboto, sans-serif; white-space: pre;" font-weight="bold" font-size="15px" font-family="Roboto, sans-serif"><tspan x="12" y="31" dominant-baseline="ideographic">Experimentar crescimento </tspan><tspan x="12" y="49" dominant-baseline="ideographic">pessoal e transformação </tspan><tspan x="12" y="67" dominant-baseline="ideographic">emocional.</tspan></text></g></g></g><g id="g-root-tx_5_zpnu2tfltr7l-fill" data-item-order="3000000000" transform="translate(782, 200)"><g id="tx_5_zpnu2tfltr7l-fill-merged" stroke="none" fill="#ffffff"><g><text style="font: bold 25px Roboto, sans-serif; white-space: pre;" font-weight="bold" font-size="25px" font-family="Roboto, sans-serif"><tspan x="14.83" y="43" dominant-baseline="ideographic">5</tspan></text></g></g></g><g id="g-root-tx_identifi_dfg16tflmsqt-fill" data-item-order="3000000000" transform="translate(398, 842)"><g id="tx_identifi_dfg16tflmsqt-fill-merged" stroke="none" fill="#ffffff"><g><text style="font: bold 20px Roboto, sans-serif; white-space: pre;" font-weight="bold" font-size="20px" font-family="Roboto, sans-serif"><tspan x="12" y="34" dominant-baseline="ideographic">Identificar Bloqueios</tspan></text></g></g></g><g id="g-root-tx_1_hv9jb9flmryk-fill" data-item-order="3000000000" transform="translate(110, 872)"><g id="tx_1_hv9jb9flmryk-fill-merged" stroke="none" fill="#ffffff"><g><text style="font: bold 25px Roboto, sans-serif; white-space: pre;" font-weight="bold" font-size="25px" font-family="Roboto, sans-serif"><tspan x="14.83" y="43" dominant-baseline="ideographic">1</tspan></text></g></g></g><g id="g-root-ic_door_1upwjr9flmrr5-fill" data-item-order="3000000000" transform="translate(326, 860)"></g><g id="g-root-ic_dove_dikbglflttl6-fill" data-item-order="3000000000" transform="translate(530, 188)"></g><g id="g-root-tx_jornadap_91hv5xflts7a-fill" data-item-order="3000000000" transform="translate(266, 38)"><g id="tx_jornadap_91hv5xflts7a-fill-merged" stroke="none" fill="#484848"><g><text style="font: bold 25px Roboto, sans-serif; white-space: pre;" font-weight="bold" font-size="25px" font-family="Roboto, sans-serif"><tspan x="15.89" y="43" dominant-baseline="ideographic">Jornada para a Transformação Emocional</tspan></text></g></g></g><g id="g-root-cp_5_fill-5_1hckiytflttz6-stroke" data-item-order="2999056356" transform="translate(746, 170.010009765625)"></g><g id="g-root-cp_5_right-5_141qholfltseb-stroke" data-item-order="2999056361" transform="translate(602, 134)"><g id="cp_5_right-5_141qholfltseb-stroke" fill="none" stroke-linecap="round" stroke-linejoin="round" stroke-miterlimit="4" stroke="#484848" stroke-width="2"><g><path d="M 286 92.01C 286 92.34 286 94.68 286 95.01C 285.46 140.94 248.06 178.01 202.01 178.01C 178.81 178.01 157.81 168.61 142.61 153.41L 112 184.01M 10 94.01L 118 94.01C 118 93.68 118 92.34 118 92.01M 285.99 92C 285.99 46.16 248.38 10 201.99 10C 155.6 10 118.53 46.63 118 92.01M 202 142.01C 228.51 142.01 250 120.52 250 94.01C 250 67.5 228.51 46.01 202 46.01C 175.49 46.01 154 67.5 154 94.01C 154 120.52 175.49 142.01 202 142.01Z"></path></g></g></g><g id="g-root-cp_5_dashed-stroke-5_v63hfpfltt70-stroke" data-item-order="2999056365" transform="translate(734, 158.010009765625)"><g id="cp_5_dashed-stroke-5_v63hfpfltt70-stroke" fill="none" stroke-linecap="round" stroke-linejoin="round" stroke-miterlimit="4" stroke="#484848" stroke-width="2" stroke-dasharray="5.0, 7.0"><g><path d="M 130 70C 130 103.14 103.14 130 70 130C 36.86 130 10 103.14 10 70C 10 36.86 36.86 10 70 10C 103.14 10 130 36.86 130 70Z"></path></g></g></g><g id="g-root-cp_5_left-5_qq9zb9flttz9-stroke" data-item-order="2999056368" transform="translate(277.99200439453125, 133)"><g id="cp_5_left-5_qq9zb9flttz9-stroke" fill="none" stroke-linecap="round" stroke-linejoin="round" stroke-miterlimit="4" stroke="#ffffff" stroke-width="2"><g><path d="M 334.01 125L 334.01 126.4001C 334.01 155.4501 310.46 179 281.41 179L 62.6 179C 33.55 179 10 155.45 10 126.4L 10.01 126.4L 10.01 125M 10.01002 125L 10.01002 64M 334.01001 64L 334.01001 125M 10 64L 10 62.6C 10 33.55 33.5501 10 62.6 10L 281.41 10C 310.46 10 334.01 33.55 334.01 62.6L 334.01 64L 334 64"></path></g></g></g><g id="g-root-cp_4_fill-4_dffy11fltsee-stroke" data-item-order="2999056402" transform="translate(575, 341.010009765625)"></g><g id="g-root-cp_4_right-4_dffy11fltsef-stroke" data-item-order="2999056407" transform="translate(431, 305)"><g id="cp_4_right-4_dffy11fltsef-stroke" fill="none" stroke-linecap="round" stroke-linejoin="round" stroke-miterlimit="4" stroke="#484848" stroke-width="2"><g><path d="M 286 92.01C 286 92.34 286 94.68 286 95.01C 285.46 140.94 248.06 178.01 202.01 178.01C 178.81 178.01 157.81 168.61 142.61 153.41L 112 184.01M 10 94.01L 118 94.01C 118 93.68 118 92.34 118 92.01M 285.99 92C 285.99 46.16 248.38 10 201.99 10C 155.6 10 118.53 46.63 118 92.01M 202 142.01C 228.51 142.01 250 120.52 250 94.01C 250 67.5 228.51 46.01 202 46.01C 175.49 46.01 154 67.5 154 94.01C 154 120.52 175.49 142.01 202 142.01Z"></path></g></g></g><g id="g-root-cp_4_dashed-stroke-4_8zmfwlfltt6o-stroke" data-item-order="2999056411" transform="translate(563, 329.010009765625)"><g id="cp_4_dashed-stroke-4_8zmfwlfltt6o-stroke" fill="none" stroke-linecap="round" stroke-linejoin="round" stroke-miterlimit="4" stroke="#484848" stroke-width="2" stroke-dasharray="5.0, 7.0"><g><path d="M 130 70C 130 103.14 103.14 130 70 130C 36.86 130 10 103.14 10 70C 10 36.86 36.86 10 70 10C 103.14 10 130 36.86 130 70Z"></path></g></g></g><g id="g-root-cp_4_left-4_3zfnpflttzd-stroke" data-item-order="2999056414" transform="translate(106.99200439453125, 304)"><g id="cp_4_left-4_3zfnpflttzd-stroke" fill="none" stroke-linecap="round" stroke-linejoin="round" stroke-miterlimit="4" stroke="#ffffff" stroke-width="2"><g><path d="M 334.01 125L 334.01 126.4001C 334.01 155.4501 310.46 179 281.41 179L 62.6 179C 33.55 179 10 155.45 10 126.4L 10.01 126.4L 10.01 125M 10.01002 125L 10.01002 64M 334.01001 64L 334.01001 125M 10 64L 10 62.6C 10 33.55 33.5501 10 62.6 10L 281.41 10C 310.46 10 334.01 33.55 334.01 62.6L 334.01 64L 334 64"></path></g></g></g><g id="g-root-cp_3_fill-3_1upwglhfltreq-stroke" data-item-order="2999056446" transform="translate(410, 507)"></g><g id="g-root-cp_3_dashed-stroke-3_1hefy85fltszn-stroke" data-item-order="2999056451" transform="translate(398, 495)"><g id="cp_3_dashed-stroke-3_1hefy85fltszn-stroke" fill="none" stroke-linecap="round" stroke-linejoin="round" stroke-miterlimit="4" stroke="#484848" stroke-width="2" stroke-dasharray="5.0, 7.0"><g><path d="M 130 70C 130 36.86 103.14 10 70 10C 36.86 10 10 36.86 10 70C 10 102.5877 36.8595 129 69.999 129C 103.1384 129 129.9979 102.5877 129.9979 70"></path></g></g></g><g id="g-root-cp_3_stroke-3_1hefy85fltszo-stroke" data-item-order="2999056455" transform="translate(374, 471)"><g id="cp_3_stroke-3_1hefy85fltszo-stroke" fill="none" stroke-linecap="round" stroke-linejoin="round" stroke-miterlimit="4" stroke="#484848" stroke-width="2"><g><path d="M 286 94L 178 94C 178 94.33 178 95.67 178 96M 10 96.01C 10 141.8444 47.6122 178 94.005 178C 140.3978 178 177.47 141.3745 178 96M 10 96C 10 95.67 10 93.33 10 93C 10.54 47.07 47.94 10 93.99 10C 117.19 10 138.19 19.4 153.39 34.6M 142 94C 142 67.49 120.51 46 94 46C 67.49 46 46 67.49 46 94C 46 120.0682 67.4894 141.2 93.999 141.2C 120.5085 141.2 141.9981 120.0682 141.9981 94"></path></g></g></g><g id="g-root-cp_3_right-3_18isxz9flttsd-stroke" data-item-order="2999056458" transform="translate(649.99560546875, 483)"><g id="cp_3_right-3_18isxz9flttsd-stroke" fill="none" stroke-linecap="round" stroke-linejoin="round" stroke-miterlimit="4" stroke="#ffffff" stroke-width="2"><g><path d="M 10.004395 64L 10.004395 62.6C 10.004395 33.55 33.554395 10 62.604395 10L 281.414395 10C 310.464395 10 334.014395 33.55 334.014395 62.6L 334.004395 62.6L 334.004395 64M 334.004395 64L 334.004395 101M 10.004395 101L 10.004395 64M 334.004416 100.999992L 334.004416 102.376692C 334.004416 130.942492 310.454816 154.099992 281.405316 154.099992L 62.599116 154.099992C 33.549616 154.099992 10.000016 130.942492 10.000016 102.376692L 10.000016 100.999992L 10.010016 100.999992"></path></g></g></g><g id="g-root-cp_2_fill-2_143lwxxfltreu-stroke" data-item-order="2999056488" transform="translate(242, 675)"></g><g id="g-root-cp_2_dashed-stroke-2_v7ywp1flts7j-stroke" data-item-order="2999056493" transform="translate(230, 663)"><g id="cp_2_dashed-stroke-2_v7ywp1flts7j-stroke" fill="none" stroke-linecap="round" stroke-linejoin="round" stroke-miterlimit="4" stroke="#484848" stroke-width="2" stroke-dasharray="5.0, 7.0"><g><path d="M 130 70C 130 36.86 103.14 10 70 10C 36.86 10 10 36.86 10 70C 10 102.5877 36.8595 129 69.999 129C 103.1384 129 129.9979 102.5877 129.9979 70"></path></g></g></g><g id="g-root-cp_2_stroke-2_znsethflts74-stroke" data-item-order="2999056497" transform="translate(206, 633)"><g id="cp_2_stroke-2_znsethflts74-stroke" fill="none" stroke-linecap="round" stroke-linejoin="round" stroke-miterlimit="4" stroke="#484848" stroke-width="2"><g><path d="M 10 102C 10 101.67 10 99.33 10 99C 10.54 53.07 47.94 16 93.99 16C 117.19 16 138.19 25.4 153.39 40.6L 184 10M 286 100L 178 100C 178 100.33 178 101.67 178 102M 10 102.01C 10 147.8444 47.6122 184 94.005 184C 140.3978 184 177.47 147.3745 178 102M 142 100C 142 73.49 120.51 52 94 52C 67.49 52 46 73.49 46 100C 46 126.0682 67.4894 147.2 93.999 147.2C 120.5085 147.2 141.9981 126.0682 141.9981 100"></path></g></g></g><g id="g-root-cp_2_right-2_qs5eklfltszt-stroke" data-item-order="2999056500" transform="translate(481.99560546875, 651)"><g id="cp_2_right-2_qs5eklfltszt-stroke" fill="none" stroke-linecap="round" stroke-linejoin="round" stroke-miterlimit="4" stroke="#ffffff" stroke-width="2"><g><path d="M 10.004395 64L 10.004395 62.6C 10.004395 33.55 33.554395 10 62.604395 10L 281.414395 10C 310.464395 10 334.014395 33.55 334.014395 62.6L 334.004395 62.6L 334.004395 64M 334.004395 64L 334.004395 101M 10.004395 101L 10.004395 64M 334.004416 100.999992L 334.004416 102.376692C 334.004416 130.942492 310.454816 154.099992 281.405316 154.099992L 62.599116 154.099992C 33.549616 154.099992 10.000016 130.942492 10.000016 102.376692L 10.000016 100.999992L 10.010016 100.999992"></path></g></g></g><g id="g-root-cp_1_fill-1_mcbwg5fltts2-stroke" data-item-order="2999056532" transform="translate(74, 842)"></g><g id="g-root-cp_1_dashed-stroke-1_mcbwg5fltts3-stroke" data-item-order="2999056537" transform="translate(62, 830)"><g id="cp_1_dashed-stroke-1_mcbwg5fltts3-stroke" fill="none" stroke-linecap="round" stroke-linejoin="round" stroke-miterlimit="4" stroke="#484848" stroke-width="2" stroke-dasharray="5.0, 7.0"><g><path d="M 130 70C 130 36.86 103.14 10 70 10C 36.86 10 10 36.86 10 70C 10 102.5877 36.8595 129 69.999 129C 103.1384 129 129.9979 102.5877 129.9979 70"></path></g></g></g><g id="g-root-cp_1_stroke-1_dhbdadfltrf0-stroke" data-item-order="2999056541" transform="translate(38, 800)"><g id="cp_1_stroke-1_dhbdadfltrf0-stroke" fill="none" stroke-linecap="round" stroke-linejoin="round" stroke-miterlimit="4" stroke="#484848" stroke-width="2"><g><path d="M 10 102C 10 101.67 10 99.33 10 99C 10.54 53.07 47.94 16 93.99 16C 117.19 16 138.19 25.4 153.39 40.6L 184 10M 286 100L 178 100C 178 100.33 178 101.67 178 102M 10 102.01C 10 147.8444 47.6122 184 94.005 184C 140.3978 184 177.47 147.3745 178 102M 142 100C 142 73.49 120.51 52 94 52C 67.49 52 46 73.49 46 100C 46 126.0682 67.4894 147.2 93.999 147.2C 120.5085 147.2 141.9981 126.0682 141.9981 100"></path></g></g></g><g id="g-root-cp_1_right-1_dhbdadfltrf1-stroke" data-item-order="2999056544" transform="translate(313.99560546875, 818)"><g id="cp_1_right-1_dhbdadfltrf1-stroke" fill="none" stroke-linecap="round" stroke-linejoin="round" stroke-miterlimit="4" stroke="#ffffff" stroke-width="2"><g><path d="M 10.004395 64L 10.004395 62.6C 10.004395 33.55 33.554395 10 62.604395 10L 281.414395 10C 310.464395 10 334.014395 33.55 334.014395 62.6L 334.004395 62.6L 334.004395 64M 334.004395 64L 334.004395 101M 10.004395 101L 10.004395 64M 334.004416 100.999992L 334.004416 102.376692C 334.004416 130.942492 310.454816 154.099992 281.405316 154.099992L 62.599116 154.099992C 33.549616 154.099992 10.000016 130.942492 10.000016 102.376692L 10.000016 100.999992L 10.010016 100.999992"></path></g></g></g><g id="g-root-tx_4_1urrz0lflfpji-stroke" data-item-order="3000000000" transform="translate(611, 371)"></g><g id="g-root-tx_integrar_93ddl1flijgo-stroke" data-item-order="3000000000" transform="translate(734, 507)"></g><g id="g-root-tx_3_dj6vphfliioe-stroke" data-item-order="3000000000" transform="translate(446, 537)"></g><g id="g-root-ic_brai_1ut0x6tflikuj-stroke" data-item-order="3000000000" transform="translate(662, 525)"><g id="ic_brai_1ut0x6tflikuj-stroke" fill="none" stroke-linecap="round" stroke-linejoin="round" stroke-miterlimit="4" stroke="#ffffff" stroke-width="2"><g><path d="M 68.957504 40C 68.951172 43.922844 65.913437 47.173424 62 47.445C 64.284378 50.37925 64.60183 54.392021 62.80722 57.648956C 61.012619 60.905884 57.450806 62.781151 53.75 62.417503C 54.303978 64.278625 53.730297 66.292183 52.278614 67.581879C 50.826935 68.871567 48.759827 69.204124 46.976894 68.434814C 45.193962 67.665497 44.017693 65.933472 43.959999 63.9925C 41.636318 65.337059 38.771183 65.337059 36.447502 63.9925C 36.38623 65.931046 35.209404 67.659271 33.428139 68.426598C 31.646872 69.193924 29.582542 68.861908 28.131716 67.574738C 26.680887 66.287567 26.105326 64.277489 26.655001 62.417496C 22.954195 62.781151 19.392382 60.905884 17.597778 57.648956C 15.803177 54.392021 16.120623 50.37925 18.405001 47.445C 14.49101 47.176479 11.453263 43.923191 11.453263 40C 11.453263 36.076809 14.49101 32.823517 18.405001 32.555C 16.120623 29.620752 15.803177 25.607977 17.597778 22.351048C 19.392382 19.094114 22.954195 17.218851 26.655001 17.5825C 26.105326 15.722511 26.680887 13.712433 28.131716 12.425264C 29.582542 11.138097 31.646872 10.806076 33.428139 11.573402C 35.209404 12.340728 36.38623 14.068957 36.447502 16.0075C 38.771183 14.662937 41.636318 14.662937 43.960003 16.0075C 44.017693 14.066531 45.193962 12.334502 46.976894 11.565189C 48.759827 10.795877 50.826935 11.128429 52.278614 12.418122C 53.730297 13.707815 54.303978 15.721373 53.75 17.5825C 57.450806 17.218851 61.012619 19.094114 62.80722 22.351048C 64.60183 25.607977 64.284378 29.620752 62.000004 32.555C 65.913437 32.826576 68.951172 36.077156 68.957504 40ZM 40.2075 51.25L 40.2075 53.75M 40.2075 43.75L 40.2075 46.25M 48.002502 43.75L 48.002502 46.25M 40.2075 28.75L 40.2075 31.25M 40.2075 21.25L 40.2075 23.75M 40.2075 58.75L 40.2075 61.25M 27.7075 25C 27.7075 27.071068 29.386433 28.75 31.4575 28.75C 33.528568 28.75 35.2075 27.071068 35.2075 25C 35.2075 22.928932 33.528568 21.25 31.4575 21.25C 29.386433 21.25 27.7075 22.928932 27.7075 25ZM 46.4575 31.25C 46.4575 33.321068 48.136436 35 50.2075 35C 52.278572 35 53.9575 33.321068 53.9575 31.25C 53.9575 29.178932 52.278572 27.500002 50.2075 27.500002C 48.136436 27.500002 46.4575 29.178932 46.4575 31.25ZM 23.9575 52.5C 23.9575 54.571072 25.636433 56.25 27.7075 56.25C 29.778568 56.25 31.4575 54.571072 31.4575 52.5C 31.4575 50.428932 29.778568 48.750004 27.7075 48.750004C 25.636433 48.750004 23.9575 50.428932 23.9575 52.5ZM 45.2075 53.75C 45.2075 55.821072 46.886433 57.5 48.9575 57.5C 51.028572 57.5 52.7075 55.821072 52.7075 53.75C 52.7075 51.678932 51.028572 50 48.9575 50C 46.886433 50 45.2075 51.678932 45.2075 53.75ZM 51.4575 42.5C 51.4575 44.571068 53.136436 46.25 55.2075 46.25C 57.278572 46.25 58.9575 44.571068 58.9575 42.5C 58.9575 40.428932 57.278572 38.75 55.2075 38.75C 53.136436 38.75 51.4575 40.428932 51.4575 42.5ZM 53.959999 31.25C 55.34071 31.25 56.459999 30.130713 56.459999 28.75L 56.459999 25M 17.7075 41.25L 21.4575 41.25C 22.838213 41.25 23.9575 40.130714 23.9575 38.75L 23.9575 36.25C 23.9575 34.869286 25.076788 33.75 26.4575 33.75L 28.9575 33.75C 30.338211 33.75 31.4575 32.630714 31.4575 31.25L 31.4575 28.75M 31.4575 52.5C 32.838211 52.5 33.9575 53.619289 33.9575 55L 33.9575 60M 52.7075 53.75L 57.7075 53.75"></path></g></g></g><g id="g-root-tx_incorpor_4njvglflik8y-stroke" data-item-order="3000000000" transform="translate(734, 543)"></g><g id="g-root-tx_facilita_4log79flfs3o-stroke" data-item-order="3000000000" transform="translate(143, 377)"></g><g id="g-root-ic_righ_1lw4yrpflfr40-stroke" data-item-order="3000000000" transform="translate(359, 359)"><g id="ic_righ_1lw4yrpflfr40-stroke" fill="none" stroke-linecap="round" stroke-linejoin="round" stroke-miterlimit="4" stroke="#ffffff" stroke-width="2"><g><path d="M 46.25 39.994999C 46.25 45.517849 50.727154 49.994999 56.25 49.994999C 61.772846 49.994999 66.25 45.517849 66.25 39.994999C 66.25 34.472153 61.772846 29.995001 56.25 29.995001C 50.727154 29.995001 46.25 34.472153 46.25 39.994999ZM 51.25 39.994999C 51.25 42.756424 53.488575 44.994999 56.25 44.994999C 59.011425 44.994999 61.25 42.756424 61.25 39.994999C 61.25 37.233578 59.011425 34.994999 56.25 34.994999C 53.488575 34.994999 51.25 37.233578 51.25 39.994999ZM 55.917503 55C 49.571529 62.790169 39.009949 65.743973 29.543377 62.376179C 20.076801 59.008377 13.753851 50.047791 13.753851 40C 13.753851 29.952209 20.076801 20.991619 29.543377 17.623821C 39.009949 14.256025 49.571529 17.209833 55.917503 25M 36.25 34.994999L 40 39.994999L 36.25 44.994999M 23.75 39.994999L 40 39.994999"></path></g></g></g><g id="g-root-tx_reconhec_4kfi11flmqdq-stroke" data-item-order="3000000000" transform="translate(398, 878)"></g><g id="g-root-tx_aplicart_1d2dds5fljz0i-stroke" data-item-order="3000000000" transform="translate(566, 675)"></g><g id="g-root-tx_2_1ut0x6tfljzt3-stroke" data-item-order="3000000000" transform="translate(278, 705)"></g><g id="g-root-ic_logi_zrjchxfljxfp-stroke" data-item-order="3000000000" transform="translate(494, 693)"><g id="ic_logi_zrjchxfljxfp-stroke" fill="none" stroke-linecap="round" stroke-linejoin="round" stroke-miterlimit="4" stroke="#ffffff" stroke-width="2"><g><path d="M 68.75 36.25L 68.75 46.25C 68.75 47.630714 67.630707 48.75 66.25 48.75L 43.75 48.75M 31.25 45.25L 31.25 13.75C 31.25 12.369288 32.369286 11.25 33.75 11.25L 43.75 11.25M 56.25 36.25L 56.25 48.75L 43.75 48.75L 43.75 11.25M 68.75 36.25L 68.75 36.25L 31.25 36.25L 31.25 23.75L 43.75 23.75M 11.25 62.8125C 37.5 71.5625 28.75 71.5625 58.75 56.5625C 57.021614 54.238869 54.026901 53.240627 51.250004 54.062504L 40.459999 57.480003M 11.25 48.907501L 18.75 48.907501C 24.6325 48.907501 28.75 53.907501 30 53.907501L 38.75 53.907501C 41.25 53.907501 41.25 58.907501 38.75 58.907501L 25 58.907501M 19.782501 48.959999C 19.782501 48.959999 22.450001 57.550003 11.25 57.550003M 47.192501 55.3475L 50.34 60.8825M 37.844997 58.907501L 40.6525 65.967499M 30.25 53.907501C 29.764975 55.538883 29.764975 57.276123 30.25 58.907505M 51.824856 17.259663L 64.083008 14.812688L 66.529984 27.070843L 54.271832 29.517815Z"></path></g></g></g><g id="g-root-tx_utilizar_zrjchxfljxfo-stroke" data-item-order="3000000000" transform="translate(566, 711)"></g><g id="g-root-tx_reproces_91hybpflfrbf-stroke" data-item-order="3000000000" transform="translate(143, 329)"></g><g id="g-root-tx_alcanart_1lw4vlxfltr7z-stroke" data-item-order="3000000000" transform="translate(374, 158)"></g><g id="g-root-tx_experime_1d0hvd1fltssg-stroke" data-item-order="3000000000" transform="translate(326, 218)"></g><g id="g-root-tx_5_zpnu2tfltr7l-stroke" data-item-order="3000000000" transform="translate(782, 200)"></g><g id="g-root-tx_identifi_dfg16tflmsqt-stroke" data-item-order="3000000000" transform="translate(398, 842)"></g><g id="g-root-tx_1_hv9jb9flmryk-stroke" data-item-order="3000000000" transform="translate(110, 872)"></g><g id="g-root-ic_door_1upwjr9flmrr5-stroke" data-item-order="3000000000" transform="translate(326, 860)"><g id="ic_door_1upwjr9flmrr5-stroke" fill="none" stroke-linecap="round" stroke-linejoin="round" stroke-miterlimit="4" stroke="#ffffff" stroke-width="2"><g><path d="M 36.25 68.130005L 14.375 68.130005C 12.875 68.130005 11.875 67.129997 11.875 65.630005L 11.875 14.379875C 11.875 12.879875 12.875 11.879883 14.375 11.879883L 42.5 11.879883C 43.880753 11.879883 45 12.999175 45 14.379875L 45 14.9997M 21.124876 41.255001C 20.434525 41.255001 19.874874 40.695251 19.874874 40.005001C 19.874874 39.314499 20.434525 38.755001 21.124876 38.755001M 21.124876 41.255001C 21.815226 41.255001 22.374876 40.695251 22.374876 40.005001C 22.374876 39.314499 21.815226 38.755001 21.124876 38.755001M 46.099751 34.844975C 49.55175 34.844975 52.349747 32.046749 52.349747 28.594975C 52.349747 25.1432 49.55175 22.344975 46.099751 22.344975C 42.648003 22.344975 39.849751 25.1432 39.849751 28.594975C 39.849751 32.046749 42.648003 34.844975 46.099751 34.844975ZM 57.099998 47.158749L 57.099998 49.158749C 57.099998 51.158749 55.349998 52.908749 53.349998 52.908749C 51.350002 52.908749 49.599998 51.158749 49.599998 49.158749L 49.599998 36.158749C 49.599998 35.158752 50.100002 33.408726 52.099998 32.658726C 54.599998 31.908724 56.350002 33.908775 56.599998 34.658775L 62.600002 46.908752C 62.849998 47.408749 63.099998 48.158752 63.099998 48.658749L 63.099998 56.658749L 67.349998 62.158752C 68.599998 63.908749 68.349998 66.158745 66.599998 67.408745C 65.100006 68.408752 63.099998 68.408752 61.849998 67.158752L 61.350002 66.658752L 56.350002 60.158749C 55.849998 59.658752 55.599998 59.158749 55.599998 58.408752L 55.599751 58.095001L 53.599747 59.345001L 50.849747 65.845001C 50.099751 67.845001 47.849751 68.595001 45.849751 67.845001C 44.099751 67.095001 43.349751 65.345001 43.599751 63.595001C 43.660248 63.170502 43.849751 62.845001 43.849751 62.845001L 47.099751 55.345001C 47.349751 54.594997 48.0275 53.8895 48.599751 53.595001L 51.352001 52.300751"></path></g></g></g><g id="g-root-ic_dove_dikbglflttl6-stroke" data-item-order="3000000000" transform="translate(530, 188)"><g id="ic_dove_dikbglflttl6-stroke" fill="none" stroke-linecap="round" stroke-linejoin="round" stroke-miterlimit="4" stroke="#ffffff" stroke-width="2"><g><path d="M 10 10M 62.5 16.625L 61.75 18.625C 60.25 22.375 56.75 24.625 52.75 24.625L 50.75 24.625C 47 24.625 43.75 26.625 42.25 29.875L 40 34.375L 37.75 29.875C 36 26.625 32.75 24.625 29.25 24.625L 27.25 24.625C 23.25 24.625 19.75 22.125 18.25 18.625L 17.5 16.625L 26 16.625C 27.75 16.625 29.75 16.875 31.5 17.375L 35.25 18.375L 33.75 11.875L 46.5 11.875L 45 18.375L 48.75 17.375C 50.5 16.875 52.25 16.625 54.25 16.625L 62.5 16.625ZM 51.25 56.875C 51.25 63.125 46.25 68.125 40 68.125C 33.75 68.125 28.75 63.125 28.75 56.875L 28.75 52.375C 28.75 46.125 33.75 41.125 40 41.125C 46.25 41.125 51.25 46.125 51.25 52.375L 51.25 56.875ZM 51.25 54.875C 51.25 54.875 43.75 54.875 40 48.625C 36.25 54.875 28.75 54.875 28.75 54.875M 49.5 35.125C 55.25 38.375 59.25 44.375 59.25 51.625L 59.25 68.125M 20.5 68.125L 20.5 51.625C 20.5 44.375 24.75 38.125 30.75 34.874874M 28.75 56.875L 28.75 68.125M 51.25 56.875L 51.25 68.125M 10 10M 12.5 28.624876L 17.5 29.874876M 10 10M 12.5 39.375L 17.5 38.125M 10 10M 67.5 28.624876L 62.5 29.874876M 10 10M 67.5 39.375L 62.5 38.125"></path></g></g></g><g id="g-root-tx_jornadap_91hv5xflts7a-stroke" data-item-order="3000000000" transform="translate(266, 38)"></g></g></g><path id="wqs6mz9ddokxw" d="M65.283 12.757a.35.35 0 0 0 .584.157l5.203-5.141-6.183 3.523.396 1.461zm-2.216-11.7a.35.35 0 0 0-.522.305v3.111l3.276-1.868-2.754-1.548zm3.728 2.105l-4.25 2.421v2.445l6.391-3.644-2.141-1.222zm4.708 3.303a.35.35 0 0 0 0-.609l-1.592-.9-7.365 4.199v1.782a.35.35 0 0 0 .523.305l8.435-4.777z M44.542 2.513c0-.433.355-.783.792-.783s.792.35.792.783-.355.783-.792.783-.792-.35-.792-.783zm59.171 0c0-.433.355-.783.792-.783s.792.35.792.783-.355.783-.792.783-.792-.35-.792-.783zm-85.951 7.636h-1.27v-.487c-.276.201-.864.609-1.881.609-1.202 0-2.274-.794-2.137-2.078.118-1.106 1.153-1.584 1.848-1.727l2.17-.345c0-.539-.29-.956-1.064-1.006s-1.21.305-1.571 1.017l-1.124-.605c1.218-2.631 5.029-1.764 5.029.414v4.207zm-1.27-2.86c.006.396-.062 1.112-.819 1.59-.587.37-1.841.299-1.903-.395-.049-.555.461-.791.906-.898l1.816-.297zm72.662 2.86h-1.27v-.487c-.276.201-.864.609-1.881.609-1.202 0-2.274-.794-2.137-2.078.118-1.106 1.153-1.584 1.848-1.727l2.17-.345c0-.539-.29-.956-1.064-1.006s-1.21.305-1.571 1.017l-1.124-.605c1.218-2.631 5.029-1.764 5.029.414v4.207zm-1.27-2.86c.006.396-.062 1.112-.82 1.59-.587.37-1.841.299-1.903-.395-.049-.555.461-.791.906-.898l1.816-.297zM99.096 10.149H97.85v-8.45h1.246v4.895l2.68-2.559h1.738l-2.633 2.535 2.715 3.578h-1.556l-2.077-2.707-.867.844v1.863zm6.053-6.114h-1.255v6.113h1.255V4.035zm-59.2 0h-1.255v6.113h1.255V4.035zm5.584 6.113V1.697h1.255v2.695c.361-.346 1-.485 1.47-.485 1.452 0 2.477 1.082 2.457 2.448v3.792h-1.27v-3.68c0-.408-.214-1.339-1.315-1.339-.968 0-1.342.756-1.342 1.339v3.681h-1.255zm-4.76-4.894V4.039h.621a.45.45 0 0 0 .45-.45v-.855h1.251v1.305h1.309v1.215h-1.309v3.109c0 .293.105.664.648.664.365 0 .531-.035.736-.07v1.137s-.361.113-.857.113c-1.398 0-1.777-1.051-1.777-1.788V5.254h-1.071zM36.528 4.039h-1.394l2.191 6.106h1.125l1.234-3.918 1.238 3.918h1.129l2.188-6.106h-1.383l-1.359 3.93-1.256-3.93h-1.124l-1.242 3.957-1.348-3.957zM26.212 7.141c-.02 1.566 1.187 3.129 3.223 3.129 1.566 0 2.383-.918 2.734-1.719L31.172 8c-.315.399-.801 1.094-1.738 1.094-1.145 0-1.825-.781-1.891-1.52h4.625c.074-.284.148-.995-.03-1.559-.336-1.064-1.221-2.102-2.839-2.102s-3.088 1.152-3.088 3.227zm1.363-.75h3.348c-.055-.43-.566-1.301-1.623-1.301a1.79 1.79 0 0 0-1.725 1.301zm-8.758.75c.038 1.758 1.277 3.133 3.145 3.133 1.074 0 1.723-.477 1.961-.672v.547h1.242V1.703h-1.258v2.888c-.414-.36-1.062-.68-1.93-.68-1.91 0-3.198 1.473-3.16 3.23zm1.309-.08c0 1.119.723 1.978 1.836 1.978a1.88 1.88 0 0 0 1.94-1.904c0-1.371-1.011-1.99-1.972-1.99s-1.805.798-1.805 1.916zm76.683-.028C96.771 5.275 95.532 3.9 93.664 3.9c-1.074 0-1.723.477-1.961.672v-.547h-1.242v8.22h1.258V9.583c.414.36 1.063.68 1.93.68 1.91 0 3.198-1.473 3.16-3.23zm-1.309.08c0-1.119-.723-1.978-1.836-1.978a1.88 1.88 0 0 0-1.94 1.904c0 1.371 1.011 1.99 1.972 1.99S95.5 8.231 95.5 7.113zM106.441 10.173V4.036h1.254v.382c.361-.346 1-.485 1.47-.485 1.452 0 2.477 1.082 2.457 2.448v3.792h-1.27V6.492c0-.408-.214-1.339-1.315-1.339-.969 0-1.342.756-1.342 1.339v3.681h-1.254zm-30.383-.021V1.824h1.084l4.215 5.777V1.824h1.32v8.328h-1.094l-4.207-5.796v5.796h-1.319zM5.24 10.149H4V2.377h1.014l2.664 3.597 2.654-3.592h1.03v7.766h-1.256V4.762L7.678 8.068 5.24 4.742v5.407z" transform="translate(896, 1093.5076904296875)" fill="#00000" stroke="none"></path></svg>