<?xml version="1.0" encoding="utf-8" standalone="yes"?>
<!DOCTYPE svg PUBLIC "-//W3C//DTD SVG 1.1//EN" "http://www.w3.org/Graphics/SVG/1.1/DTD/svg11.dtd">
<svg width="864" height="642" viewBox="0 0 864 642" style="fill:none;stroke:none;fill-rule:evenodd;clip-rule:evenodd;stroke-linecap:round;stroke-linejoin:round;stroke-miterlimit:1.5;" version="1.1" xmlns="http://www.w3.org/2000/svg" xmlns:xlink="http://www.w3.org/1999/xlink"><style class="text-font-style fontImports" data-font-family="Shantell Sans">@import url(https://fonts.googleapis.com/css2?family=Shantell+Sans:wght@300..800&amp;amp;display=block);</style><g id="items" style="isolation: isolate"><g id="blend" style="mix-blend-mode: normal"><g id="g-root-cp_0r_g-0r_1ut1yzl1d6f85r-fill" data-item-order="-445526" transform="translate(13.9990234375, 216.828125)"><g id="cp_0r_g-0r_1ut1yzl1d6f85r-fill" stroke="none" fill="#ffe4cb"><g><path d="M 36.8126 58.153772C 56.8291 45.687572 76.5084 33.431472 99.1784 26.757172C 100.6272 27.468172 102.1588 28.121672 103.6007 28.639072C 105.7774 29.423872 107.7643 29.898172 108.9596 29.785972C 109.4629 30.259072 110.185 30.747472 111.056 31.228172C 110.835 33.201572 110.788 36.846372 113.251 37.808872C 115.532 38.701172 117.748 36.099072 118.968 34.254772C 119.422 34.373672 119.905 34.490672 120.347 34.589072C 122.646 35.101772 124.741 35.303572 126.048 35.019572C 126.891 35.484972 127.815 35.906372 128.758 36.239672C 128.79 38.287272 129.237 41.305972 131.526 41.978572C 133.987 42.703472 136.038 39.604772 137.055 37.678772C 138.668 37.717972 140.237 37.621172 141.62 37.438472C 143.987 37.129972 145.872 36.545872 146.754 35.780772C 147.874 36.023772 148.964 36.152872 150.019 36.192372C 150.123 38.237072 151.609 41.706372 154.149 41.766972C 156.805 41.825372 158.173 37.033272 158.615 34.928672L 158.645 34.727072C 159.874 34.296772 160.991 33.832172 161.979 33.421072L 162.324 33.277472C 164.188 32.501372 165.489 31.588572 165.948 30.792172C 166.881 31.146272 167.974 31.339072 169.153 31.402172C 169.808 33.302772 171.309 36.539172 173.907 36.379072C 176.562 36.212672 177.385 32.334272 177.639 30.203972C 178.533 29.930072 179.401 29.610372 180.17 29.284272C 181.143 28.871372 181.99 28.429072 182.647 27.982372C 183.274 27.555872 183.728 27.125372 183.952 26.712772C 183.952 26.712772 183.952 26.712772 183.952 26.712772C 184.895 26.916772 185.982 26.988472 187.141 26.956472C 187.882 28.731072 189.727 32.236872 192.445 31.827972C 194.391 31.532772 195.159 29.303472 195.453 27.292172C 199.435 27.640572 203.421 27.960872 207.422 28.247172C 207.717 28.358672 208.034 28.424072 208.375 28.432772C 208.611 28.438272 208.836 28.413272 209.05 28.361572C 248.802 31.109372 290.274 30.417472 345.626 20.303972C 400.311 10.316572 429.827 17.770772 464.864 26.619672C 502.031 36.006072 545.41 46.961872 631.636 40.333472C 631.812 40.314972 631.996 40.295772 632.188 40.275772L 632.509 40.242372C 642.088 39.245272 669.685 36.373072 689.159 24.132272C 689.159 24.132272 695.62 19.994572 703.666 10.002972C 705.025 10.565772 706.318 10.918472 707.549 11.078972C 705.319 17.996472 703.357 22.758172 700.046 28.752572C 697.468 33.420972 688.586 40.225472 678.671 43.225772C 694.615 48.674172 703.148 56.498772 717.946 76.756272L 717.934 76.756272C 717.934 76.756272 781.249 82.792772 802.001 97.625872C 770.094 91.174872 747.462 89.646472 732.435 88.631672C 721.631 87.902172 714.758 87.437972 711.195 85.600972C 688.624 61.839172 667.747 50.498272 647.493 51.326372C 585.997 56.757572 543.966 55.554772 512.515 51.951572C 511.982 51.751272 511.46 51.569072 510.948 51.398472C 508.486 48.691772 502.098 43.734372 496.616 43.734372C 493.978 43.734372 491.077 45.768472 488.409 48.456772C 475.48 46.181672 464.518 43.611072 454.458 41.252172C 422.502 33.758672 399.654 28.400972 351.792 41.437572C 348.681 42.285272 345.655 43.098072 342.71 43.876972C 342.497 43.803872 342.287 43.733072 342.078 43.664072C 339.608 40.974072 333.198 36.046872 327.698 36.046872C 322.218 36.046872 315.608 44.714072 312.288 49.874072C 311.927 50.437072 311.579 51.007572 311.245 51.581272C 259.48 62.976272 234.416 60.639072 178.402 55.415972L 178.401 55.415872C 169.55 54.590472 159.926 53.693072 149.302 52.766472C 109.1178 49.259772 78.118 73.436372 46.9539 97.741072C 34.8436 107.185772 22.7085 116.649972 10 124.515972L 10 74.224372C 19.1895 69.129272 28.0336 63.621272 36.8126 58.153772Z"></path></g></g></g><g id="g-root-cp_0q_g-0q_1qd8gv51d6f8y0-fill" data-item-order="-445520" transform="translate(114.957763671875, 229.22015380859375)"><g id="cp_0q_g-0q_1qd8gv51d6f8y0-fill" stroke="none" fill="#ebebeb"><g><path d="M 103.146679 10.781296C 103.652879 12.748796 104.870979 15.976996 107.415579 16.042096C 110.162979 16.106396 111.313979 12.051596 111.724979 9.999996C 108.833079 10.619196 105.606979 10.951096 103.146679 10.781296ZM 86.177579 14.555396C 86.915979 16.326796 88.762779 19.847096 91.486379 19.437396C 94.107779 19.039596 94.591679 15.130496 94.658379 12.974496C 92.042879 13.835996 88.909779 14.481096 86.177579 14.555396ZM 68.189279 18.999196C 68.842179 20.898096 70.344779 24.148896 72.948279 23.988396C 75.602679 23.821996 76.425879 19.943596 76.679979 17.813296C 73.979179 18.637196 70.871579 19.155596 68.198179 19.004296L 68.189279 18.999196ZM 49.054679 23.512596C 49.020879 25.498996 50.525779 29.312796 53.190279 29.376296C 55.845779 29.434696 57.214079 24.642696 57.655679 22.537996C 55.154079 23.016796 52.218979 23.864696 49.054679 23.512596ZM 27.799379 23.849096C 27.830979 25.896596 28.277679 28.915296 30.566679 29.587996C 33.027879 30.312896 35.078679 27.214096 36.095479 25.288096C 33.353179 25.214996 30.437679 24.782396 27.799379 23.849096ZM 10.097779 18.830496C 9.875679 20.802396 9.825679 24.454596 12.291779 25.418296C 14.572979 26.310596 16.789279 23.708496 18.008779 21.864096C 15.166179 21.119696 12.206579 20.000896 10.097779 18.830496Z"></path></g></g></g><g id="g-root-cp_0p_g-0p_1lxeyqp1d6f9q9-fill" data-item-order="-445516" transform="translate(95.11083984375, 198.47125244140625)"><g id="cp_0p_g-0p_1lxeyqp1d6f9q9-fill" stroke="none" fill="#e9ffb9"><g><path d="M 10.395411 33.421336C 12.290911 28.345136 19.794611 25.220836 27.183311 25.675836C 28.836311 25.780736 30.475211 26.054136 32.047611 26.525336C 34.295911 25.310436 38.863411 25.540536 43.037211 26.782236C 44.442511 27.192436 45.810811 27.727536 47.028511 28.359736C 48.704311 27.002936 54.199911 26.698236 58.594811 27.371536C 60.203011 27.615736 61.674411 27.994136 62.732711 28.510736C 64.091111 26.899936 69.800411 24.141836 74.842711 23.961836C 76.287911 23.911336 77.680611 24.054736 78.903511 24.512936C 79.585311 21.909836 87.068911 18.635236 92.527411 17.940436C 94.179311 17.737936 95.644311 17.756936 96.679711 18.107036C 97.938311 15.246936 105.897511 12.281036 111.338011 11.988636C 113.057011 11.895936 114.527011 12.071736 115.446011 12.602436C 116.871011 10.133636 125.419011 9.467136 130.646011 10.408836C 132.466011 10.739836 133.875011 11.266736 134.453011 11.977536C 136.447011 8.421136 149.381011 11.555636 156.940011 18.125936C 164.982011 25.116836 164.150011 30.535636 163.160011 32.559636C 158.329011 42.501636 142.391011 38.496836 138.691011 37.567236L 138.611011 37.547136C 138.339011 38.369136 136.874011 39.194036 134.855011 39.868536C 130.148011 41.445736 122.464011 42.306636 119.877011 40.789536C 119.500011 41.504036 118.113011 42.340436 116.250011 43.093736C 112.416011 44.643736 106.531511 45.870536 102.839511 45.072136C 102.380811 45.916936 100.959011 46.836536 99.058111 47.643736C 94.945811 49.387136 88.593911 50.577936 84.836111 49.151636C 84.376311 49.948036 83.075911 50.860736 81.211711 51.636836C 81.098411 51.683836 80.983211 51.731836 80.866311 51.780436C 77.252911 53.284036 71.921011 55.502636 65.641811 54.140236C 64.759911 54.905236 62.875011 55.489436 60.507411 55.797836C 55.934211 56.402136 49.529011 55.913136 44.935311 53.378936C 43.628911 53.663036 41.533211 53.461136 39.235111 52.948436C 34.880011 51.979636 29.768111 49.950536 27.847311 48.145436C 26.652011 48.257636 24.665111 47.783236 22.488411 46.998436C 18.870711 45.700336 14.688711 43.545436 12.664511 41.775036C 9.995411 39.431736 9.531411 35.742336 10.395411 33.421336ZM 102.844611 45.063236L 102.842011 45.067836L 102.844611 45.063236ZM 153.479011 24.615936C 152.914011 25.593336 151.658011 25.924336 150.672011 25.355136C 149.686011 24.786036 149.344011 23.532336 149.909011 22.554936C 150.473011 21.577536 151.730011 21.246536 152.715011 21.815636C 153.701011 22.384836 154.043011 23.638536 153.479011 24.615936Z"></path></g></g></g><g id="g-root-cp_0o_g-0o_1d1ryht1d6faiy-fill" data-item-order="-445510" transform="translate(226.34738159179688, 178.34356689453125)"><g id="cp_0o_g-0o_1d1ryht1d6faiy-fill" stroke="none" fill="#ebebeb"><g><path d="M 19.435053 45.476447C 20.420853 46.045647 21.677453 45.714647 22.241753 44.737247C 22.806053 43.759847 22.464353 42.506147 21.478553 41.936947C 20.492753 41.367847 19.236153 41.698747 18.671853 42.676147C 18.107553 43.653647 18.449253 44.907347 19.435053 45.476447Z"></path></g></g></g><g id="g-root-cp_0k_g-0k_1d1ryht1d6faiz-fill" data-item-order="-445504" transform="translate(308.9999694824219, 242.875)"><g id="cp_0k_g-0k_1d1ryht1d6faiz-fill" stroke="none" fill="#e9ffb9"><g><path d="M 20.346931 153.911C 33.506931 153.571 45.896931 150.651 55.196931 143.761C 64.326931 136.991 68.486931 126.991 68.486931 112.361C 68.486931 108.9206 67.666531 102.8978 67.666531 102.8978C 70.416531 96.1178 69.246831 91.6 69.556831 84.77C 69.736831 80.9 69.876831 76.89 69.946831 72.95C 70.026831 68.52 70.026831 64.19 69.916831 60.25C 69.806831 56.1 69.566631 52.3632 69.186631 49.4232C 68.716631 45.8632 68.016931 43.4462 67.056931 42.7862C 67.106931 39.4762 66.637031 36.7988 65.757031 34.4088C 64.907031 32.0788 63.687031 30.0187 62.227031 27.8987C 61.177031 26.3687 60.007431 25.2972 58.817431 24.4672C 54.377431 20.3772 50.497331 18.7472 47.077331 17.6172C 44.607331 14.9272 38.197131 10 32.697131 10C 27.217131 10 20.607431 18.6672 17.287431 23.8272C 15.207431 27.0672 13.577331 30.5572 12.527331 33.4472C 9.177331 43.2072 11.716831 50.6731 11.716831 50.6731C 9.776831 57.9531 8.556831 85.8231 13.296831 121.583C 13.786831 125.263 14.247031 128.513 14.677031 131.413C 15.197031 134.853 15.677031 137.783 16.127031 140.263C 17.347031 147.013 18.297031 150.482 18.987031 152.242C 19.897031 154.572 20.346931 153.911 20.346931 153.911Z"></path></g></g></g><g id="g-root-cp_0j_g-0j_18mkxgh1d6f85g-fill" data-item-order="-445498" transform="translate(480.510009765625, 250.56201171875)"><g id="cp_0j_g-0j_18mkxgh1d6f85g-fill" stroke="none" fill="#e9ffb9"><g><path d="M 60.4854 88.7124C 62.1499 93.4818 63.5852 98.4523 64.7813 103.4228C 64.7912 103.453 64.8012 103.4631 64.8012 103.4631C 67.5423 96.6412 66.5256 92.0832 66.8346 85.2109C 67.014 81.317 67.1629 77.3054 67.2327 73.341C 67.3124 68.8836 67.3132 64.5012 67.2036 60.5368C 67.094 56.3612 66.8547 52.6182 66.476 49.66C 66.0075 46.078 65.3198 43.633 64.3629 42.9689C 64.4127 39.6384 63.9241 36.9673 63.047 34.5625C 62.1998 32.2181 61.004 30.1468 59.5488 28.0137C 58.5022 26.4742 57.3261 25.3976 56.14 24.5625C 51.7145 20.4472 47.8461 18.8011 44.4372 17.6641C 41.9753 14.9574 35.5869 10 30.1048 10C 24.6427 10 18.0536 18.7206 14.7445 23.9125C 12.6713 27.1725 11.0466 30.6841 10 33.5919C 10.4685 34.3667 11.0377 35.1073 11.6955 35.8217C 15.0745 39.5244 20.8755 42.553 27.9822 45.7728C 28.8693 46.1753 29.766 46.5864 30.693 46.9888C 34.4407 48.649 37.0123 49.947 38.8462 51.1444C 41.677 52.9958 42.7537 54.5903 43.6507 56.8643C 44.0395 57.8503 44.4083 58.9873 44.8668 60.3054C 44.8668 60.3054 47.7772 62.9215 48.3553 67.0971C 48.3852 67.3185 48.4043 67.5756 48.4243 67.807C 48.4243 67.807 52.6205 69.8194 57.355 80.6861C 58.4813 83.272 59.5185 85.9454 60.4854 88.7124Z"></path></g></g></g><g id="g-root-cp_0i_g-0i_18mkxgh1d6f85h-fill" data-item-order="-445492" transform="translate(496.238037109375, 308.36700439453125)"><g id="cp_0i_g-0i_18mkxgh1d6f85h-fill" stroke="none" fill="#d1f4ff"><g><path d="M 53.7272 83.0969C 53.9564 75.8624 53.0394 65.4988 50.9563 54.4609C 48.9528 43.8357 45.8532 32.5888 41.627 22.8892C 36.8925 12.0124 32.6963 10 32.6963 10C 32.6963 10 34.5695 22.2654 27.5127 32.7095C 20.3661 43.2845 14.4654 52.6923 10 61.0537C 13.2494 64.1729 17.2272 66.638 18.4033 67.946C 19.2506 68.8818 19.9682 69.7874 20.5962 70.6929C 25.4901 77.6859 24.9315 83.7811 37.1913 91.6193C 51.026 100.4535 53.3285 95.8855 53.7272 83.0969Z"></path></g></g></g><g id="g-root-cp_0h_g-0h_zqxx7l1d6f8y6-fill" data-item-order="-445486" transform="translate(478, 274.156005859375)"><g id="cp_0h_g-0h_zqxx7l1d6f8y6-fill" stroke="none" fill="#e9ffb9"><g><path d="M 10.6564 71.5281C 11.7229 75.1 13.1979 78.4733 15.6299 82.0352C 18.351 86.0197 22.2781 90.2356 28.2386 95.2665C 32.704 86.9052 38.6046 77.4974 45.7512 66.9224C 52.8081 56.4782 50.9343 44.2128 50.9343 44.2128C 50.6053 39.6347 47.3759 36.7268 47.3759 36.7268C 45.1532 30.3879 45.2828 28.7579 33.2123 23.405C 32.2853 22.9925 31.3783 22.59 30.4812 22.1875C 21.999 18.3439 15.3809 14.7592 12.5203 10C 9.1812 19.8203 11.7129 27.3265 11.7129 27.3265C 10.2975 32.6693 9.2709 49.0701 10.6564 71.5281Z"></path></g></g></g><g id="g-root-cp_0c_g-0c_vb4f351d6f9qf-fill" data-item-order="-445480" transform="translate(656.5700073242188, 118.50003051757812)"><g id="cp_0c_g-0c_vb4f351d6f9qf-fill" stroke="none" fill="#ebebeb"><g><path d="M 27.441834 58.046857C 27.479234 56.896957 28.012534 52.171357 33.144334 44.374457C 32.863934 41.382857 30.611134 38.054657 27.442334 38.054657C 24.273434 38.054657 22.030034 41.382857 21.740234 44.374457C 26.872134 52.162057 27.404534 56.887556 27.441834 58.046857ZM 27.441834 58.046857C 27.385834 61.935956 26.058434 67.218056 23.674834 72.967557C 25.376034 83.634557 27.441834 92.628157 27.441834 92.628157C 27.441834 92.628157 29.507734 83.634557 31.209034 72.967557C 28.834734 67.218056 27.497934 61.935956 27.441834 58.046857Z"></path></g></g></g><g id="g-root-cp_0b_g-0b_vb4f351d6f9qg-fill" data-item-order="-445474" transform="translate(594.011962890625, 98)"><g id="cp_0b_g-0b_vb4f351d6f9qg-fill" stroke="none" fill="#d1f4ff"><g><path d="M 120.268061 127.072C 137.823061 137.945 145.264061 116.76 151.499061 94.1447C 152.835061 89.3021 143.534061 85.8243 136.262061 83.9078C 143.311061 83.7909 147.865061 83.2177 150.909061 80.3646C 156.284061 75.335 156.022061 62.6019 157.041061 59.3672C 157.490061 57.9555 157.995061 56.6937 158.537061 55.5251C 162.725061 46.438 169.240061 43.4371 169.932061 26.3381C 170.717061 7.0421 164.734061 7.36 151.564061 14.4277C 144.104061 18.429 134.158061 25.4108 124.222061 33.9837C 114.650061 42.2387 105.086961 51.9802 97.758361 61.9647C 90.910561 71.3017 90.082161 76.6491 89.995661 78.1644C 90.012361 78.4649 90.000061 78.6146 90.000061 78.6146L 89.990461 78.615C 89.990461 78.615 89.978461 78.4652 89.995661 78.1644C 89.911361 76.6496 89.089761 71.3024 82.241461 61.9647C 74.912861 51.9802 65.350261 42.2387 55.778261 33.9837C 45.841661 25.4108 35.895861 18.429 28.436361 14.4277C 15.265561 7.36 9.283061 7.0421 10.068261 26.3381C 10.760061 43.4371 17.256661 46.436 21.444461 55.523C 21.986561 56.6916 22.500161 57.9555 22.948861 59.3672C 23.967761 62.6019 23.706061 75.335 29.080961 80.3646C 32.098261 83.1931 36.782561 83.7839 43.729361 83.9078C 36.456861 85.8243 27.155961 89.3021 28.492661 94.1447C 34.727561 116.76 42.177661 137.935 59.732561 127.062C 60.022361 126.894 60.293361 126.736 60.583161 126.539C 78.053961 114.9 89.831761 90.3967 90.000061 78.6172C 90.168361 90.3967 101.946361 114.9 119.417061 126.539C 119.520061 126.609 120.268061 126.984 120.268061 127.072Z"></path></g></g></g><g id="g-root-tx_terapiad_qvawyp1d6faip-fill" data-item-order="0" transform="translate(152, 38)"><g id="tx_terapiad_qvawyp1d6faip-fill" stroke="none" fill="#484848"><g><text style="font: bold 25px &quot;Shantell Sans&quot;, cursive; white-space: pre;" font-weight="bold" font-size="25px" font-family="'Shantell Sans', cursive"><tspan x="14.71" y="44.5" dominant-baseline="ideographic">Terapia de Reprocessamento Generativo</tspan></text></g></g></g><g id="g-root-tx_bloqueio_4otvfl1d6f9qi-fill" data-item-order="0" transform="translate(104, 392)"><g id="tx_bloqueio_4otvfl1d6f9qi-fill" stroke="none" fill="#484848"><g><text style="font: bold 20px &quot;Shantell Sans&quot;, cursive; white-space: pre;" font-weight="bold" font-size="20px" font-family="'Shantell Sans', cursive"><tspan x="26.6" y="35.5" dominant-baseline="ideographic">Bloqueios </tspan><tspan x="17.42" y="59.5" dominant-baseline="ideographic">Emocionais</tspan></text></g></g></g><g id="g-root-tx_curatran_w76p1d6go3k-fill" data-item-order="0" transform="translate(584, 392)"><g id="tx_curatran_w76p1d6go3k-fill" stroke="none" fill="#484848"><g><text style="font: bold 20px &quot;Shantell Sans&quot;, cursive; white-space: pre;" font-weight="bold" font-size="20px" font-family="'Shantell Sans', cursive"><tspan x="76.16" y="35.5" dominant-baseline="ideographic">Cura </tspan><tspan x="14.81" y="59.5" dominant-baseline="ideographic">Transformadora</tspan></text></g></g></g><g id="g-root-tx_experinc_90db51d6fair-fill" data-item-order="0" transform="translate(98, 452)"><g id="tx_experinc_90db51d6fair-fill" stroke="none" fill="#484848"><g><text style="font: 15px &quot;Shantell Sans&quot;, cursive; white-space: pre;" font-size="15px" font-family="'Shantell Sans', cursive"><tspan x="34.49" y="32" dominant-baseline="ideographic">Experiências </tspan><tspan x="15.93" y="50" dominant-baseline="ideographic">passadas causam </tspan><tspan x="40.75" y="68" dominant-baseline="ideographic">sofrimento</tspan></text></g></g></g><g id="g-root-tx_integrao_1lzae011d6f8qs-fill" data-item-order="0" transform="translate(272, 452)"><g id="tx_integrao_1lzae011d6f8qs-fill" stroke="none" fill="#484848"><g><text style="font: bold 20px &quot;Shantell Sans&quot;, cursive; white-space: pre;" font-weight="bold" font-size="20px" font-family="'Shantell Sans', cursive"><tspan x="13.53" y="35.5" dominant-baseline="ideographic">Integração </tspan><tspan x="13.14" y="59.5" dominant-baseline="ideographic">de Técnicas</tspan></text></g></g></g><g id="g-root-tx_reproces_v308yp1d6gnba-fill" data-item-order="0" transform="translate(410, 452)"><g id="tx_reproces_v308yp1d6gnba-fill" stroke="none" fill="#484848"><g><text style="font: bold 20px &quot;Shantell Sans&quot;, cursive; white-space: pre;" font-weight="bold" font-size="20px" font-family="'Shantell Sans', cursive"><tspan x="11.88" y="35.5" dominant-baseline="ideographic">Reprocessamento </tspan><tspan x="56.58" y="59.5" dominant-baseline="ideographic">Profundo</tspan></text></g></g></g><g id="g-root-tx_superarb_1lqjqsh1d6gphd-fill" data-item-order="0" transform="translate(602, 452)"><g id="tx_superarb_1lqjqsh1d6gphd-fill" stroke="none" fill="#484848"><g><text style="font: 15px &quot;Shantell Sans&quot;, cursive; white-space: pre;" font-size="15px" font-family="'Shantell Sans', cursive"><tspan x="15.05" y="32" dominant-baseline="ideographic">Superar bloqueios </tspan><tspan x="32.51" y="50" dominant-baseline="ideographic">emocionais e </tspan><tspan x="16.54" y="68" dominant-baseline="ideographic">comportamentais</tspan></text></g></g></g><g id="g-root-tx_combinao_1d3ndr51d6f9jh-fill" data-item-order="0" transform="translate(260, 512)"><g id="tx_combinao_1d3ndr51d6f9jh-fill" stroke="none" fill="#484848"><g><text style="font: 15px &quot;Shantell Sans&quot;, cursive; white-space: pre;" font-size="15px" font-family="'Shantell Sans', cursive"><tspan x="14.52" y="29" dominant-baseline="ideographic">Combinação de TCC </tspan><tspan x="33.4" y="47" dominant-baseline="ideographic">e neurociência</tspan></text></g></g></g><g id="g-root-tx_abordare_hrjqld1d6gow7-fill" data-item-order="0" transform="translate(452, 512)"><g id="tx_abordare_hrjqld1d6gow7-fill" stroke="none" fill="#484848"><g><text style="font: 15px &quot;Shantell Sans&quot;, cursive; white-space: pre;" font-size="15px" font-family="'Shantell Sans', cursive"><tspan x="24.21" y="29" dominant-baseline="ideographic">Abordar e </tspan><tspan x="19.25" y="47" dominant-baseline="ideographic">reprocessar </tspan><tspan x="16.87" y="65" dominant-baseline="ideographic">experiências </tspan><tspan x="27.67" y="83" dominant-baseline="ideographic">passadas</tspan></text></g></g></g><g id="g-root-cp_0r_g-0r_1ut1yzl1d6f85r-stroke" data-item-order="-445526" transform="translate(13.9990234375, 216.828125)"><g id="cp_0r_g-0r_1ut1yzl1d6f85r-stroke" fill="none" stroke-linecap="round" stroke-linejoin="round" stroke-miterlimit="4" stroke="#ffffff" stroke-width="2"><g><path d="M 99.1784 26.7542C 76.5084 33.4285 56.8291 45.6846 36.8126 58.1508C 28.0336 63.6183 19.1895 69.1263 10 74.2214M 207.4224 28.2442C 203.421 27.9579 199.4354 27.6376 195.4531 27.2892M 209.0496 28.3586C 248.8021 31.1064 290.2742 30.4145 345.6264 20.301C 400.3113 10.3136 429.8268 17.7678 464.8643 26.6167C 502.0307 36.0031 545.4105 46.9589 631.6362 40.3305C 631.8118 40.312 631.9957 40.2928 632.1877 40.2728L 632.5088 40.2394C 642.0882 39.2423 669.6852 36.3701 689.1595 24.1293C 689.1595 24.1293 695.6202 19.9916 703.666 10C 705.0251 10.5628 706.3177 10.9155 707.5488 11.076C 705.319 17.9935 703.3573 22.7552 700.0463 28.7496C 697.4679 33.418 688.5865 40.2225 678.6713 43.2228C 694.6154 48.6712 703.1479 56.4958 717.946 76.7533L 717.9336 76.7533C 717.9336 76.7533 781.249 82.7898 802.0013 97.6229C 770.0945 91.1719 747.4624 89.6435 732.4349 88.6287C 721.6314 87.8992 714.7582 87.435 711.1948 85.598C 688.6239 61.8362 667.7471 50.4953 647.4931 51.3234C 585.9969 56.7546 543.9658 55.5518 512.5146 51.9486M 488.4094 48.4538C 475.48 46.1787 464.5177 43.6081 454.458 41.2492C 422.5021 33.7557 399.6544 28.398 351.7923 41.4346C 348.6807 42.2823 345.6551 43.0951 342.7097 43.874M 311.2455 51.5783C 259.4796 62.9733 234.4155 60.6361 178.4024 55.413L 178.4012 55.4129C 169.5502 54.5875 159.9264 53.6901 149.3024 52.7635C 109.1178 49.2568 78.118 73.4334 46.9539 97.7381C 34.8436 107.1828 22.7085 116.6469 10 124.5134"></path></g></g></g><g id="g-root-cp_0q_g-0q_1qd8gv51d6f8y0-stroke" data-item-order="-445520" transform="translate(114.957763671875, 229.22015380859375)"><g id="cp_0q_g-0q_1qd8gv51d6f8y0-stroke" fill="none" stroke-linecap="round" stroke-linejoin="round" stroke-miterlimit="4" stroke="#ffffff" stroke-width="2"><g><path d="M 103.146679 10.781296C 103.652879 12.748796 104.870979 15.976996 107.415579 16.042096C 110.162979 16.106396 111.314079 12.051596 111.725079 9.999996C 108.833079 10.619096 105.606979 10.951096 103.146679 10.781296ZM 86.177579 14.555396C 86.915979 16.326796 88.762779 19.847096 91.486379 19.437396C 94.107779 19.039596 94.591679 15.130496 94.658379 12.974496C 92.042879 13.835996 88.909779 14.481096 86.177579 14.555396ZM 68.189279 18.999096C 68.842179 20.898096 70.344779 24.148896 72.948279 23.988396C 75.602679 23.821996 76.425879 19.943596 76.679979 17.813296C 73.979179 18.637196 70.871579 19.155596 68.198179 19.004296L 68.189279 18.999096ZM 49.054679 23.512596C 49.020879 25.498996 50.525779 29.312796 53.190279 29.376296C 55.845779 29.434696 57.214079 24.642696 57.655679 22.537996C 55.154079 23.016796 52.218979 23.864696 49.054679 23.512596ZM 27.799379 23.849096C 27.830979 25.896596 28.277679 28.915296 30.566679 29.587996C 33.027879 30.312896 35.078679 27.214096 36.095479 25.288096C 33.353179 25.214996 30.437679 24.782396 27.799379 23.849096ZM 10.097779 18.830496C 9.875679 20.802396 9.825679 24.454596 12.291779 25.418296C 14.572979 26.310596 16.789279 23.708496 18.008779 21.864096C 15.166179 21.119696 12.206579 20.000896 10.097779 18.830496Z"></path></g></g></g><g id="g-root-cp_0p_g-0p_1lxeyqp1d6f9q9-stroke" data-item-order="-445516" transform="translate(95.11083984375, 198.47125244140625)"><g id="cp_0p_g-0p_1lxeyqp1d6f9q9-stroke" fill="none" stroke-linecap="round" stroke-linejoin="round" stroke-miterlimit="4" stroke="#ffffff" stroke-width="2"><g><path d="M 27.183311 25.675837C 19.794611 25.220837 12.290911 28.345137 10.395411 33.421337C 9.531411 35.742337 9.995411 39.431737 12.664511 41.775037C 14.688711 43.545437 18.870711 45.700337 22.488411 46.998437C 24.665111 47.783237 26.652011 48.257637 27.847311 48.145437C 29.768111 49.950537 34.880011 51.979637 39.235111 52.948437C 41.533211 53.461137 43.628911 53.663037 44.935311 53.378937C 49.529011 55.913137 55.934211 56.402137 60.507411 55.797837C 62.875011 55.489437 64.759911 54.905237 65.641911 54.140237C 72.124211 55.546737 77.597111 53.136637 81.211711 51.636837C 83.075911 50.860737 84.376311 49.948037 84.836111 49.151637C 88.593911 50.577937 94.945811 49.387137 99.058211 47.643737C 100.959011 46.836537 102.380811 45.916937 102.839511 45.072137L 102.844611 45.063237C 102.843011 45.066237 102.841111 45.069137 102.839511 45.072137C 106.531511 45.870537 112.416011 44.643737 116.250111 43.093737C 118.113011 42.340437 119.500011 41.504037 119.876811 40.789537C 122.463611 42.306637 130.148011 41.445737 134.854611 39.868537C 136.874211 39.194037 138.338811 38.369137 138.611111 37.547137L 138.691111 37.567237C 142.391111 38.496837 158.329211 42.501637 163.159611 32.559637C 164.149711 30.535637 164.981711 25.116837 156.939811 18.125937C 149.381111 11.555637 136.446511 8.421137 134.452711 11.977537C 133.875411 11.266737 132.466211 10.739837 130.646311 10.408837C 125.418711 9.467237 116.871111 10.133637 115.445711 12.602437C 114.526511 12.071737 113.044011 11.898837 111.324611 11.991537C 105.884311 12.283937 97.938311 15.246937 96.679711 18.107037C 95.644311 17.756937 94.179311 17.737937 92.527411 17.940337C 87.068911 18.635237 79.585311 21.909837 78.903511 24.512937C 77.680611 24.054737 76.287911 23.911337 74.842711 23.961837C 69.800411 24.141837 64.091111 26.899937 62.732711 28.510737C 61.674411 27.994137 60.203011 27.615737 58.594811 27.371537C 54.199911 26.698237 48.704311 27.002937 47.028511 28.359737C 45.810811 27.727537 44.442511 27.192437 43.037211 26.782237C 38.863411 25.540537 34.295611 25.311537 32.047211 26.526437C 30.474811 26.055137 28.836311 25.780737 27.183311 25.675837ZM 22.488411 46.998437C 21.875011 45.134137 21.588411 42.703837 21.993911 39.528237C 21.593511 42.694937 21.883911 45.139337 22.488411 46.998437ZM 27.183311 25.675837C 24.475111 29.397937 22.503411 35.492337 21.993911 39.528237M 32.047211 26.526437C 28.876211 28.247037 22.797311 43.412837 27.847311 48.145437M 43.037211 26.782237C 40.114211 31.123637 37.269611 41.162037 37.903411 47.958137C 38.095711 50.015837 38.589511 51.655437 39.235111 52.948437M 47.028511 28.359737C 44.532011 30.375337 38.208211 49.677637 44.942611 53.388837M 58.594811 27.371537C 55.798611 32.647437 55.073711 44.001037 57.370911 50.636637L 57.376011 50.627737C 58.199411 53.014537 59.314411 54.648937 60.507411 55.797837M 62.732711 28.510737C 59.700611 32.093037 57.830611 52.438437 65.641911 54.140237M 74.842711 23.961837C 74.401011 27.777237 74.282611 45.666037 81.211711 51.636837M 84.836111 49.151637C 78.899011 46.903737 78.347011 26.610337 78.903511 24.512937M 92.527411 17.940337C 92.021111 21.105037 92.459311 26.632237 92.707411 29.170537C 93.193411 34.099637 93.865311 39.490137 96.145011 43.909337C 96.975411 45.521337 97.951711 46.757137 99.058211 47.643737C 100.965711 46.833737 102.391111 45.910537 102.844611 45.063237M 96.679711 18.107037C 95.744411 20.221637 96.557911 43.710237 102.826011 45.075637M 116.250111 43.093737C 114.593311 41.346637 112.743211 38.615237 111.460811 27.728237L 111.474811 27.724537C 111.132611 24.895937 110.246111 16.229837 111.324611 11.991537C 110.246111 16.229837 111.133611 24.894937 111.461711 27.727237M 119.876811 40.789537C 115.158311 38.018137 114.020411 15.071237 115.445711 12.602437M 130.646311 10.408837C 127.283911 17.221937 129.781611 30.002537 132.356211 35.889837C 132.911311 37.154137 133.690911 38.689337 134.854611 39.868537M 134.452711 11.977537C 131.034811 18.062437 135.076111 36.662337 138.611111 37.547137C 138.637111 37.553637 138.663811 37.560337 138.691111 37.567237"></path></g></g></g><g id="g-root-cp_0o_g-0o_1d1ryht1d6faiy-stroke" data-item-order="-445510" transform="translate(226.34738159179688, 178.34356689453125)"><g id="cp_0o_g-0o_1d1ryht1d6faiy-stroke" fill="none" stroke-linecap="round" stroke-linejoin="round" stroke-miterlimit="4" stroke="#ffffff" stroke-width="2"><g><path d="M 19.435053 45.476447C 20.420853 46.045647 21.677453 45.714647 22.241753 44.737247C 22.806053 43.759847 22.464353 42.506147 21.478553 41.936947C 20.492753 41.367847 19.236153 41.698747 18.671853 42.676147C 18.107553 43.653547 18.449253 44.907347 19.435053 45.476447ZM 36.486186 17.36643C 30.770786 12.17893 22.284286 14.59413 12.562086 31.43333M 27.348386 10.76893C 20.368386 7.89523 13.411886 12.75133 9.999986 30.86223"></path></g></g></g><g id="g-root-cp_0k_g-0k_1d1ryht1d6faiz-stroke" data-item-order="-445504" transform="translate(308.9999694824219, 242.875)"><g id="cp_0k_g-0k_1d1ryht1d6faiz-stroke" fill="none" stroke-linecap="round" stroke-linejoin="round" stroke-miterlimit="4" stroke="#ffffff" stroke-width="2"><g><path d="M 20.346931 153.9106C 33.506931 153.5706 45.896931 150.6506 55.196931 143.7606C 64.326931 136.9906 68.486931 126.9906 68.486931 112.3606C 68.486931 108.9206 67.666531 102.8978 67.666531 102.8978C 70.416531 96.1178 69.246831 91.6 69.556831 84.77C 69.736831 80.9 69.876831 76.89 69.946831 72.95C 70.026831 68.52 70.026831 64.19 69.916831 60.25C 69.806831 56.1 69.566631 52.3632 69.186631 49.4232C 68.716631 45.8632 68.016931 43.4462 67.056931 42.7862C 67.106931 39.4762 66.637031 36.7988 65.757031 34.4088C 64.907031 32.0788 63.687031 30.0187 62.227031 27.8987C 61.177031 26.3687 60.007431 25.2972 58.817431 24.4672C 54.377431 20.3772 50.497331 18.7472 47.077331 17.6172C 44.607331 14.9272 38.197131 10 32.697131 10C 27.217131 10 20.607431 18.6672 17.287431 23.8272C 15.207431 27.0672 13.577331 30.5572 12.527331 33.4472C 9.177331 43.2072 11.716831 50.6731 11.716831 50.6731C 9.776831 57.9531 8.556831 85.8231 13.296831 121.5831C 13.786831 125.2631 14.247031 128.5125 14.677031 131.4125C 15.197031 134.8525 15.677031 137.7825 16.127031 140.2625C 17.347031 147.0125 18.297031 150.4825 18.987031 152.2425C 19.897031 154.5725 20.346931 153.9106 20.346931 153.9106ZM 20.346931 153.9106C 33.506931 153.5706 45.896931 150.6506 55.196931 143.7606C 64.326931 136.9906 68.486931 126.9906 68.486931 112.3606C 68.486931 108.9206 67.656931 102.8906 67.656931 102.8906C 59.066931 126.9506 28.916931 135.9106 20.336931 153.9106L 20.346931 153.9106ZM 20.346331 153.9131C 28.926331 135.9131 59.066331 126.9531 67.666331 102.8931C 67.666331 102.8931 68.396331 100.6031 62.806331 91.3331C 61.666331 89.4431 58.076331 83.0731 58.076331 83.0731C 56.686331 72.8131 51.076331 67.4531 51.076331 67.4531C 51.076331 67.4531 52.956331 79.6431 45.876331 90.0331C 26.536331 118.3831 16.236331 138.2731 18.986331 152.2531C 19.896331 154.5831 20.356331 153.9131 20.356331 153.9131L 20.346331 153.9131ZM 45.877031 90.0225C 52.957031 79.6425 51.076331 67.4531 51.076331 67.4531C 50.746331 62.9031 47.507031 60.0125 47.507031 60.0125C 45.277031 53.7125 45.407031 52.0925 33.297031 46.7725C 32.367031 46.3625 31.457031 45.9625 30.557031 45.5625C 18.897031 65.0425 13.797031 108.6525 14.677031 131.4125C 15.197031 134.8525 15.677031 137.7825 16.127031 140.2625C 17.347031 147.0125 18.297031 150.4825 18.987031 152.2425C 16.237031 138.2625 26.537031 118.3725 45.877031 90.0225ZM 14.677031 131.4125C 13.797031 108.6525 18.896831 65.0431 30.556831 45.5531C 22.046831 41.7331 15.396831 38.1831 12.526831 33.4531C 9.176831 43.2131 11.716831 50.6731 11.716831 50.6731C 9.776831 57.9531 8.556831 85.8231 13.296831 121.5831C 13.786831 125.2631 14.247031 128.5125 14.677031 131.4125ZM 41.466931 50.9063C 45.656931 48.3263 66.026931 42.0862 67.056931 42.7862C 67.106931 39.4762 66.626931 36.7963 65.746931 34.4063C 63.806931 36.4662 60.556931 38.6762 55.476931 40.5262C 49.056931 42.8662 40.036931 45.1862 30.546931 45.5462C 31.436931 45.9462 32.356931 46.3562 33.286931 46.7562C 37.046931 48.4062 39.626931 49.6962 41.466931 50.8862L 41.466931 50.9063ZM 14.217031 35.6588C 17.607031 39.3388 23.427031 42.3488 30.557031 45.5488C 40.057031 45.1788 49.067031 42.8687 55.487031 40.5287C 60.557031 38.6787 63.817031 36.4688 65.757031 34.4088C 64.907031 32.0788 63.687031 30.0187 62.227031 27.8987C 61.177031 26.3687 59.997031 25.2987 58.807031 24.4688C 53.597031 27.5988 45.027031 32.0687 35.577031 34.2487C 26.227031 36.3987 19.527031 36.2788 14.207031 35.6588M 47.077331 17.6172C 43.607331 19.4772 38.817331 21.5472 32.917331 22.8872C 25.787331 24.5072 21.047431 24.5372 17.287431 23.8272C 15.207431 27.0672 13.577331 30.5572 12.527331 33.4472C 12.997331 34.2172 13.557331 34.9472 14.217331 35.6572C 19.537331 36.2772 26.237331 36.3972 35.587331 34.2472C 45.037331 32.0672 53.607431 27.5972 58.817431 24.4672C 54.377431 20.3772 50.507331 18.7472 47.087331 17.6172L 47.077331 17.6172ZM 32.697131 10C 27.217131 10 20.607131 18.67 17.287131 23.83C 21.047131 24.53 25.787131 24.51 32.917131 22.89C 38.817131 21.55 43.607131 19.48 47.077131 17.62C 44.607131 14.93 38.197131 10 32.697131 10ZM 69.546531 84.7578C 68.616531 85.6878 66.106531 87.1878 61.396531 88.9178C 61.966531 89.9178 62.486531 90.7978 62.806531 91.3378C 68.396531 100.6078 67.666531 102.8978 67.666531 102.8978C 70.416531 96.1178 69.236531 91.5878 69.546531 84.7578ZM 58.076831 83.07C 56.686831 72.81 51.076831 67.45 51.076831 67.45C 51.056831 67.22 51.036831 66.99 51.006831 66.77C 57.326831 65.82 66.126831 62.63 69.916831 60.25C 70.026831 64.19 70.026831 68.52 69.946831 72.95C 69.876831 76.89 69.736831 80.9 69.556831 84.77C 68.636831 85.69 66.116831 87.2 61.406831 88.93C 59.936831 86.38 58.086831 83.08 58.086831 83.08L 58.076831 83.07ZM 46.286631 56.5932C 46.676631 57.5732 47.046631 58.6932 47.506631 60.0032C 47.506631 60.0032 50.426631 62.6032 51.006631 66.7532C 57.326631 65.8032 66.126631 62.6132 69.916631 60.2332C 69.806631 56.0832 69.566631 52.3632 69.186631 49.4232C 68.716631 45.8632 68.026631 43.4332 67.066631 42.7732C 66.036631 42.0732 45.666631 48.3032 41.476631 50.8932C 44.316631 52.7332 45.386631 54.3232 46.286631 56.5832"></path></g></g></g><g id="g-root-cp_0j_g-0j_18mkxgh1d6f85g-stroke" data-item-order="-445498" transform="translate(480.510009765625, 250.56201171875)"><g id="cp_0j_g-0j_18mkxgh1d6f85g-stroke" fill="none" stroke-linecap="round" stroke-linejoin="round" stroke-miterlimit="4" stroke="#ffffff" stroke-width="2"><g><path d="M 60.4854 88.7024C 62.1499 93.4717 63.5852 98.4523 64.7813 103.4228C 64.7912 103.453 64.8012 103.4631 64.8012 103.4631C 67.5423 96.6412 66.5256 92.0832 66.8346 85.2109C 67.014 81.317 67.1629 77.3054 67.2327 73.341C 67.3124 68.8836 67.3132 64.5012 67.2036 60.5368C 67.094 56.3612 66.8547 52.6182 66.476 49.66C 66.0075 46.078 65.3198 43.633 64.3629 42.9689C 64.4127 39.6384 63.9241 36.9673 63.047 34.5625C 62.1998 32.2181 61.004 30.1468 59.5488 28.0137C 58.5022 26.4742 57.3261 25.3976 56.14 24.5625C 51.7145 20.4472 47.8461 18.801 44.4372 17.6641C 41.9753 14.9574 35.5869 10 30.1048 10C 24.6427 10 18.0536 18.7206 14.7445 23.9125C 12.6713 27.1725 11.0466 30.6841 10 33.5919C 10.4685 34.3667 11.0377 35.1073 11.6955 35.8217C 15.0745 39.5244 20.8755 42.553 27.9822 45.7728C 28.8693 46.1753 29.766 46.5864 30.693 46.9888C 34.4407 48.649 37.0225 49.9417 38.8564 51.1391C 41.6872 52.9904 42.7537 54.5903 43.6507 56.8643C 44.0395 57.8503 44.4083 58.9873 44.8668 60.3054C 44.8668 60.3054 47.7764 62.9472 48.3545 67.1228C 48.3844 67.3442 48.4043 67.5756 48.4243 67.807C 48.4243 67.807 52.6205 69.8194 57.355 80.6861C 58.4813 83.272 59.5185 85.9354 60.4854 88.7024ZM 60.4854 88.7024C 64.0437 87.2635 66.0372 86.0159 66.8346 85.2109M 67.2036 60.5368C 63.426 62.9315 54.6539 66.1669 48.3545 67.1228M 64.3629 42.9689C 63.3363 42.2645 43.0328 48.5331 38.8564 51.1391M 63.047 34.5625C 61.1133 36.6352 57.8739 38.8589 52.8105 40.7203C 46.4115 43.0748 37.4412 45.4106 27.9822 45.7728M 11.6955 35.8217C 16.9982 36.4455 23.6652 36.5602 32.9847 34.3969C 42.4039 32.2034 50.947 27.7119 56.14 24.5625M 44.4372 17.6641C 40.9786 19.5356 36.2042 21.6184 30.3235 22.9666C 23.2167 24.5967 18.4922 24.6268 14.7445 23.9125"></path></g></g></g><g id="g-root-cp_0i_g-0i_18mkxgh1d6f85h-stroke" data-item-order="-445492" transform="translate(496.238037109375, 308.36700439453125)"><g id="cp_0i_g-0i_18mkxgh1d6f85h-stroke" fill="none" stroke-linecap="round" stroke-linejoin="round" stroke-miterlimit="4" stroke="#ffffff" stroke-width="2"><g><path d="M 53.7272 83.0969C 53.9564 75.8624 53.0394 65.4988 50.9563 54.4609C 53.4481 73.1659 48.0059 83.8515 44.8363 85.5822C 41.9458 87.1518 28.4599 79.6356 20.5957 70.6806C 25.4897 77.6736 24.9315 83.7811 37.1913 91.6193C 51.026 100.4535 53.3285 95.8855 53.7272 83.0969ZM 32.6963 10C 49.4614 46.9873 32.4172 71.8299 36.5238 83.1897C 40.3911 85.2624 43.5906 86.2686 44.8365 85.5945C 48.0161 83.8638 53.4483 73.1782 50.9565 54.4733C 48.953 43.848 45.8532 32.5888 41.627 22.8892C 36.8925 12.0124 32.6963 10.0101 32.6963 10.0101L 32.6963 10ZM 36.5238 83.1897C 32.4172 71.8299 49.4614 46.9873 32.6963 10C 39.6336 37.4889 20.7157 62.3819 18.4033 67.946C 19.2505 68.8818 19.9682 69.7874 20.5962 70.6929C 25.0815 75.8043 31.3906 80.4428 36.5238 83.1897ZM 32.6963 10C 32.6963 10 34.5695 22.2654 27.5127 32.7095C 20.3661 43.2845 14.4654 52.6923 10 61.0537C 13.2494 64.1729 17.2272 66.638 18.4033 67.946C 20.7058 62.3819 39.6336 37.4889 32.6963 10Z"></path></g></g></g><g id="g-root-cp_0h_g-0h_zqxx7l1d6f8y6-stroke" data-item-order="-445486" transform="translate(478, 274.156005859375)"><g id="cp_0h_g-0h_zqxx7l1d6f8y6-stroke" fill="none" stroke-linecap="round" stroke-linejoin="round" stroke-miterlimit="4" stroke="#ffffff" stroke-width="2"><g><path d="M 10.6564 71.5281C 11.7229 75.1 13.198 78.4707 15.6301 82.0326C 17.6435 60.3796 22.5375 35.5973 30.4914 22.1748C 22.0092 18.3312 15.3809 14.7592 12.5203 10C 9.1812 19.8203 11.7129 27.3265 11.7129 27.3265C 10.2975 32.6693 9.2709 49.0701 10.6564 71.5281ZM 28.2386 95.2665C 32.704 86.9052 38.6046 77.4974 45.7512 66.9224C 52.8081 56.4782 50.9343 44.2128 50.9343 44.2128C 50.6053 39.6347 47.3759 36.7268 47.3759 36.7268C 45.1532 30.3879 45.2828 28.7579 33.2123 23.405C 32.2853 22.9925 31.3783 22.59 30.4812 22.1875C 22.5273 35.5999 17.6433 60.3822 15.6299 82.0352C 18.351 86.0197 22.2781 90.2356 28.2386 95.2665Z"></path></g></g></g><g id="g-root-cp_0c_g-0c_vb4f351d6f9qf-stroke" data-item-order="-445480" transform="translate(656.5700073242188, 118.50003051757812)"><g id="cp_0c_g-0c_vb4f351d6f9qf-stroke" fill="none" stroke-linecap="round" stroke-linejoin="round" stroke-miterlimit="4" stroke="#ffffff" stroke-width="2"><g><path d="M 27.441834 58.046857C 27.479234 56.896957 28.012534 52.171357 33.144334 44.374457C 32.863934 41.382857 30.611134 38.054657 27.442234 38.054657C 24.273434 38.054657 22.030034 41.382857 21.740234 44.374457C 26.872134 52.162057 27.404534 56.887556 27.441834 58.046857ZM 27.441834 58.046857C 27.385834 61.935956 26.058434 67.218056 23.674834 72.967557C 25.376034 83.634557 27.441834 92.628157 27.441834 92.628157C 27.441834 92.628157 29.507734 83.634557 31.209034 72.967557C 28.834734 67.218056 27.497934 61.935956 27.441834 58.046857ZM 44.885 10.282969C 36.2758 8.403869 29.2744 15.686569 29.2744 38.058269M 10 10.282969C 18.6092 8.403869 25.6106 15.686569 25.6106 38.058269"></path></g></g></g><g id="g-root-cp_0b_g-0b_vb4f351d6f9qg-stroke" data-item-order="-445474" transform="translate(594.011962890625, 98)"><g id="cp_0b_g-0b_vb4f351d6f9qg-stroke" fill="none" stroke-linecap="round" stroke-linejoin="round" stroke-miterlimit="4" stroke="#ffffff" stroke-width="2"><g><path d="M 136.262061 83.9078C 132.074261 83.9826 126.998461 83.8891 120.913161 84.0106C 138.094161 89.6293 142.749261 92.6863 139.477661 102.4558C 135.822661 113.3753 132.410761 130.736 120.258861 127.0619C 137.813761 137.9346 145.263761 116.7595 151.498661 94.1447C 152.835361 89.3021 143.534461 85.8149 136.262061 83.8984L 136.262061 83.9078ZM 120.267761 127.0721C 132.419761 130.7462 135.831561 113.3854 139.486561 102.466C 142.758261 92.6965 138.103061 89.6301 120.922161 84.0208C 120.922161 84.0208 117.379361 84.1049 115.463161 84.1797C 97.936261 84.9089 90.000061 78.6172 90.000061 78.6172C 90.168361 90.3967 101.946361 114.9 119.417161 126.5392C 119.706961 126.7356 119.977961 126.8945 120.267761 127.0628L 120.267761 127.0721ZM 157.050361 59.3672C 150.058261 60.2647 113.714661 55.4781 89.990261 78.6164C 89.990261 78.6164 97.926461 84.9082 115.453261 84.1789C 135.260961 83.3563 145.543361 85.3943 150.908961 80.3646C 156.283861 75.335 156.022061 62.6019 157.040961 59.3672L 157.050361 59.3672ZM 161.790061 31.9453C 152.722861 42.7712 117.538261 39.8825 90.000061 78.6146C 113.724361 55.4669 150.068161 60.2535 157.060161 59.3654C 157.508861 57.9537 158.004261 56.6916 158.546461 55.523C 161.070261 47.9598 162.042461 38.798 161.799361 31.9453L 161.790061 31.9453ZM 90.000061 78.6146C 117.538261 39.8825 152.722861 42.7712 161.790061 31.9453C 161.612461 26.7848 160.733561 22.9241 159.322061 22.0546C 155.695161 19.8202 141.683061 20.5121 124.221561 33.9837C 114.649561 42.2387 105.086961 51.9802 97.758361 61.9647C 89.551161 73.1553 89.990461 78.615 89.990461 78.615L 90.000061 78.6146ZM 151.563661 14.4277C 144.104161 18.429 134.158261 25.4126 124.221761 33.9854C 141.683161 20.5138 155.695261 19.822 159.322161 22.0563C 162.621861 24.085 162.967761 42.2591 158.536961 55.5251C 162.724661 46.438 169.239961 43.4371 169.931761 26.3381C 170.716961 7.0421 164.734461 7.36 151.563661 14.4277ZM 43.729361 83.9078C 43.912261 83.9111 43.542961 83.9051 43.729361 83.9078C 47.808561 83.966 53.258761 83.8944 59.078161 84.0106C 41.897261 89.6293 37.242061 92.6863 40.513761 102.4558C 44.168661 113.3753 47.580561 130.736 59.732561 127.0619C 42.177661 137.9346 34.727561 116.7595 28.492661 94.1447C 27.155961 89.3021 36.456861 85.8243 43.729361 83.9078ZM 59.732561 127.0721C 47.580561 130.7462 44.168661 113.3854 40.513761 102.466C 37.242061 92.6965 41.897261 89.6301 59.078161 84.0208C 59.078161 84.0208 62.620961 84.1049 64.537161 84.1797C 82.064061 84.9089 90.000061 78.6172 90.000061 78.6172C 89.831761 90.3967 78.053961 114.9 60.583161 126.5392C 60.293361 126.7356 60.022361 126.8936 59.732561 127.0619L 59.732561 127.0721ZM 18.200761 31.9453C 27.267961 42.7712 62.452361 39.8828 89.990461 78.615C 66.266161 55.4673 29.922761 60.2535 22.930661 59.3654C 22.481961 57.9537 21.986561 56.6916 21.444461 55.523C 18.920561 47.9598 17.948461 38.798 18.191461 31.9453L 18.200761 31.9453ZM 90.000061 78.6146C 62.461861 39.8825 27.277261 42.7716 18.210061 31.9457C 18.387661 26.7851 19.266361 22.9241 20.677861 22.0546C 24.304661 19.8202 38.316861 20.5121 55.778261 33.9837C 65.350261 42.2387 74.912861 51.9802 82.241461 61.9647C 90.448661 73.1553 90.009361 78.615 90.009361 78.615L 90.000061 78.6146ZM 28.436361 14.4277C 35.895861 18.429 45.841761 25.4126 55.778261 33.9854C 38.316861 20.5138 24.304761 19.822 20.677861 22.0563C 17.378161 24.085 17.032261 42.2591 21.463061 55.5251C 17.275361 46.438 10.760061 43.4371 10.068261 26.3381C 9.283061 7.0421 15.265561 7.36 28.436361 14.4277ZM 43.729361 83.9078C 36.782561 83.7839 32.098261 83.1931 29.080961 80.3646C 23.706061 75.335 23.967761 62.6019 22.948861 59.3672L 22.939561 59.3672C 29.931561 60.2647 66.275761 55.4789 90.000061 78.6172C 90.000061 78.6172 82.063461 84.9082 64.536561 84.1789"></path></g></g></g><g id="g-root-tx_terapiad_qvawyp1d6faip-stroke" data-item-order="0" transform="translate(152, 38)"></g><g id="g-root-tx_bloqueio_4otvfl1d6f9qi-stroke" data-item-order="0" transform="translate(104, 392)"></g><g id="g-root-tx_curatran_w76p1d6go3k-stroke" data-item-order="0" transform="translate(584, 392)"></g><g id="g-root-tx_experinc_90db51d6fair-stroke" data-item-order="0" transform="translate(98, 452)"></g><g id="g-root-tx_superarb_1lqjqsh1d6gphd-stroke" data-item-order="0" transform="translate(602, 452)"></g><g id="g-root-tx_combinao_1d3ndr51d6f9jh-stroke" data-item-order="0" transform="translate(260, 512)"></g><g id="g-root-tx_abordare_hrjqld1d6gow7-stroke" data-item-order="0" transform="translate(452, 512)"></g></g></g><path id="w2r9sx1ea6n0k" d="M65.283 12.757a.35.35 0 0 0 .584.157l5.203-5.141-6.183 3.523.396 1.461zm-2.216-11.7a.35.35 0 0 0-.522.305v3.111l3.276-1.868-2.754-1.548zm3.728 2.105l-4.25 2.421v2.445l6.391-3.644-2.141-1.222zm4.708 3.303a.35.35 0 0 0 0-.609l-1.592-.9-7.365 4.199v1.782a.35.35 0 0 0 .523.305l8.435-4.777z M44.542 2.513c0-.433.355-.783.792-.783s.792.35.792.783-.355.783-.792.783-.792-.35-.792-.783zm59.171 0c0-.433.355-.783.792-.783s.792.35.792.783-.355.783-.792.783-.792-.35-.792-.783zm-85.951 7.636h-1.27v-.487c-.276.201-.864.609-1.881.609-1.202 0-2.274-.794-2.137-2.078.118-1.106 1.153-1.584 1.848-1.727l2.17-.345c0-.539-.29-.956-1.064-1.006s-1.21.305-1.571 1.017l-1.124-.605c1.218-2.631 5.029-1.764 5.029.414v4.207zm-1.27-2.86c.006.396-.062 1.112-.819 1.59-.587.37-1.841.299-1.903-.395-.049-.555.461-.791.906-.898l1.816-.297zm72.662 2.86h-1.27v-.487c-.276.201-.864.609-1.881.609-1.202 0-2.274-.794-2.137-2.078.118-1.106 1.153-1.584 1.848-1.727l2.17-.345c0-.539-.29-.956-1.064-1.006s-1.21.305-1.571 1.017l-1.124-.605c1.218-2.631 5.029-1.764 5.029.414v4.207zm-1.27-2.86c.006.396-.062 1.112-.82 1.59-.587.37-1.841.299-1.903-.395-.049-.555.461-.791.906-.898l1.816-.297zM99.096 10.149H97.85v-8.45h1.246v4.895l2.68-2.559h1.738l-2.633 2.535 2.715 3.578h-1.556l-2.077-2.707-.867.844v1.863zm6.053-6.114h-1.255v6.113h1.255V4.035zm-59.2 0h-1.255v6.113h1.255V4.035zm5.584 6.113V1.697h1.255v2.695c.361-.346 1-.485 1.47-.485 1.452 0 2.477 1.082 2.457 2.448v3.792h-1.27v-3.68c0-.408-.214-1.339-1.315-1.339-.968 0-1.342.756-1.342 1.339v3.681h-1.255zm-4.76-4.894V4.039h.621a.45.45 0 0 0 .45-.45v-.855h1.251v1.305h1.309v1.215h-1.309v3.109c0 .293.105.664.648.664.365 0 .531-.035.736-.07v1.137s-.361.113-.857.113c-1.398 0-1.777-1.051-1.777-1.788V5.254h-1.071zM36.528 4.039h-1.394l2.191 6.106h1.125l1.234-3.918 1.238 3.918h1.129l2.188-6.106h-1.383l-1.359 3.93-1.256-3.93h-1.124l-1.242 3.957-1.348-3.957zM26.212 7.141c-.02 1.566 1.187 3.129 3.223 3.129 1.566 0 2.383-.918 2.734-1.719L31.172 8c-.315.399-.801 1.094-1.738 1.094-1.145 0-1.825-.781-1.891-1.52h4.625c.074-.284.148-.995-.03-1.559-.336-1.064-1.221-2.102-2.839-2.102s-3.088 1.152-3.088 3.227zm1.363-.75h3.348c-.055-.43-.566-1.301-1.623-1.301a1.79 1.79 0 0 0-1.725 1.301zm-8.758.75c.038 1.758 1.277 3.133 3.145 3.133 1.074 0 1.723-.477 1.961-.672v.547h1.242V1.703h-1.258v2.888c-.414-.36-1.062-.68-1.93-.68-1.91 0-3.198 1.473-3.16 3.23zm1.309-.08c0 1.119.723 1.978 1.836 1.978a1.88 1.88 0 0 0 1.94-1.904c0-1.371-1.011-1.99-1.972-1.99s-1.805.798-1.805 1.916zm76.683-.028C96.771 5.275 95.532 3.9 93.664 3.9c-1.074 0-1.723.477-1.961.672v-.547h-1.242v8.22h1.258V9.583c.414.36 1.063.68 1.93.68 1.91 0 3.198-1.473 3.16-3.23zm-1.309.08c0-1.119-.723-1.978-1.836-1.978a1.88 1.88 0 0 0-1.94 1.904c0 1.371 1.011 1.99 1.972 1.99S95.5 8.231 95.5 7.113zM106.441 10.173V4.036h1.254v.382c.361-.346 1-.485 1.47-.485 1.452 0 2.477 1.082 2.457 2.448v3.792h-1.27V6.492c0-.408-.214-1.339-1.315-1.339-.969 0-1.342.756-1.342 1.339v3.681h-1.254zm-30.383-.021V1.824h1.084l4.215 5.777V1.824h1.32v8.328h-1.094l-4.207-5.796v5.796h-1.319zM5.24 10.149H4V2.377h1.014l2.664 3.597 2.654-3.592h1.03v7.766h-1.256V4.762L7.678 8.068 5.24 4.742v5.407z" transform="translate(728, 608)" fill="#" stroke="none"></path></svg>