<?xml version="1.0" encoding="utf-8" standalone="yes"?>
<!DOCTYPE svg PUBLIC "-//W3C//DTD SVG 1.1//EN" "http://www.w3.org/Graphics/SVG/1.1/DTD/svg11.dtd">
<svg width="768" height="732" viewBox="0 0 768 732" style="fill:none;stroke:none;fill-rule:evenodd;clip-rule:evenodd;stroke-linecap:round;stroke-linejoin:round;stroke-miterlimit:1.5;" version="1.1" xmlns="http://www.w3.org/2000/svg" xmlns:xlink="http://www.w3.org/1999/xlink"><style class="text-font-style fontImports" data-font-family="Shantell Sans">@import url(https://fonts.googleapis.com/css2?family=Shantell+Sans:wght@300..800&amp;amp;display=block);</style><g id="items" style="isolation: isolate"><g id="blend" style="mix-blend-mode: normal"><g id="g-root-cp_4_g-4_hriy751e0ff9r-fill" data-item-order="-457910" transform="translate(349, 110)"><g id="cp_4_g-4_hriy751e0ff9r-fill" stroke="none" fill="#dce9ff"><g><path d="M 10 10C 48.0703 10 85.0648 22.6306 115.186 45.9124C 144.964 68.9285 166.361 101.0684 176.115 137.393L 176.153 137.383C 181.695 157.215 193.574 174.69 209.978 187.139C 226.115 199.385 245.76 206.106 266 206.32L 266 189.236C 266 188.181 267.423 187.845 267.894 188.789L 301.776 244.553C 301.917 244.834 301.917 245.166 301.776 245.447L 267.894 301.211C 267.423 302.155 266 301.819 266 300.764L 266 283.997C 228.803 283.78 192.667 271.51 163.022 249.012C 133.111 226.313 111.449 194.449 101.3447 158.285C 96.0831 138.081 84.2039 120.136 67.685 107.3685C 51.1662 94.6005 30.8781 87.6738 10 87.6738L 10 10Z"></path></g></g></g><g id="g-root-cp_3_g-3_dbpg2p1e0fg20-fill" data-item-order="-457906" transform="translate(177, 110)"><g id="cp_3_g-3_dbpg2p1e0fg20-fill" stroke="none" fill="#c8ffe5"><g><path d="M 10 182C 10.000004 136.383 28.1214 92.6339 60.3776 60.3776C 92.6339 28.1214 136.383 9.999999 182 10L 182 87.6738C 156.983 87.6738 132.991 97.6117 115.301 115.301C 97.6117 132.991 87.6738 156.983 87.6738 182L 10 182Z"></path></g></g></g><g id="g-root-cp_2_g-2_dbpg2p1e0fg21-fill" data-item-order="-457902" transform="translate(177, 282)"><g id="cp_2_g-2_dbpg2p1e0fg21-fill" stroke="none" fill="#fff8b6"><g><path d="M 182 182C 159.413 182 137.046 177.551 116.178 168.907C 95.3104 160.263 76.3493 147.594 60.3776 131.622C 44.4059 115.651 31.7365 96.6896 23.0927 75.8216C 14.4489 54.9536 9.999998 32.5874 10 10L 87.6738 10.000007C 87.6738 22.3871 90.1136 34.6529 94.854 46.0971C 99.5943 57.5413 106.5423 67.9397 115.301 76.6987C 124.06 85.4577 134.459 92.4057 145.903 97.1461C 157.347 101.8864 169.613 104.3262 182 104.3262L 182 182Z"></path></g></g></g><g id="g-root-cp_1_g-1_dbpg2p1e0fg22-fill" data-item-order="-457898" transform="translate(349.00201416015625, 258.2850341796875)"><g id="cp_1_g-1_dbpg2p1e0fg22-fill" stroke="none" fill="#ffe4cb"><g><path d="M 101.3428 9.999961C 104.9806 23.9485 105.3015 38.4555 102.4186 52.5794C 99.5356 66.7033 93.4539 79.9785 84.6405 91.3855C 75.8271 102.7925 64.5165 112.028 51.5775 118.382C 38.6384 124.736 24.4151 128.04 10 128.041L 10.0016 205.715C 36.287 205.714 62.2226 199.689 85.8164 188.102C 109.4103 176.516 130.035 159.675 146.105 138.875C 154.506 128.003 161.545 116.2 167.102 103.7312C 165.728 102.751 164.367 101.7496 163.02 100.727C 133.109 78.0275 111.447 46.1641 101.3428 9.999961Z"></path></g></g></g><g id="g-root-tx_ciclodec_8vvxy91e0fgub-fill" data-item-order="0" transform="translate(230, 38)"><g id="tx_ciclodec_8vvxy91e0fgub-fill" stroke="none" fill="#484848"><g><text style="font: bold 25px &quot;Shantell Sans&quot;, cursive; white-space: pre;" font-weight="bold" font-size="25px" font-family="'Shantell Sans', cursive"><tspan x="16.91" y="44.5" dominant-baseline="ideographic">Ciclo de Cura da TRG</tspan></text></g></g></g><g id="g-root-ic_cog_hvwcyp1e01dzd-fill" data-item-order="0" transform="translate(229, 165)"></g><g id="g-root-ic_2_1414d5t1e0fh8o-fill" data-item-order="0" transform="translate(456, 230)"></g><g id="g-root-ic_2_1hbyhlt1e02scq-fill" data-item-order="0" transform="translate(229, 350)"></g><g id="g-root-ic_sear_1uqjdep1e02rym-fill" data-item-order="0" transform="translate(420, 350)"></g><g id="g-root-tx_1_1hapg9t1e0fgna-fill" data-item-order="0" transform="translate(98, 494)"><g id="tx_1_1hapg9t1e0fgna-fill" stroke="none" fill="#de8431"><g><text style="font: bold 25px &quot;Shantell Sans&quot;, cursive; white-space: pre;" font-weight="bold" font-size="25px" font-family="'Shantell Sans', cursive"><tspan x="16.31" y="44.5" dominant-baseline="ideographic">1</tspan></text></g></g></g><g id="g-root-tx_2_zk1wv51e0ffup-fill" data-item-order="0" transform="translate(266, 494)"><g id="tx_2_zk1wv51e0ffup-fill" stroke="none" fill="#e0cb15"><g><text style="font: bold 25px &quot;Shantell Sans&quot;, cursive; white-space: pre;" font-weight="bold" font-size="25px" font-family="'Shantell Sans', cursive"><tspan x="13.25" y="44.5" dominant-baseline="ideographic">2</tspan></text></g></g></g><g id="g-root-tx_3_1unewtd1e0fh8k-fill" data-item-order="0" transform="translate(434, 494)"><g id="tx_3_1unewtd1e0fh8k-fill" stroke="none" fill="#3cc583"><g><text style="font: bold 25px &quot;Shantell Sans&quot;, cursive; white-space: pre;" font-weight="bold" font-size="25px" font-family="'Shantell Sans', cursive"><tspan x="13.25" y="44.5" dominant-baseline="ideographic">3</tspan></text></g></g></g><g id="g-root-tx_4_18gxva91e0fggf-fill" data-item-order="0" transform="translate(602, 494)"><g id="tx_4_18gxva91e0fggf-fill" stroke="none" fill="#4e88e7"><g><text style="font: bold 25px &quot;Shantell Sans&quot;, cursive; white-space: pre;" font-weight="bold" font-size="25px" font-family="'Shantell Sans', cursive"><tspan x="13.25" y="44.5" dominant-baseline="ideographic">4</tspan></text></g></g></g><g id="g-root-tx_identifi_8xpd1e0fhn0-fill" data-item-order="0" transform="translate(50, 554)"><g id="tx_identifi_8xpd1e0fhn0-fill" stroke="none" fill="#de8431"><g><text style="font: bold 20px &quot;Shantell Sans&quot;, cursive; white-space: pre;" font-weight="bold" font-size="20px" font-family="'Shantell Sans', cursive"><tspan x="12" y="35.5" dominant-baseline="ideographic">Identificar </tspan><tspan x="12" y="59.5" dominant-baseline="ideographic">Bloqueio </tspan><tspan x="12" y="83.5" dominant-baseline="ideographic">Emocional</tspan></text></g></g></g><g id="g-root-tx_reproces_18f2g0x1e0fhfz-fill" data-item-order="0" transform="translate(218, 554)"><g id="tx_reproces_18f2g0x1e0fhfz-fill" stroke="none" fill="#e0cb15"><g><text style="font: bold 20px &quot;Shantell Sans&quot;, cursive; white-space: pre;" font-weight="bold" font-size="20px" font-family="'Shantell Sans', cursive"><tspan x="12" y="35.5" dominant-baseline="ideographic">Reprocessar </tspan><tspan x="12" y="59.5" dominant-baseline="ideographic">Memória</tspan></text></g></g></g><g id="g-root-tx_ressigni_8xrd7l1e0ffuq-fill" data-item-order="0" transform="translate(386, 554)"><g id="tx_ressigni_8xrd7l1e0ffuq-fill" stroke="none" fill="#3cc583"><g><text style="font: bold 20px &quot;Shantell Sans&quot;, cursive; white-space: pre;" font-weight="bold" font-size="20px" font-family="'Shantell Sans', cursive"><tspan x="12" y="35.5" dominant-baseline="ideographic">Ressignificar </tspan><tspan x="12" y="59.5" dominant-baseline="ideographic">e </tspan><tspan x="12" y="83.5" dominant-baseline="ideographic">Reprogramar</tspan></text></g></g></g><g id="g-root-tx_liberare_1lsednl1e0fevh-fill" data-item-order="0" transform="translate(554, 554)"><g id="tx_liberare_1lsednl1e0fevh-fill" stroke="none" fill="#4e88e7"><g><text style="font: bold 20px &quot;Shantell Sans&quot;, cursive; white-space: pre;" font-weight="bold" font-size="20px" font-family="'Shantell Sans', cursive"><tspan x="12" y="35.5" dominant-baseline="ideographic">Liberar </tspan><tspan x="12" y="59.5" dominant-baseline="ideographic">Emoções</tspan></text></g></g></g><g id="g-root-tx_estimula_1cuvy5d1e0fhfk-fill" data-item-order="0" transform="translate(218, 614)"><g id="tx_estimula_1cuvy5d1e0fhfk-fill" stroke="none" fill="#484848"><g><text style="font: 15px &quot;Shantell Sans&quot;, cursive; white-space: pre;" font-size="15px" font-family="'Shantell Sans', cursive"><tspan x="12" y="32" dominant-baseline="ideographic">Estimular o </tspan><tspan x="12" y="50" dominant-baseline="ideographic">cérebro para </tspan><tspan x="12" y="68" dominant-baseline="ideographic">reprocessar</tspan></text></g></g></g><g id="g-root-tx_expressa_1hckvj51e0ffnq-fill" data-item-order="0" transform="translate(554, 614)"><g id="tx_expressa_1hckvj51e0ffnq-fill" stroke="none" fill="#484848"><g><text style="font: 15px &quot;Shantell Sans&quot;, cursive; white-space: pre;" font-size="15px" font-family="'Shantell Sans', cursive"><tspan x="12" y="29" dominant-baseline="ideographic">Expressar e liberar </tspan><tspan x="12" y="47" dominant-baseline="ideographic">emoções</tspan></text></g></g></g><g id="g-root-tx_encontra_1lqiye91e0ffv1-fill" data-item-order="0" transform="translate(50, 638)"><g id="tx_encontra_1lqiye91e0ffv1-fill" stroke="none" fill="#484848"><g><text style="font: 15px &quot;Shantell Sans&quot;, cursive; white-space: pre;" font-size="15px" font-family="'Shantell Sans', cursive"><tspan x="12" y="29" dominant-baseline="ideographic">Encontrar a raiz </tspan><tspan x="12" y="47" dominant-baseline="ideographic">do sofrimento</tspan></text></g></g></g><g id="g-root-tx_criarnov_24cyp1e0fgnf-fill" data-item-order="0" transform="translate(386, 638)"><g id="tx_criarnov_24cyp1e0fgnf-fill" stroke="none" fill="#484848"><g><text style="font: 15px &quot;Shantell Sans&quot;, cursive; white-space: pre;" font-size="15px" font-family="'Shantell Sans', cursive"><tspan x="12" y="29" dominant-baseline="ideographic">Criar novas </tspan><tspan x="12" y="47" dominant-baseline="ideographic">perspectivas</tspan></text></g></g></g><g id="g-root-cp_4_g-4_hriy751e0ff9r-stroke" data-item-order="-457910" transform="translate(349, 110)"><g id="cp_4_g-4_hriy751e0ff9r-stroke" fill="none" stroke-linecap="round" stroke-linejoin="round" stroke-miterlimit="4" stroke="#ffffff" stroke-width="2"><g><path d="M 10 10C 48.0703 10 85.0648 22.6306 115.1863 45.9124C 144.9641 68.9285 166.3611 101.0684 176.1152 137.3935L 176.1533 137.3828C 181.6947 157.2155 193.5739 174.69 209.9775 187.1385C 226.1154 199.3855 245.76 206.106 266 206.3204L 266 189.2361C 266 188.1808 267.4225 187.845 267.8944 188.7888L 301.7764 244.5528C 301.9172 244.8343 301.9172 245.1657 301.7764 245.4472L 267.8944 301.2112C 267.4225 302.155 266 301.8192 266 300.7639L 266 283.9966C 228.8028 283.7805 192.6675 271.5103 163.0218 249.0125C 133.1106 226.313 111.4493 194.449 101.3447 158.2849C 96.0831 138.0808 84.2039 120.1364 67.685 107.3685C 51.1662 94.6005 30.8781 87.6738 10 87.6738L 10 10Z"></path></g></g></g><g id="g-root-cp_3_g-3_dbpg2p1e0fg20-stroke" data-item-order="-457906" transform="translate(177, 110)"><g id="cp_3_g-3_dbpg2p1e0fg20-stroke" fill="none" stroke-linecap="round" stroke-linejoin="round" stroke-miterlimit="4" stroke="#ffffff" stroke-width="2"><g><path d="M 10 182C 10 136.3828 28.1214 92.6339 60.3776 60.3776C 92.6339 28.1214 136.3828 9.999999 182 10L 182 87.6738C 156.9831 87.6738 132.9909 97.6117 115.3013 115.3013C 97.6117 132.9909 87.6738 156.9831 87.6738 182L 10 182Z"></path></g></g></g><g id="g-root-cp_2_g-2_dbpg2p1e0fg21-stroke" data-item-order="-457902" transform="translate(177, 282)"><g id="cp_2_g-2_dbpg2p1e0fg21-stroke" fill="none" stroke-linecap="round" stroke-linejoin="round" stroke-miterlimit="4" stroke="#ffffff" stroke-width="2"><g><path d="M 182 182C 159.4126 182 137.0464 177.5511 116.1784 168.9073C 95.3104 160.2635 76.3493 147.5941 60.3776 131.6224C 44.4059 115.6507 31.7365 96.6896 23.0927 75.8216C 14.4489 54.9536 10 32.5874 10 10L 87.6738 10C 87.6738 22.3871 90.1136 34.6529 94.854 46.0971C 99.5943 57.5413 106.5423 67.9397 115.3013 76.6987C 124.0603 85.4577 134.4587 92.4057 145.9029 97.1461C 157.3471 101.8864 169.6129 104.3262 182 104.3262L 182 182Z"></path></g></g></g><g id="g-root-cp_1_g-1_dbpg2p1e0fg22-stroke" data-item-order="-457898" transform="translate(349.00201416015625, 258.2850341796875)"><g id="cp_1_g-1_dbpg2p1e0fg22-stroke" fill="none" stroke-linecap="round" stroke-linejoin="round" stroke-miterlimit="4" stroke="#ffffff" stroke-width="2"><g><path d="M 101.3428 10C 104.9806 23.9485 105.3015 38.4555 102.4186 52.5794C 99.5356 66.7033 93.4539 79.9785 84.6405 91.3855C 75.8271 102.7925 64.5165 112.0278 51.5775 118.3821C 38.6384 124.7363 24.4151 128.0405 10 128.0408L 10.0016 205.7146C 36.287 205.7141 62.2226 199.6891 85.8164 188.1023C 109.4103 176.5156 130.0346 159.6755 146.1055 138.8753C 154.5058 128.0029 161.5452 116.1997 167.1021 103.7312C 165.7283 102.7511 164.3674 101.7496 163.0199 100.727C 133.1087 78.0276 111.4473 46.1641 101.3428 10Z"></path></g></g></g><g id="g-root-tx_ciclodec_8vvxy91e0fgub-stroke" data-item-order="0" transform="translate(230, 38)"></g><g id="g-root-ic_cog_hvwcyp1e01dzd-stroke" data-item-order="0" transform="translate(229, 165)"><g id="ic_cog_hvwcyp1e01dzd-stroke" fill="none" stroke-linecap="round" stroke-linejoin="round" stroke-miterlimit="4" stroke="#3cc583" stroke-width="2"><g><path d="M 37.799999 45.1278L 37.799999 49.474998C 37.799999 51.474998 36.200001 53.275002 34 53.275002M 34 53.275002C 31.799999 53.275002 30.200001 51.674999 30.200001 49.474998L 30.200001 45.1278M 34 53.275002L 34 56.275002M 44 35.875C 44 41.3978 39.5228 45.875 34 45.875C 28.47716 45.875 24 41.3978 24 35.875C 24 30.3522 28.47716 25.875061 34 25.875061C 39.5228 25.875061 44 30.3522 44 35.875ZM 46.359798 46.360001C 47.292599 45.6604 48.225399 45.194 49.391602 45.194L 52.189999 45.4272C 53.822399 45.6604 55.2216 44.4944 55.9212 43.095001C 56.6208 41.462601 56.154598 39.8302 54.9884 38.6642L 52.889599 36.798401C 52.189999 36.098801 51.723598 35.166 51.723598 34C 51.723598 33.0672 52.189999 31.901199 52.889599 31.201599L 54.9884 29.335899C 56.154598 28.169861 56.6208 26.30418 55.9212 24.90494C 55.2216 23.505699 53.822399 22.57288 52.189999 22.57288L 49.391602 22.806099C 48.225399 22.806099 47.059399 22.33968 46.359798 21.64006C 45.660198 20.707241 45.193802 19.774399 45.193802 18.608379L 45.426998 15.8099C 45.660198 14.17746 44.494202 12.7782 43.095001 12.07858C 41.462402 11.378968 39.830002 11.845402 38.664001 13.01144L 36.798401 15.11028C 36.098801 15.8099 35.166 16.27632 33.999802 16.27632C 32.833801 16.27632 31.901199 15.8099 31.201401 15.11028L 29.335859 13.01144C 28.169821 11.845402 26.537399 11.378968 24.904961 12.07858C 23.50572 12.7782 22.33968 14.17746 22.57288 15.8099L 22.806099 18.608379C 22.806099 19.774399 22.339699 20.707241 21.640079 21.64006C 20.94046 22.33968 19.77438 22.806099 18.608341 22.806099L 15.809919 22.57288C 14.17746 22.57288 12.77822 23.505699 12.0786 24.90494C 11.378976 26.30418 11.845374 28.169861 13.0114 29.335899L 15.11026 31.201599C 15.809879 31.901199 16.276279 33.0672 16.276279 34C 16.276279 35.166 15.809879 36.098801 15.11026 36.798401L 13.0114 38.6642C 11.845374 39.8302 11.378976 41.462601 12.0786 43.095001C 12.77822 44.4944 14.17746 45.6604 15.809919 45.4272L 18.608341 45.194C 19.77438 45.194 20.707241 45.6604 21.640079 46.360001"></path></g></g></g><g id="g-root-ic_2_1414d5t1e0fh8o-stroke" data-item-order="0" transform="translate(456, 230)"><g id="ic_2_1414d5t1e0fh8o-stroke" fill="none" stroke-linecap="round" stroke-linejoin="round" stroke-miterlimit="4" stroke="#4e88e7" stroke-width="2"><g><path d="M 10 10M 56.042198 17.623699L 51.701599 13.97614C 50.250401 12.80328 48.442799 12.16 46.576801 12.15234L 37.1478 12.15234C 36.422199 12.15234 35.726402 12.44056 35.213402 12.9536C 34.700401 13.46664 34.412201 14.162479 34.412201 14.88802L 34.412201 14.88802C 34.412201 15.613581 34.700401 16.309401 35.213402 16.822441C 35.726402 17.33548 36.422199 17.623699 37.1478 17.623699L 44.205799 17.623699M 10 10M 11.956779 50.376202L 16.2974 54.0238C 17.74868 55.1968 19.556301 55.84 21.422241 55.847599L 30.8512 55.847599C 31.576799 55.847599 32.272598 55.559399 32.785599 55.046398C 33.298599 54.533401 33.586998 53.837601 33.586998 53.112L 33.586998 53.112C 33.586998 52.386398 33.298599 51.690601 32.785599 51.177601C 32.272598 50.6646 31.576799 50.376202 30.8512 50.376202L 23.793159 50.376202M 10 10M 56.042999 25.831581L 50.571602 25.831581C 48.947399 25.8351 47.359402 25.35236 46.012199 24.445499L 42.820599 22.366379C 41.5546 21.63118 41.177601 19.917381 42.018002 18.7188C 42.7262 17.66564 44.148399 17.292179 45.2826 17.86162L 49.3862 20.32374M 10 10M 11.956054 42.1684L 17.42742 42.1684C 19.05154 42.164799 20.639519 42.647598 21.9869 43.5546L 25.17852 45.633598C 26.44438 46.368801 26.821421 48.0826 25.98098 49.2812C 25.272881 50.3344 23.850559 50.707802 22.7164 50.138401L 18.612881 47.676201M 10 10M 33.5928 43.565201L 25.74024 36.4524C 21.472519 32.184601 27.746059 23.990601 33.5928 30.619801C 39.439598 23.990601 45.684601 32.212997 41.4454 36.4524L 33.5928 43.565201Z"></path></g></g></g><g id="g-root-ic_2_1hbyhlt1e02scq-stroke" data-item-order="0" transform="translate(229, 350)"><g id="ic_2_1hbyhlt1e02scq-stroke" fill="none" stroke-linecap="round" stroke-linejoin="round" stroke-miterlimit="4" stroke="#e0cb15" stroke-width="2"><g><path d="M 53.800201 13L 45.4002 13C 43.4002 13 41.800201 14.4 41.4002 16.200001L 37.191399 36.329201M 10 10M 25.200199 37.200001L 25.800201 36.799999C 29.600201 34.400002 34.600201 34.599998 38.4002 37C 41.4002 38.799999 45.000198 39.400002 48.200199 38.200001C 48.4002 38 48.800201 38 49.000198 37.799999M 47.539799 21.6001C 52.517601 21.6001 56.5 25.6001 56.5 30.6C 56.5 32.799999 55.902599 34.599998 54.708 36.200001C 55.703602 37.599998 56.5 39.200001 56.5 41.200001C 56.5 45.400002 53.115002 48.799999 48.933601 48.799999L 44.553001 48.799999L 46.544201 54.799999L 46.544201 55L 40.371597 55L 38.3806 52C 37.185799 53 35.593002 53.599998 34 53.599998C 31.013201 53.599998 28.42478 51.599998 27.23008 49L 19.06638 49C 14.88496 49 11.5 45.599998 11.5 41.400002C 11.5 37.200001 14.88496 33.799999 19.06638 33.799999L 19.26548 33.799999C 19.06636 33.200001 19.06638 32.799999 19.06638 32.200001C 19.06638 27.2001 23.048679 23.2001 28.026541 23.2001C 29.02212 23.2001 30.017599 23.400101 31.013201 23.8001L 31.013201 23.2001C 31.013201 20.4688 32.444801 18.075821 34.596001 16.7362"></path></g></g></g><g id="g-root-ic_sear_1uqjdep1e02rym-stroke" data-item-order="0" transform="translate(420, 350)"><g id="ic_sear_1uqjdep1e02rym-stroke" fill="none" stroke-linecap="round" stroke-linejoin="round" stroke-miterlimit="4" stroke="#de8431" stroke-width="2"><g><path d="M 34 52.863998L 14.4 32.68C 10.872974 29.219961 9.992682 23.874289 12.224 19.466L 12.224 19.466C 13.924208 16.164631 17.093197 13.868671 20.759956 13.281628C 24.426716 12.694582 28.154099 13.886439 30.800001 16.492001L 34 19.41L 37.200001 16.492001C 39.846275 13.888114 43.572845 12.697358 47.238697 13.284321C 50.904549 13.871284 54.073029 16.166048 55.774002 19.466L 55.773998 19.466C 57.260937 22.394909 57.401085 25.825569 56.158001 28.866001M 35 40.922001C 35 45.924595 39.055405 49.98 44.057999 49.98C 49.060593 49.98 53.115997 45.924595 53.115997 40.921997C 53.115997 35.919403 49.060593 31.864 44.057999 31.864C 39.055405 31.864 35 35.919403 35 40.921997ZM 57 53.863998L 50.504002 47.368"></path></g></g></g><g id="g-root-tx_1_1hapg9t1e0fgna-stroke" data-item-order="0" transform="translate(98, 494)"></g><g id="g-root-tx_2_zk1wv51e0ffup-stroke" data-item-order="0" transform="translate(266, 494)"></g><g id="g-root-tx_3_1unewtd1e0fh8k-stroke" data-item-order="0" transform="translate(434, 494)"></g><g id="g-root-tx_4_18gxva91e0fggf-stroke" data-item-order="0" transform="translate(602, 494)"></g><g id="g-root-tx_identifi_8xpd1e0fhn0-stroke" data-item-order="0" transform="translate(50, 554)"></g><g id="g-root-tx_reproces_18f2g0x1e0fhfz-stroke" data-item-order="0" transform="translate(218, 554)"></g><g id="g-root-tx_ressigni_8xrd7l1e0ffuq-stroke" data-item-order="0" transform="translate(386, 554)"></g><g id="g-root-tx_liberare_1lsednl1e0fevh-stroke" data-item-order="0" transform="translate(554, 554)"></g><g id="g-root-tx_estimula_1cuvy5d1e0fhfk-stroke" data-item-order="0" transform="translate(218, 614)"></g><g id="g-root-tx_expressa_1hckvj51e0ffnq-stroke" data-item-order="0" transform="translate(554, 614)"></g><g id="g-root-tx_encontra_1lqiye91e0ffv1-stroke" data-item-order="0" transform="translate(50, 638)"></g><g id="g-root-tx_criarnov_24cyp1e0fgnf-stroke" data-item-order="0" transform="translate(386, 638)"></g></g></g></svg>